%TF.GenerationSoftware,KiCad,Pcbnew,(6.0.5)*%
%TF.CreationDate,2022-06-17T11:53:50-07:00*%
%TF.ProjectId,Amplifier,416d706c-6966-4696-9572-2e6b69636164,00*%
%TF.SameCoordinates,Original*%
%TF.FileFunction,Soldermask,Top*%
%TF.FilePolarity,Negative*%
%FSLAX46Y46*%
G04 Gerber Fmt 4.6, Leading zero omitted, Abs format (unit mm)*
G04 Created by KiCad (PCBNEW (6.0.5)) date 2022-06-17 11:53:50*
%MOMM*%
%LPD*%
G01*
G04 APERTURE LIST*
%ADD10C,0.100000*%
%ADD11C,0.150000*%
%ADD12C,0.300000*%
%ADD13C,0.400000*%
%ADD14C,1.200000*%
%ADD15C,1.498600*%
%ADD16C,1.600000*%
%ADD17O,1.600000X1.600000*%
%ADD18R,1.189000X1.189000*%
%ADD19C,1.189000*%
%ADD20R,2.000000X1.905000*%
%ADD21O,2.000000X1.905000*%
%ADD22R,1.600000X1.600000*%
%ADD23C,2.000000*%
%ADD24C,6.400000*%
%ADD25R,1.800000X1.800000*%
%ADD26C,1.800000*%
%ADD27R,2.200000X2.200000*%
%ADD28O,2.200000X2.200000*%
%ADD29O,4.500000X2.250000*%
%ADD30O,4.000000X2.000000*%
%ADD31O,2.000000X4.000000*%
%ADD32C,1.905000*%
%ADD33C,1.600200*%
%ADD34R,2.400000X2.400000*%
%ADD35O,2.400000X2.400000*%
%ADD36O,3.016000X1.508000*%
%ADD37O,1.508000X3.016000*%
%ADD38R,2.000000X2.000000*%
%ADD39C,4.686000*%
G04 APERTURE END LIST*
D10*
D11*
X177002200Y-166007200D02*
X177002200Y-198007200D01*
X285002200Y-198007200D01*
X285002200Y-166007200D01*
X177002200Y-166007200D01*
D10*
D11*
X10000000Y-10000000D02*
X10000000Y-200007200D01*
X287002200Y-200007200D01*
X287002200Y-10000000D01*
X10000000Y-10000000D01*
D10*
D11*
X12000000Y-12000000D02*
X12000000Y-198007200D01*
X285002200Y-198007200D01*
X285002200Y-12000000D01*
X12000000Y-12000000D01*
D10*
D11*
X60000000Y-12000000D02*
X60000000Y-10000000D01*
D10*
D11*
X110000000Y-12000000D02*
X110000000Y-10000000D01*
D10*
D11*
X160000000Y-12000000D02*
X160000000Y-10000000D01*
D10*
D11*
X210000000Y-12000000D02*
X210000000Y-10000000D01*
D10*
D11*
X260000000Y-12000000D02*
X260000000Y-10000000D01*
D10*
D11*
X36065476Y-11588095D02*
X35322619Y-11588095D01*
X35694047Y-11588095D02*
X35694047Y-10288095D01*
X35570238Y-10473809D01*
X35446428Y-10597619D01*
X35322619Y-10659523D01*
D10*
D11*
X85322619Y-10411904D02*
X85384523Y-10350000D01*
X85508333Y-10288095D01*
X85817857Y-10288095D01*
X85941666Y-10350000D01*
X86003571Y-10411904D01*
X86065476Y-10535714D01*
X86065476Y-10659523D01*
X86003571Y-10845238D01*
X85260714Y-11588095D01*
X86065476Y-11588095D01*
D10*
D11*
X135260714Y-10288095D02*
X136065476Y-10288095D01*
X135632142Y-10783333D01*
X135817857Y-10783333D01*
X135941666Y-10845238D01*
X136003571Y-10907142D01*
X136065476Y-11030952D01*
X136065476Y-11340476D01*
X136003571Y-11464285D01*
X135941666Y-11526190D01*
X135817857Y-11588095D01*
X135446428Y-11588095D01*
X135322619Y-11526190D01*
X135260714Y-11464285D01*
D10*
D11*
X185941666Y-10721428D02*
X185941666Y-11588095D01*
X185632142Y-10226190D02*
X185322619Y-11154761D01*
X186127380Y-11154761D01*
D10*
D11*
X236003571Y-10288095D02*
X235384523Y-10288095D01*
X235322619Y-10907142D01*
X235384523Y-10845238D01*
X235508333Y-10783333D01*
X235817857Y-10783333D01*
X235941666Y-10845238D01*
X236003571Y-10907142D01*
X236065476Y-11030952D01*
X236065476Y-11340476D01*
X236003571Y-11464285D01*
X235941666Y-11526190D01*
X235817857Y-11588095D01*
X235508333Y-11588095D01*
X235384523Y-11526190D01*
X235322619Y-11464285D01*
D10*
D11*
X285941666Y-10288095D02*
X285694047Y-10288095D01*
X285570238Y-10350000D01*
X285508333Y-10411904D01*
X285384523Y-10597619D01*
X285322619Y-10845238D01*
X285322619Y-11340476D01*
X285384523Y-11464285D01*
X285446428Y-11526190D01*
X285570238Y-11588095D01*
X285817857Y-11588095D01*
X285941666Y-11526190D01*
X286003571Y-11464285D01*
X286065476Y-11340476D01*
X286065476Y-11030952D01*
X286003571Y-10907142D01*
X285941666Y-10845238D01*
X285817857Y-10783333D01*
X285570238Y-10783333D01*
X285446428Y-10845238D01*
X285384523Y-10907142D01*
X285322619Y-11030952D01*
D10*
D11*
X60000000Y-198007200D02*
X60000000Y-200007200D01*
D10*
D11*
X110000000Y-198007200D02*
X110000000Y-200007200D01*
D10*
D11*
X160000000Y-198007200D02*
X160000000Y-200007200D01*
D10*
D11*
X210000000Y-198007200D02*
X210000000Y-200007200D01*
D10*
D11*
X260000000Y-198007200D02*
X260000000Y-200007200D01*
D10*
D11*
X36065476Y-199595295D02*
X35322619Y-199595295D01*
X35694047Y-199595295D02*
X35694047Y-198295295D01*
X35570238Y-198481009D01*
X35446428Y-198604819D01*
X35322619Y-198666723D01*
D10*
D11*
X85322619Y-198419104D02*
X85384523Y-198357200D01*
X85508333Y-198295295D01*
X85817857Y-198295295D01*
X85941666Y-198357200D01*
X86003571Y-198419104D01*
X86065476Y-198542914D01*
X86065476Y-198666723D01*
X86003571Y-198852438D01*
X85260714Y-199595295D01*
X86065476Y-199595295D01*
D10*
D11*
X135260714Y-198295295D02*
X136065476Y-198295295D01*
X135632142Y-198790533D01*
X135817857Y-198790533D01*
X135941666Y-198852438D01*
X136003571Y-198914342D01*
X136065476Y-199038152D01*
X136065476Y-199347676D01*
X136003571Y-199471485D01*
X135941666Y-199533390D01*
X135817857Y-199595295D01*
X135446428Y-199595295D01*
X135322619Y-199533390D01*
X135260714Y-199471485D01*
D10*
D11*
X185941666Y-198728628D02*
X185941666Y-199595295D01*
X185632142Y-198233390D02*
X185322619Y-199161961D01*
X186127380Y-199161961D01*
D10*
D11*
X236003571Y-198295295D02*
X235384523Y-198295295D01*
X235322619Y-198914342D01*
X235384523Y-198852438D01*
X235508333Y-198790533D01*
X235817857Y-198790533D01*
X235941666Y-198852438D01*
X236003571Y-198914342D01*
X236065476Y-199038152D01*
X236065476Y-199347676D01*
X236003571Y-199471485D01*
X235941666Y-199533390D01*
X235817857Y-199595295D01*
X235508333Y-199595295D01*
X235384523Y-199533390D01*
X235322619Y-199471485D01*
D10*
D11*
X285941666Y-198295295D02*
X285694047Y-198295295D01*
X285570238Y-198357200D01*
X285508333Y-198419104D01*
X285384523Y-198604819D01*
X285322619Y-198852438D01*
X285322619Y-199347676D01*
X285384523Y-199471485D01*
X285446428Y-199533390D01*
X285570238Y-199595295D01*
X285817857Y-199595295D01*
X285941666Y-199533390D01*
X286003571Y-199471485D01*
X286065476Y-199347676D01*
X286065476Y-199038152D01*
X286003571Y-198914342D01*
X285941666Y-198852438D01*
X285817857Y-198790533D01*
X285570238Y-198790533D01*
X285446428Y-198852438D01*
X285384523Y-198914342D01*
X285322619Y-199038152D01*
D10*
D11*
X10000000Y-60000000D02*
X12000000Y-60000000D01*
D10*
D11*
X10000000Y-110000000D02*
X12000000Y-110000000D01*
D10*
D11*
X10000000Y-160000000D02*
X12000000Y-160000000D01*
D10*
D11*
X10690476Y-35216666D02*
X11309523Y-35216666D01*
X10566666Y-35588095D02*
X11000000Y-34288095D01*
X11433333Y-35588095D01*
D10*
D11*
X11092857Y-84907142D02*
X11278571Y-84969047D01*
X11340476Y-85030952D01*
X11402380Y-85154761D01*
X11402380Y-85340476D01*
X11340476Y-85464285D01*
X11278571Y-85526190D01*
X11154761Y-85588095D01*
X10659523Y-85588095D01*
X10659523Y-84288095D01*
X11092857Y-84288095D01*
X11216666Y-84350000D01*
X11278571Y-84411904D01*
X11340476Y-84535714D01*
X11340476Y-84659523D01*
X11278571Y-84783333D01*
X11216666Y-84845238D01*
X11092857Y-84907142D01*
X10659523Y-84907142D01*
D10*
D11*
X11402380Y-135464285D02*
X11340476Y-135526190D01*
X11154761Y-135588095D01*
X11030952Y-135588095D01*
X10845238Y-135526190D01*
X10721428Y-135402380D01*
X10659523Y-135278571D01*
X10597619Y-135030952D01*
X10597619Y-134845238D01*
X10659523Y-134597619D01*
X10721428Y-134473809D01*
X10845238Y-134350000D01*
X11030952Y-134288095D01*
X11154761Y-134288095D01*
X11340476Y-134350000D01*
X11402380Y-134411904D01*
D10*
D11*
X10659523Y-185588095D02*
X10659523Y-184288095D01*
X10969047Y-184288095D01*
X11154761Y-184350000D01*
X11278571Y-184473809D01*
X11340476Y-184597619D01*
X11402380Y-184845238D01*
X11402380Y-185030952D01*
X11340476Y-185278571D01*
X11278571Y-185402380D01*
X11154761Y-185526190D01*
X10969047Y-185588095D01*
X10659523Y-185588095D01*
D10*
D11*
X287002200Y-60000000D02*
X285002200Y-60000000D01*
D10*
D11*
X287002200Y-110000000D02*
X285002200Y-110000000D01*
D10*
D11*
X287002200Y-160000000D02*
X285002200Y-160000000D01*
D10*
D11*
X285692676Y-35216666D02*
X286311723Y-35216666D01*
X285568866Y-35588095D02*
X286002200Y-34288095D01*
X286435533Y-35588095D01*
D10*
D11*
X286095057Y-84907142D02*
X286280771Y-84969047D01*
X286342676Y-85030952D01*
X286404580Y-85154761D01*
X286404580Y-85340476D01*
X286342676Y-85464285D01*
X286280771Y-85526190D01*
X286156961Y-85588095D01*
X285661723Y-85588095D01*
X285661723Y-84288095D01*
X286095057Y-84288095D01*
X286218866Y-84350000D01*
X286280771Y-84411904D01*
X286342676Y-84535714D01*
X286342676Y-84659523D01*
X286280771Y-84783333D01*
X286218866Y-84845238D01*
X286095057Y-84907142D01*
X285661723Y-84907142D01*
D10*
D11*
X286404580Y-135464285D02*
X286342676Y-135526190D01*
X286156961Y-135588095D01*
X286033152Y-135588095D01*
X285847438Y-135526190D01*
X285723628Y-135402380D01*
X285661723Y-135278571D01*
X285599819Y-135030952D01*
X285599819Y-134845238D01*
X285661723Y-134597619D01*
X285723628Y-134473809D01*
X285847438Y-134350000D01*
X286033152Y-134288095D01*
X286156961Y-134288095D01*
X286342676Y-134350000D01*
X286404580Y-134411904D01*
D10*
D11*
X285661723Y-185588095D02*
X285661723Y-184288095D01*
X285971247Y-184288095D01*
X286156961Y-184350000D01*
X286280771Y-184473809D01*
X286342676Y-184597619D01*
X286404580Y-184845238D01*
X286404580Y-185030952D01*
X286342676Y-185278571D01*
X286280771Y-185402380D01*
X286156961Y-185526190D01*
X285971247Y-185588095D01*
X285661723Y-185588095D01*
D10*
D11*
X200434342Y-193785771D02*
X200434342Y-192285771D01*
X200791485Y-192285771D01*
X201005771Y-192357200D01*
X201148628Y-192500057D01*
X201220057Y-192642914D01*
X201291485Y-192928628D01*
X201291485Y-193142914D01*
X201220057Y-193428628D01*
X201148628Y-193571485D01*
X201005771Y-193714342D01*
X200791485Y-193785771D01*
X200434342Y-193785771D01*
X202577200Y-193785771D02*
X202577200Y-193000057D01*
X202505771Y-192857200D01*
X202362914Y-192785771D01*
X202077200Y-192785771D01*
X201934342Y-192857200D01*
X202577200Y-193714342D02*
X202434342Y-193785771D01*
X202077200Y-193785771D01*
X201934342Y-193714342D01*
X201862914Y-193571485D01*
X201862914Y-193428628D01*
X201934342Y-193285771D01*
X202077200Y-193214342D01*
X202434342Y-193214342D01*
X202577200Y-193142914D01*
X203077200Y-192785771D02*
X203648628Y-192785771D01*
X203291485Y-192285771D02*
X203291485Y-193571485D01*
X203362914Y-193714342D01*
X203505771Y-193785771D01*
X203648628Y-193785771D01*
X204720057Y-193714342D02*
X204577200Y-193785771D01*
X204291485Y-193785771D01*
X204148628Y-193714342D01*
X204077200Y-193571485D01*
X204077200Y-193000057D01*
X204148628Y-192857200D01*
X204291485Y-192785771D01*
X204577200Y-192785771D01*
X204720057Y-192857200D01*
X204791485Y-193000057D01*
X204791485Y-193142914D01*
X204077200Y-193285771D01*
X205434342Y-193642914D02*
X205505771Y-193714342D01*
X205434342Y-193785771D01*
X205362914Y-193714342D01*
X205434342Y-193642914D01*
X205434342Y-193785771D01*
X205434342Y-192857200D02*
X205505771Y-192928628D01*
X205434342Y-193000057D01*
X205362914Y-192928628D01*
X205434342Y-192857200D01*
X205434342Y-193000057D01*
X207220057Y-192428628D02*
X207291485Y-192357200D01*
X207434342Y-192285771D01*
X207791485Y-192285771D01*
X207934342Y-192357200D01*
X208005771Y-192428628D01*
X208077200Y-192571485D01*
X208077200Y-192714342D01*
X208005771Y-192928628D01*
X207148628Y-193785771D01*
X208077200Y-193785771D01*
X209005771Y-192285771D02*
X209148628Y-192285771D01*
X209291485Y-192357200D01*
X209362914Y-192428628D01*
X209434342Y-192571485D01*
X209505771Y-192857200D01*
X209505771Y-193214342D01*
X209434342Y-193500057D01*
X209362914Y-193642914D01*
X209291485Y-193714342D01*
X209148628Y-193785771D01*
X209005771Y-193785771D01*
X208862914Y-193714342D01*
X208791485Y-193642914D01*
X208720057Y-193500057D01*
X208648628Y-193214342D01*
X208648628Y-192857200D01*
X208720057Y-192571485D01*
X208791485Y-192428628D01*
X208862914Y-192357200D01*
X209005771Y-192285771D01*
X210077200Y-192428628D02*
X210148628Y-192357200D01*
X210291485Y-192285771D01*
X210648628Y-192285771D01*
X210791485Y-192357200D01*
X210862914Y-192428628D01*
X210934342Y-192571485D01*
X210934342Y-192714342D01*
X210862914Y-192928628D01*
X210005771Y-193785771D01*
X210934342Y-193785771D01*
X211505771Y-192428628D02*
X211577200Y-192357200D01*
X211720057Y-192285771D01*
X212077200Y-192285771D01*
X212220057Y-192357200D01*
X212291485Y-192428628D01*
X212362914Y-192571485D01*
X212362914Y-192714342D01*
X212291485Y-192928628D01*
X211434342Y-193785771D01*
X212362914Y-193785771D01*
X213005771Y-193214342D02*
X214148628Y-193214342D01*
X215148628Y-192285771D02*
X215291485Y-192285771D01*
X215434342Y-192357200D01*
X215505771Y-192428628D01*
X215577200Y-192571485D01*
X215648628Y-192857200D01*
X215648628Y-193214342D01*
X215577200Y-193500057D01*
X215505771Y-193642914D01*
X215434342Y-193714342D01*
X215291485Y-193785771D01*
X215148628Y-193785771D01*
X215005771Y-193714342D01*
X214934342Y-193642914D01*
X214862914Y-193500057D01*
X214791485Y-193214342D01*
X214791485Y-192857200D01*
X214862914Y-192571485D01*
X214934342Y-192428628D01*
X215005771Y-192357200D01*
X215148628Y-192285771D01*
X216934342Y-192285771D02*
X216648628Y-192285771D01*
X216505771Y-192357200D01*
X216434342Y-192428628D01*
X216291485Y-192642914D01*
X216220057Y-192928628D01*
X216220057Y-193500057D01*
X216291485Y-193642914D01*
X216362914Y-193714342D01*
X216505771Y-193785771D01*
X216791485Y-193785771D01*
X216934342Y-193714342D01*
X217005771Y-193642914D01*
X217077200Y-193500057D01*
X217077200Y-193142914D01*
X217005771Y-193000057D01*
X216934342Y-192928628D01*
X216791485Y-192857200D01*
X216505771Y-192857200D01*
X216362914Y-192928628D01*
X216291485Y-193000057D01*
X216220057Y-193142914D01*
X217720057Y-193214342D02*
X218862914Y-193214342D01*
X220362914Y-193785771D02*
X219505771Y-193785771D01*
X219934342Y-193785771D02*
X219934342Y-192285771D01*
X219791485Y-192500057D01*
X219648628Y-192642914D01*
X219505771Y-192714342D01*
X221648628Y-192285771D02*
X221362914Y-192285771D01*
X221220057Y-192357200D01*
X221148628Y-192428628D01*
X221005771Y-192642914D01*
X220934342Y-192928628D01*
X220934342Y-193500057D01*
X221005771Y-193642914D01*
X221077200Y-193714342D01*
X221220057Y-193785771D01*
X221505771Y-193785771D01*
X221648628Y-193714342D01*
X221720057Y-193642914D01*
X221791485Y-193500057D01*
X221791485Y-193142914D01*
X221720057Y-193000057D01*
X221648628Y-192928628D01*
X221505771Y-192857200D01*
X221220057Y-192857200D01*
X221077200Y-192928628D01*
X221005771Y-193000057D01*
X220934342Y-193142914D01*
D10*
D11*
X177002200Y-194507200D02*
X285002200Y-194507200D01*
D10*
D11*
X178434342Y-196585771D02*
X178434342Y-195085771D01*
X179291485Y-196585771D02*
X178648628Y-195728628D01*
X179291485Y-195085771D02*
X178434342Y-195942914D01*
X179934342Y-196585771D02*
X179934342Y-195585771D01*
X179934342Y-195085771D02*
X179862914Y-195157200D01*
X179934342Y-195228628D01*
X180005771Y-195157200D01*
X179934342Y-195085771D01*
X179934342Y-195228628D01*
X181505771Y-196442914D02*
X181434342Y-196514342D01*
X181220057Y-196585771D01*
X181077200Y-196585771D01*
X180862914Y-196514342D01*
X180720057Y-196371485D01*
X180648628Y-196228628D01*
X180577200Y-195942914D01*
X180577200Y-195728628D01*
X180648628Y-195442914D01*
X180720057Y-195300057D01*
X180862914Y-195157200D01*
X181077200Y-195085771D01*
X181220057Y-195085771D01*
X181434342Y-195157200D01*
X181505771Y-195228628D01*
X182791485Y-196585771D02*
X182791485Y-195800057D01*
X182720057Y-195657200D01*
X182577200Y-195585771D01*
X182291485Y-195585771D01*
X182148628Y-195657200D01*
X182791485Y-196514342D02*
X182648628Y-196585771D01*
X182291485Y-196585771D01*
X182148628Y-196514342D01*
X182077200Y-196371485D01*
X182077200Y-196228628D01*
X182148628Y-196085771D01*
X182291485Y-196014342D01*
X182648628Y-196014342D01*
X182791485Y-195942914D01*
X184148628Y-196585771D02*
X184148628Y-195085771D01*
X184148628Y-196514342D02*
X184005771Y-196585771D01*
X183720057Y-196585771D01*
X183577200Y-196514342D01*
X183505771Y-196442914D01*
X183434342Y-196300057D01*
X183434342Y-195871485D01*
X183505771Y-195728628D01*
X183577200Y-195657200D01*
X183720057Y-195585771D01*
X184005771Y-195585771D01*
X184148628Y-195657200D01*
X186005771Y-195800057D02*
X186505771Y-195800057D01*
X186720057Y-196585771D02*
X186005771Y-196585771D01*
X186005771Y-195085771D01*
X186720057Y-195085771D01*
X187362914Y-196442914D02*
X187434342Y-196514342D01*
X187362914Y-196585771D01*
X187291485Y-196514342D01*
X187362914Y-196442914D01*
X187362914Y-196585771D01*
X188077200Y-196585771D02*
X188077200Y-195085771D01*
X188434342Y-195085771D01*
X188648628Y-195157200D01*
X188791485Y-195300057D01*
X188862914Y-195442914D01*
X188934342Y-195728628D01*
X188934342Y-195942914D01*
X188862914Y-196228628D01*
X188791485Y-196371485D01*
X188648628Y-196514342D01*
X188434342Y-196585771D01*
X188077200Y-196585771D01*
X189577200Y-196442914D02*
X189648628Y-196514342D01*
X189577200Y-196585771D01*
X189505771Y-196514342D01*
X189577200Y-196442914D01*
X189577200Y-196585771D01*
X190220057Y-196157200D02*
X190934342Y-196157200D01*
X190077200Y-196585771D02*
X190577200Y-195085771D01*
X191077200Y-196585771D01*
X191577200Y-196442914D02*
X191648628Y-196514342D01*
X191577200Y-196585771D01*
X191505771Y-196514342D01*
X191577200Y-196442914D01*
X191577200Y-196585771D01*
X194577200Y-196585771D02*
X194577200Y-195085771D01*
X194720057Y-196014342D02*
X195148628Y-196585771D01*
X195148628Y-195585771D02*
X194577200Y-196157200D01*
X195791485Y-196585771D02*
X195791485Y-195585771D01*
X195791485Y-195085771D02*
X195720057Y-195157200D01*
X195791485Y-195228628D01*
X195862914Y-195157200D01*
X195791485Y-195085771D01*
X195791485Y-195228628D01*
X197148628Y-196514342D02*
X197005771Y-196585771D01*
X196720057Y-196585771D01*
X196577200Y-196514342D01*
X196505771Y-196442914D01*
X196434342Y-196300057D01*
X196434342Y-195871485D01*
X196505771Y-195728628D01*
X196577200Y-195657200D01*
X196720057Y-195585771D01*
X197005771Y-195585771D01*
X197148628Y-195657200D01*
X198434342Y-196585771D02*
X198434342Y-195800057D01*
X198362914Y-195657200D01*
X198220057Y-195585771D01*
X197934342Y-195585771D01*
X197791485Y-195657200D01*
X198434342Y-196514342D02*
X198291485Y-196585771D01*
X197934342Y-196585771D01*
X197791485Y-196514342D01*
X197720057Y-196371485D01*
X197720057Y-196228628D01*
X197791485Y-196085771D01*
X197934342Y-196014342D01*
X198291485Y-196014342D01*
X198434342Y-195942914D01*
X199791485Y-196585771D02*
X199791485Y-195085771D01*
X199791485Y-196514342D02*
X199648628Y-196585771D01*
X199362914Y-196585771D01*
X199220057Y-196514342D01*
X199148628Y-196442914D01*
X199077200Y-196300057D01*
X199077200Y-195871485D01*
X199148628Y-195728628D01*
X199220057Y-195657200D01*
X199362914Y-195585771D01*
X199648628Y-195585771D01*
X199791485Y-195657200D01*
X202077200Y-197157200D02*
X202005771Y-197085771D01*
X201862914Y-196871485D01*
X201791485Y-196728628D01*
X201720057Y-196514342D01*
X201648628Y-196157200D01*
X201648628Y-195871485D01*
X201720057Y-195514342D01*
X201791485Y-195300057D01*
X201862914Y-195157200D01*
X202005771Y-194942914D01*
X202077200Y-194871485D01*
X203291485Y-195085771D02*
X203005771Y-195085771D01*
X202862914Y-195157200D01*
X202791485Y-195228628D01*
X202648628Y-195442914D01*
X202577200Y-195728628D01*
X202577200Y-196300057D01*
X202648628Y-196442914D01*
X202720057Y-196514342D01*
X202862914Y-196585771D01*
X203148628Y-196585771D01*
X203291485Y-196514342D01*
X203362914Y-196442914D01*
X203434342Y-196300057D01*
X203434342Y-195942914D01*
X203362914Y-195800057D01*
X203291485Y-195728628D01*
X203148628Y-195657200D01*
X202862914Y-195657200D01*
X202720057Y-195728628D01*
X202648628Y-195800057D01*
X202577200Y-195942914D01*
X204077200Y-196442914D02*
X204148628Y-196514342D01*
X204077200Y-196585771D01*
X204005771Y-196514342D01*
X204077200Y-196442914D01*
X204077200Y-196585771D01*
X205077200Y-195085771D02*
X205220057Y-195085771D01*
X205362914Y-195157200D01*
X205434342Y-195228628D01*
X205505771Y-195371485D01*
X205577200Y-195657200D01*
X205577200Y-196014342D01*
X205505771Y-196300057D01*
X205434342Y-196442914D01*
X205362914Y-196514342D01*
X205220057Y-196585771D01*
X205077200Y-196585771D01*
X204934342Y-196514342D01*
X204862914Y-196442914D01*
X204791485Y-196300057D01*
X204720057Y-196014342D01*
X204720057Y-195657200D01*
X204791485Y-195371485D01*
X204862914Y-195228628D01*
X204934342Y-195157200D01*
X205077200Y-195085771D01*
X206220057Y-196442914D02*
X206291485Y-196514342D01*
X206220057Y-196585771D01*
X206148628Y-196514342D01*
X206220057Y-196442914D01*
X206220057Y-196585771D01*
X207648628Y-195085771D02*
X206934342Y-195085771D01*
X206862914Y-195800057D01*
X206934342Y-195728628D01*
X207077200Y-195657200D01*
X207434342Y-195657200D01*
X207577200Y-195728628D01*
X207648628Y-195800057D01*
X207720057Y-195942914D01*
X207720057Y-196300057D01*
X207648628Y-196442914D01*
X207577200Y-196514342D01*
X207434342Y-196585771D01*
X207077200Y-196585771D01*
X206934342Y-196514342D01*
X206862914Y-196442914D01*
X208220057Y-197157200D02*
X208291485Y-197085771D01*
X208434342Y-196871485D01*
X208505771Y-196728628D01*
X208577200Y-196514342D01*
X208648628Y-196157200D01*
X208648628Y-195871485D01*
X208577200Y-195514342D01*
X208505771Y-195300057D01*
X208434342Y-195157200D01*
X208291485Y-194942914D01*
X208220057Y-194871485D01*
D10*
D11*
X177002200Y-191507200D02*
X285002200Y-191507200D01*
D10*
D12*
X264411485Y-193785771D02*
X263911485Y-193071485D01*
X263554342Y-193785771D02*
X263554342Y-192285771D01*
X264125771Y-192285771D01*
X264268628Y-192357200D01*
X264340057Y-192428628D01*
X264411485Y-192571485D01*
X264411485Y-192785771D01*
X264340057Y-192928628D01*
X264268628Y-193000057D01*
X264125771Y-193071485D01*
X263554342Y-193071485D01*
X265625771Y-193714342D02*
X265482914Y-193785771D01*
X265197200Y-193785771D01*
X265054342Y-193714342D01*
X264982914Y-193571485D01*
X264982914Y-193000057D01*
X265054342Y-192857200D01*
X265197200Y-192785771D01*
X265482914Y-192785771D01*
X265625771Y-192857200D01*
X265697200Y-193000057D01*
X265697200Y-193142914D01*
X264982914Y-193285771D01*
X266197200Y-192785771D02*
X266554342Y-193785771D01*
X266911485Y-192785771D01*
X267482914Y-193642914D02*
X267554342Y-193714342D01*
X267482914Y-193785771D01*
X267411485Y-193714342D01*
X267482914Y-193642914D01*
X267482914Y-193785771D01*
X267482914Y-192857200D02*
X267554342Y-192928628D01*
X267482914Y-193000057D01*
X267411485Y-192928628D01*
X267482914Y-192857200D01*
X267482914Y-193000057D01*
X269625771Y-192285771D02*
X269768628Y-192285771D01*
X269911485Y-192357200D01*
X269982914Y-192428628D01*
X270054342Y-192571485D01*
X270125771Y-192857200D01*
X270125771Y-193214342D01*
X270054342Y-193500057D01*
X269982914Y-193642914D01*
X269911485Y-193714342D01*
X269768628Y-193785771D01*
X269625771Y-193785771D01*
X269482914Y-193714342D01*
X269411485Y-193642914D01*
X269340057Y-193500057D01*
X269268628Y-193214342D01*
X269268628Y-192857200D01*
X269340057Y-192571485D01*
X269411485Y-192428628D01*
X269482914Y-192357200D01*
X269625771Y-192285771D01*
X271054342Y-192285771D02*
X271197200Y-192285771D01*
X271340057Y-192357200D01*
X271411485Y-192428628D01*
X271482914Y-192571485D01*
X271554342Y-192857200D01*
X271554342Y-193214342D01*
X271482914Y-193500057D01*
X271411485Y-193642914D01*
X271340057Y-193714342D01*
X271197200Y-193785771D01*
X271054342Y-193785771D01*
X270911485Y-193714342D01*
X270840057Y-193642914D01*
X270768628Y-193500057D01*
X270697200Y-193214342D01*
X270697200Y-192857200D01*
X270768628Y-192571485D01*
X270840057Y-192428628D01*
X270911485Y-192357200D01*
X271054342Y-192285771D01*
D10*
D11*
X178362914Y-193714342D02*
X178577200Y-193785771D01*
X178934342Y-193785771D01*
X179077200Y-193714342D01*
X179148628Y-193642914D01*
X179220057Y-193500057D01*
X179220057Y-193357200D01*
X179148628Y-193214342D01*
X179077200Y-193142914D01*
X178934342Y-193071485D01*
X178648628Y-193000057D01*
X178505771Y-192928628D01*
X178434342Y-192857200D01*
X178362914Y-192714342D01*
X178362914Y-192571485D01*
X178434342Y-192428628D01*
X178505771Y-192357200D01*
X178648628Y-192285771D01*
X179005771Y-192285771D01*
X179220057Y-192357200D01*
X179862914Y-193785771D02*
X179862914Y-192785771D01*
X179862914Y-192285771D02*
X179791485Y-192357200D01*
X179862914Y-192428628D01*
X179934342Y-192357200D01*
X179862914Y-192285771D01*
X179862914Y-192428628D01*
X180434342Y-192785771D02*
X181220057Y-192785771D01*
X180434342Y-193785771D01*
X181220057Y-193785771D01*
X182362914Y-193714342D02*
X182220057Y-193785771D01*
X181934342Y-193785771D01*
X181791485Y-193714342D01*
X181720057Y-193571485D01*
X181720057Y-193000057D01*
X181791485Y-192857200D01*
X181934342Y-192785771D01*
X182220057Y-192785771D01*
X182362914Y-192857200D01*
X182434342Y-193000057D01*
X182434342Y-193142914D01*
X181720057Y-193285771D01*
X183077200Y-193642914D02*
X183148628Y-193714342D01*
X183077200Y-193785771D01*
X183005771Y-193714342D01*
X183077200Y-193642914D01*
X183077200Y-193785771D01*
X183077200Y-192857200D02*
X183148628Y-192928628D01*
X183077200Y-193000057D01*
X183005771Y-192928628D01*
X183077200Y-192857200D01*
X183077200Y-193000057D01*
X184862914Y-193357200D02*
X185577200Y-193357200D01*
X184720057Y-193785771D02*
X185220057Y-192285771D01*
X185720057Y-193785771D01*
X186862914Y-192785771D02*
X186862914Y-193785771D01*
X186505771Y-192214342D02*
X186148628Y-193285771D01*
X187077200Y-193285771D01*
D10*
D11*
X263434342Y-196585771D02*
X263434342Y-195085771D01*
X264791485Y-196585771D02*
X264791485Y-195085771D01*
X264791485Y-196514342D02*
X264648628Y-196585771D01*
X264362914Y-196585771D01*
X264220057Y-196514342D01*
X264148628Y-196442914D01*
X264077200Y-196300057D01*
X264077200Y-195871485D01*
X264148628Y-195728628D01*
X264220057Y-195657200D01*
X264362914Y-195585771D01*
X264648628Y-195585771D01*
X264791485Y-195657200D01*
X265505771Y-196442914D02*
X265577200Y-196514342D01*
X265505771Y-196585771D01*
X265434342Y-196514342D01*
X265505771Y-196442914D01*
X265505771Y-196585771D01*
X265505771Y-195657200D02*
X265577200Y-195728628D01*
X265505771Y-195800057D01*
X265434342Y-195728628D01*
X265505771Y-195657200D01*
X265505771Y-195800057D01*
X268148628Y-196585771D02*
X267291485Y-196585771D01*
X267720057Y-196585771D02*
X267720057Y-195085771D01*
X267577200Y-195300057D01*
X267434342Y-195442914D01*
X267291485Y-195514342D01*
X269862914Y-195014342D02*
X268577200Y-196942914D01*
X271148628Y-196585771D02*
X270291485Y-196585771D01*
X270720057Y-196585771D02*
X270720057Y-195085771D01*
X270577200Y-195300057D01*
X270434342Y-195442914D01*
X270291485Y-195514342D01*
D10*
D11*
X177002200Y-187507200D02*
X285002200Y-187507200D01*
D10*
D13*
X178714580Y-188211961D02*
X179857438Y-188211961D01*
X179036009Y-190211961D02*
X179286009Y-188211961D01*
X180274104Y-190211961D02*
X180440771Y-188878628D01*
X180524104Y-188211961D02*
X180416961Y-188307200D01*
X180500295Y-188402438D01*
X180607438Y-188307200D01*
X180524104Y-188211961D01*
X180500295Y-188402438D01*
X181107438Y-188878628D02*
X181869342Y-188878628D01*
X181476485Y-188211961D02*
X181262200Y-189926247D01*
X181333628Y-190116723D01*
X181512200Y-190211961D01*
X181702676Y-190211961D01*
X182655057Y-190211961D02*
X182476485Y-190116723D01*
X182405057Y-189926247D01*
X182619342Y-188211961D01*
X184190771Y-190116723D02*
X183988390Y-190211961D01*
X183607438Y-190211961D01*
X183428866Y-190116723D01*
X183357438Y-189926247D01*
X183452676Y-189164342D01*
X183571723Y-188973866D01*
X183774104Y-188878628D01*
X184155057Y-188878628D01*
X184333628Y-188973866D01*
X184405057Y-189164342D01*
X184381247Y-189354819D01*
X183405057Y-189545295D01*
X185155057Y-190021485D02*
X185238390Y-190116723D01*
X185131247Y-190211961D01*
X185047914Y-190116723D01*
X185155057Y-190021485D01*
X185131247Y-190211961D01*
X185286009Y-188973866D02*
X185369342Y-189069104D01*
X185262200Y-189164342D01*
X185178866Y-189069104D01*
X185286009Y-188973866D01*
X185262200Y-189164342D01*
X188559819Y-190211961D02*
X187607438Y-190211961D01*
X187857438Y-188211961D01*
X189226485Y-190211961D02*
X189476485Y-188211961D01*
X189964580Y-189640533D01*
X190809819Y-188211961D01*
X190559819Y-190211961D01*
X191571723Y-188211961D02*
X192809819Y-188211961D01*
X192047914Y-188973866D01*
X192333628Y-188973866D01*
X192512200Y-189069104D01*
X192595533Y-189164342D01*
X192666961Y-189354819D01*
X192607438Y-189831009D01*
X192488390Y-190021485D01*
X192381247Y-190116723D01*
X192178866Y-190211961D01*
X191607438Y-190211961D01*
X191428866Y-190116723D01*
X191345533Y-190021485D01*
X193845533Y-189069104D02*
X193666961Y-188973866D01*
X193583628Y-188878628D01*
X193512200Y-188688152D01*
X193524104Y-188592914D01*
X193643152Y-188402438D01*
X193750295Y-188307200D01*
X193952676Y-188211961D01*
X194333628Y-188211961D01*
X194512200Y-188307200D01*
X194595533Y-188402438D01*
X194666961Y-188592914D01*
X194655057Y-188688152D01*
X194536009Y-188878628D01*
X194428866Y-188973866D01*
X194226485Y-189069104D01*
X193845533Y-189069104D01*
X193643152Y-189164342D01*
X193536009Y-189259580D01*
X193416961Y-189450057D01*
X193369342Y-189831009D01*
X193440771Y-190021485D01*
X193524104Y-190116723D01*
X193702676Y-190211961D01*
X194083628Y-190211961D01*
X194286009Y-190116723D01*
X194393152Y-190021485D01*
X194512200Y-189831009D01*
X194559819Y-189450057D01*
X194488390Y-189259580D01*
X194405057Y-189164342D01*
X194226485Y-189069104D01*
X196345533Y-188878628D02*
X196178866Y-190211961D01*
X195964580Y-188116723D02*
X195309819Y-189545295D01*
X196547914Y-189545295D01*
X198726485Y-189640533D02*
X199678866Y-189640533D01*
X198464580Y-190211961D02*
X199381247Y-188211961D01*
X199797914Y-190211961D01*
X201488390Y-188878628D02*
X201321723Y-190211961D01*
X200631247Y-188878628D02*
X200500295Y-189926247D01*
X200571723Y-190116723D01*
X200750295Y-190211961D01*
X201036009Y-190211961D01*
X201238390Y-190116723D01*
X201345533Y-190021485D01*
X203131247Y-190211961D02*
X203381247Y-188211961D01*
X203143152Y-190116723D02*
X202940771Y-190211961D01*
X202559819Y-190211961D01*
X202381247Y-190116723D01*
X202297914Y-190021485D01*
X202226485Y-189831009D01*
X202297914Y-189259580D01*
X202416961Y-189069104D01*
X202524104Y-188973866D01*
X202726485Y-188878628D01*
X203107438Y-188878628D01*
X203286009Y-188973866D01*
X204083628Y-190211961D02*
X204250295Y-188878628D01*
X204333628Y-188211961D02*
X204226485Y-188307200D01*
X204309819Y-188402438D01*
X204416961Y-188307200D01*
X204333628Y-188211961D01*
X204309819Y-188402438D01*
X205321723Y-190211961D02*
X205143152Y-190116723D01*
X205059819Y-190021485D01*
X204988390Y-189831009D01*
X205059819Y-189259580D01*
X205178866Y-189069104D01*
X205286009Y-188973866D01*
X205488390Y-188878628D01*
X205774104Y-188878628D01*
X205952676Y-188973866D01*
X206036009Y-189069104D01*
X206107438Y-189259580D01*
X206036009Y-189831009D01*
X205916961Y-190021485D01*
X205809819Y-190116723D01*
X205607438Y-190211961D01*
X205321723Y-190211961D01*
X208345533Y-189640533D02*
X209297914Y-189640533D01*
X208083628Y-190211961D02*
X209000295Y-188211961D01*
X209416961Y-190211961D01*
X210083628Y-190211961D02*
X210250295Y-188878628D01*
X210226485Y-189069104D02*
X210333628Y-188973866D01*
X210536009Y-188878628D01*
X210821723Y-188878628D01*
X211000295Y-188973866D01*
X211071723Y-189164342D01*
X210940771Y-190211961D01*
X211071723Y-189164342D02*
X211190771Y-188973866D01*
X211393152Y-188878628D01*
X211678866Y-188878628D01*
X211857438Y-188973866D01*
X211928866Y-189164342D01*
X211797914Y-190211961D01*
X212916961Y-188878628D02*
X212666961Y-190878628D01*
X212905057Y-188973866D02*
X213107438Y-188878628D01*
X213488390Y-188878628D01*
X213666961Y-188973866D01*
X213750295Y-189069104D01*
X213821723Y-189259580D01*
X213750295Y-189831009D01*
X213631247Y-190021485D01*
X213524104Y-190116723D01*
X213321723Y-190211961D01*
X212940771Y-190211961D01*
X212762200Y-190116723D01*
X214845533Y-190211961D02*
X214666961Y-190116723D01*
X214595533Y-189926247D01*
X214809819Y-188211961D01*
X215607438Y-190211961D02*
X215774104Y-188878628D01*
X215857438Y-188211961D02*
X215750295Y-188307200D01*
X215833628Y-188402438D01*
X215940771Y-188307200D01*
X215857438Y-188211961D01*
X215833628Y-188402438D01*
X216440771Y-188878628D02*
X217202676Y-188878628D01*
X216559819Y-190211961D02*
X216774104Y-188497676D01*
X216893152Y-188307200D01*
X217095533Y-188211961D01*
X217286009Y-188211961D01*
X217702676Y-190211961D02*
X217869342Y-188878628D01*
X217952676Y-188211961D02*
X217845533Y-188307200D01*
X217928866Y-188402438D01*
X218036009Y-188307200D01*
X217952676Y-188211961D01*
X217928866Y-188402438D01*
X219428866Y-190116723D02*
X219226485Y-190211961D01*
X218845533Y-190211961D01*
X218666961Y-190116723D01*
X218595533Y-189926247D01*
X218690771Y-189164342D01*
X218809819Y-188973866D01*
X219012200Y-188878628D01*
X219393152Y-188878628D01*
X219571723Y-188973866D01*
X219643152Y-189164342D01*
X219619342Y-189354819D01*
X218643152Y-189545295D01*
X220369342Y-190211961D02*
X220536009Y-188878628D01*
X220488390Y-189259580D02*
X220607438Y-189069104D01*
X220714580Y-188973866D01*
X220916961Y-188878628D01*
X221107438Y-188878628D01*
X223131247Y-190211961D02*
X223381247Y-188211961D01*
X224143152Y-188211961D01*
X224321723Y-188307200D01*
X224405057Y-188402438D01*
X224476485Y-188592914D01*
X224440771Y-188878628D01*
X224321723Y-189069104D01*
X224214580Y-189164342D01*
X224012200Y-189259580D01*
X223250295Y-189259580D01*
X225131247Y-190211961D02*
X225297914Y-188878628D01*
X225250295Y-189259580D02*
X225369342Y-189069104D01*
X225476485Y-188973866D01*
X225678866Y-188878628D01*
X225869342Y-188878628D01*
X226655057Y-190211961D02*
X226476485Y-190116723D01*
X226393152Y-190021485D01*
X226321723Y-189831009D01*
X226393152Y-189259580D01*
X226512200Y-189069104D01*
X226619342Y-188973866D01*
X226821723Y-188878628D01*
X227107438Y-188878628D01*
X227286009Y-188973866D01*
X227369342Y-189069104D01*
X227440771Y-189259580D01*
X227369342Y-189831009D01*
X227250295Y-190021485D01*
X227143152Y-190116723D01*
X226940771Y-190211961D01*
X226655057Y-190211961D01*
X228345533Y-188878628D02*
X228131247Y-190592914D01*
X228012200Y-190783390D01*
X227809819Y-190878628D01*
X227714580Y-190878628D01*
X228428866Y-188211961D02*
X228321723Y-188307200D01*
X228405057Y-188402438D01*
X228512200Y-188307200D01*
X228428866Y-188211961D01*
X228405057Y-188402438D01*
X229905057Y-190116723D02*
X229702676Y-190211961D01*
X229321723Y-190211961D01*
X229143152Y-190116723D01*
X229071723Y-189926247D01*
X229166961Y-189164342D01*
X229286009Y-188973866D01*
X229488390Y-188878628D01*
X229869342Y-188878628D01*
X230047914Y-188973866D01*
X230119342Y-189164342D01*
X230095533Y-189354819D01*
X229119342Y-189545295D01*
X231714580Y-190116723D02*
X231512200Y-190211961D01*
X231131247Y-190211961D01*
X230952676Y-190116723D01*
X230869342Y-190021485D01*
X230797914Y-189831009D01*
X230869342Y-189259580D01*
X230988390Y-189069104D01*
X231095533Y-188973866D01*
X231297914Y-188878628D01*
X231678866Y-188878628D01*
X231857438Y-188973866D01*
X232440771Y-188878628D02*
X233202676Y-188878628D01*
X232809819Y-188211961D02*
X232595533Y-189926247D01*
X232666961Y-190116723D01*
X232845533Y-190211961D01*
X233036009Y-190211961D01*
D10*
D11*
X178934342Y-185600057D02*
X178434342Y-185600057D01*
X178434342Y-186385771D02*
X178434342Y-184885771D01*
X179148628Y-184885771D01*
X179720057Y-186385771D02*
X179720057Y-185385771D01*
X179720057Y-184885771D02*
X179648628Y-184957200D01*
X179720057Y-185028628D01*
X179791485Y-184957200D01*
X179720057Y-184885771D01*
X179720057Y-185028628D01*
X180648628Y-186385771D02*
X180505771Y-186314342D01*
X180434342Y-186171485D01*
X180434342Y-184885771D01*
X181791485Y-186314342D02*
X181648628Y-186385771D01*
X181362914Y-186385771D01*
X181220057Y-186314342D01*
X181148628Y-186171485D01*
X181148628Y-185600057D01*
X181220057Y-185457200D01*
X181362914Y-185385771D01*
X181648628Y-185385771D01*
X181791485Y-185457200D01*
X181862914Y-185600057D01*
X181862914Y-185742914D01*
X181148628Y-185885771D01*
X182505771Y-186242914D02*
X182577200Y-186314342D01*
X182505771Y-186385771D01*
X182434342Y-186314342D01*
X182505771Y-186242914D01*
X182505771Y-186385771D01*
X182505771Y-185457200D02*
X182577200Y-185528628D01*
X182505771Y-185600057D01*
X182434342Y-185528628D01*
X182505771Y-185457200D01*
X182505771Y-185600057D01*
X184291485Y-185957200D02*
X185005771Y-185957200D01*
X184148628Y-186385771D02*
X184648628Y-184885771D01*
X185148628Y-186385771D01*
X185648628Y-186385771D02*
X185648628Y-185385771D01*
X185648628Y-185528628D02*
X185720057Y-185457200D01*
X185862914Y-185385771D01*
X186077200Y-185385771D01*
X186220057Y-185457200D01*
X186291485Y-185600057D01*
X186291485Y-186385771D01*
X186291485Y-185600057D02*
X186362914Y-185457200D01*
X186505771Y-185385771D01*
X186720057Y-185385771D01*
X186862914Y-185457200D01*
X186934342Y-185600057D01*
X186934342Y-186385771D01*
X187648628Y-185385771D02*
X187648628Y-186885771D01*
X187648628Y-185457200D02*
X187791485Y-185385771D01*
X188077200Y-185385771D01*
X188220057Y-185457200D01*
X188291485Y-185528628D01*
X188362914Y-185671485D01*
X188362914Y-186100057D01*
X188291485Y-186242914D01*
X188220057Y-186314342D01*
X188077200Y-186385771D01*
X187791485Y-186385771D01*
X187648628Y-186314342D01*
X189220057Y-186385771D02*
X189077200Y-186314342D01*
X189005771Y-186171485D01*
X189005771Y-184885771D01*
X189791485Y-186385771D02*
X189791485Y-185385771D01*
X189791485Y-184885771D02*
X189720057Y-184957200D01*
X189791485Y-185028628D01*
X189862914Y-184957200D01*
X189791485Y-184885771D01*
X189791485Y-185028628D01*
X190291485Y-185385771D02*
X190862914Y-185385771D01*
X190505771Y-186385771D02*
X190505771Y-185100057D01*
X190577200Y-184957200D01*
X190720057Y-184885771D01*
X190862914Y-184885771D01*
X191362914Y-186385771D02*
X191362914Y-185385771D01*
X191362914Y-184885771D02*
X191291485Y-184957200D01*
X191362914Y-185028628D01*
X191434342Y-184957200D01*
X191362914Y-184885771D01*
X191362914Y-185028628D01*
X192648628Y-186314342D02*
X192505771Y-186385771D01*
X192220057Y-186385771D01*
X192077200Y-186314342D01*
X192005771Y-186171485D01*
X192005771Y-185600057D01*
X192077200Y-185457200D01*
X192220057Y-185385771D01*
X192505771Y-185385771D01*
X192648628Y-185457200D01*
X192720057Y-185600057D01*
X192720057Y-185742914D01*
X192005771Y-185885771D01*
X193362914Y-186385771D02*
X193362914Y-185385771D01*
X193362914Y-185671485D02*
X193434342Y-185528628D01*
X193505771Y-185457200D01*
X193648628Y-185385771D01*
X193791485Y-185385771D01*
X194291485Y-186242914D02*
X194362914Y-186314342D01*
X194291485Y-186385771D01*
X194220057Y-186314342D01*
X194291485Y-186242914D01*
X194291485Y-186385771D01*
X195005771Y-186385771D02*
X195005771Y-184885771D01*
X195148628Y-185814342D02*
X195577200Y-186385771D01*
X195577200Y-185385771D02*
X195005771Y-185957200D01*
X196220057Y-186385771D02*
X196220057Y-185385771D01*
X196220057Y-184885771D02*
X196148628Y-184957200D01*
X196220057Y-185028628D01*
X196291485Y-184957200D01*
X196220057Y-184885771D01*
X196220057Y-185028628D01*
X197577200Y-186314342D02*
X197434342Y-186385771D01*
X197148628Y-186385771D01*
X197005771Y-186314342D01*
X196934342Y-186242914D01*
X196862914Y-186100057D01*
X196862914Y-185671485D01*
X196934342Y-185528628D01*
X197005771Y-185457200D01*
X197148628Y-185385771D01*
X197434342Y-185385771D01*
X197577200Y-185457200D01*
X198862914Y-186385771D02*
X198862914Y-185600057D01*
X198791485Y-185457200D01*
X198648628Y-185385771D01*
X198362914Y-185385771D01*
X198220057Y-185457200D01*
X198862914Y-186314342D02*
X198720057Y-186385771D01*
X198362914Y-186385771D01*
X198220057Y-186314342D01*
X198148628Y-186171485D01*
X198148628Y-186028628D01*
X198220057Y-185885771D01*
X198362914Y-185814342D01*
X198720057Y-185814342D01*
X198862914Y-185742914D01*
X200220057Y-186385771D02*
X200220057Y-184885771D01*
X200220057Y-186314342D02*
X200077200Y-186385771D01*
X199791485Y-186385771D01*
X199648628Y-186314342D01*
X199577200Y-186242914D01*
X199505771Y-186100057D01*
X199505771Y-185671485D01*
X199577200Y-185528628D01*
X199648628Y-185457200D01*
X199791485Y-185385771D01*
X200077200Y-185385771D01*
X200220057Y-185457200D01*
X200577200Y-186528628D02*
X201720057Y-186528628D01*
X202077200Y-185385771D02*
X202077200Y-186885771D01*
X202077200Y-185457200D02*
X202220057Y-185385771D01*
X202505771Y-185385771D01*
X202648628Y-185457200D01*
X202720057Y-185528628D01*
X202791485Y-185671485D01*
X202791485Y-186100057D01*
X202720057Y-186242914D01*
X202648628Y-186314342D01*
X202505771Y-186385771D01*
X202220057Y-186385771D01*
X202077200Y-186314342D01*
X204077200Y-186314342D02*
X203934342Y-186385771D01*
X203648628Y-186385771D01*
X203505771Y-186314342D01*
X203434342Y-186242914D01*
X203362914Y-186100057D01*
X203362914Y-185671485D01*
X203434342Y-185528628D01*
X203505771Y-185457200D01*
X203648628Y-185385771D01*
X203934342Y-185385771D01*
X204077200Y-185457200D01*
X204720057Y-186385771D02*
X204720057Y-184885771D01*
X204720057Y-185457200D02*
X204862914Y-185385771D01*
X205148628Y-185385771D01*
X205291485Y-185457200D01*
X205362914Y-185528628D01*
X205434342Y-185671485D01*
X205434342Y-186100057D01*
X205362914Y-186242914D01*
X205291485Y-186314342D01*
X205148628Y-186385771D01*
X204862914Y-186385771D01*
X204720057Y-186314342D01*
D10*
D11*
X177002200Y-181507200D02*
X285002200Y-181507200D01*
D10*
D11*
X178362914Y-183614342D02*
X178577200Y-183685771D01*
X178934342Y-183685771D01*
X179077200Y-183614342D01*
X179148628Y-183542914D01*
X179220057Y-183400057D01*
X179220057Y-183257200D01*
X179148628Y-183114342D01*
X179077200Y-183042914D01*
X178934342Y-182971485D01*
X178648628Y-182900057D01*
X178505771Y-182828628D01*
X178434342Y-182757200D01*
X178362914Y-182614342D01*
X178362914Y-182471485D01*
X178434342Y-182328628D01*
X178505771Y-182257200D01*
X178648628Y-182185771D01*
X179005771Y-182185771D01*
X179220057Y-182257200D01*
X179862914Y-183685771D02*
X179862914Y-182185771D01*
X180505771Y-183685771D02*
X180505771Y-182900057D01*
X180434342Y-182757200D01*
X180291485Y-182685771D01*
X180077200Y-182685771D01*
X179934342Y-182757200D01*
X179862914Y-182828628D01*
X181791485Y-183614342D02*
X181648628Y-183685771D01*
X181362914Y-183685771D01*
X181220057Y-183614342D01*
X181148628Y-183471485D01*
X181148628Y-182900057D01*
X181220057Y-182757200D01*
X181362914Y-182685771D01*
X181648628Y-182685771D01*
X181791485Y-182757200D01*
X181862914Y-182900057D01*
X181862914Y-183042914D01*
X181148628Y-183185771D01*
X183077200Y-183614342D02*
X182934342Y-183685771D01*
X182648628Y-183685771D01*
X182505771Y-183614342D01*
X182434342Y-183471485D01*
X182434342Y-182900057D01*
X182505771Y-182757200D01*
X182648628Y-182685771D01*
X182934342Y-182685771D01*
X183077200Y-182757200D01*
X183148628Y-182900057D01*
X183148628Y-183042914D01*
X182434342Y-183185771D01*
X183577200Y-182685771D02*
X184148628Y-182685771D01*
X183791485Y-182185771D02*
X183791485Y-183471485D01*
X183862914Y-183614342D01*
X184005771Y-183685771D01*
X184148628Y-183685771D01*
X184648628Y-183542914D02*
X184720057Y-183614342D01*
X184648628Y-183685771D01*
X184577200Y-183614342D01*
X184648628Y-183542914D01*
X184648628Y-183685771D01*
X184648628Y-182757200D02*
X184720057Y-182828628D01*
X184648628Y-182900057D01*
X184577200Y-182828628D01*
X184648628Y-182757200D01*
X184648628Y-182900057D01*
D10*
D12*
X179411485Y-180542914D02*
X179340057Y-180614342D01*
X179125771Y-180685771D01*
X178982914Y-180685771D01*
X178768628Y-180614342D01*
X178625771Y-180471485D01*
X178554342Y-180328628D01*
X178482914Y-180042914D01*
X178482914Y-179828628D01*
X178554342Y-179542914D01*
X178625771Y-179400057D01*
X178768628Y-179257200D01*
X178982914Y-179185771D01*
X179125771Y-179185771D01*
X179340057Y-179257200D01*
X179411485Y-179328628D01*
X180697200Y-180685771D02*
X180697200Y-179900057D01*
X180625771Y-179757200D01*
X180482914Y-179685771D01*
X180197200Y-179685771D01*
X180054342Y-179757200D01*
X180697200Y-180614342D02*
X180554342Y-180685771D01*
X180197200Y-180685771D01*
X180054342Y-180614342D01*
X179982914Y-180471485D01*
X179982914Y-180328628D01*
X180054342Y-180185771D01*
X180197200Y-180114342D01*
X180554342Y-180114342D01*
X180697200Y-180042914D01*
X181625771Y-180685771D02*
X181482914Y-180614342D01*
X181411485Y-180471485D01*
X181411485Y-179185771D01*
X182197200Y-180685771D02*
X182197200Y-179685771D01*
X182197200Y-179185771D02*
X182125771Y-179257200D01*
X182197200Y-179328628D01*
X182268628Y-179257200D01*
X182197200Y-179185771D01*
X182197200Y-179328628D01*
X182697200Y-179685771D02*
X183268628Y-179685771D01*
X182911485Y-180685771D02*
X182911485Y-179400057D01*
X182982914Y-179257200D01*
X183125771Y-179185771D01*
X183268628Y-179185771D01*
X183982914Y-180685771D02*
X183840057Y-180614342D01*
X183768628Y-180542914D01*
X183697200Y-180400057D01*
X183697200Y-179971485D01*
X183768628Y-179828628D01*
X183840057Y-179757200D01*
X183982914Y-179685771D01*
X184197200Y-179685771D01*
X184340057Y-179757200D01*
X184411485Y-179828628D01*
X184482914Y-179971485D01*
X184482914Y-180400057D01*
X184411485Y-180542914D01*
X184340057Y-180614342D01*
X184197200Y-180685771D01*
X183982914Y-180685771D01*
X185125771Y-180685771D02*
X185125771Y-179685771D01*
X185125771Y-179971485D02*
X185197200Y-179828628D01*
X185268628Y-179757200D01*
X185411485Y-179685771D01*
X185554342Y-179685771D01*
X186054342Y-179685771D02*
X186054342Y-180685771D01*
X186054342Y-179828628D02*
X186125771Y-179757200D01*
X186268628Y-179685771D01*
X186482914Y-179685771D01*
X186625771Y-179757200D01*
X186697200Y-179900057D01*
X186697200Y-180685771D01*
X187411485Y-180685771D02*
X187411485Y-179685771D01*
X187411485Y-179185771D02*
X187340057Y-179257200D01*
X187411485Y-179328628D01*
X187482914Y-179257200D01*
X187411485Y-179185771D01*
X187411485Y-179328628D01*
X188768628Y-180685771D02*
X188768628Y-179900057D01*
X188697200Y-179757200D01*
X188554342Y-179685771D01*
X188268628Y-179685771D01*
X188125771Y-179757200D01*
X188768628Y-180614342D02*
X188625771Y-180685771D01*
X188268628Y-180685771D01*
X188125771Y-180614342D01*
X188054342Y-180471485D01*
X188054342Y-180328628D01*
X188125771Y-180185771D01*
X188268628Y-180114342D01*
X188625771Y-180114342D01*
X188768628Y-180042914D01*
X190554342Y-180614342D02*
X190768628Y-180685771D01*
X191125771Y-180685771D01*
X191268628Y-180614342D01*
X191340057Y-180542914D01*
X191411485Y-180400057D01*
X191411485Y-180257200D01*
X191340057Y-180114342D01*
X191268628Y-180042914D01*
X191125771Y-179971485D01*
X190840057Y-179900057D01*
X190697200Y-179828628D01*
X190625771Y-179757200D01*
X190554342Y-179614342D01*
X190554342Y-179471485D01*
X190625771Y-179328628D01*
X190697200Y-179257200D01*
X190840057Y-179185771D01*
X191197200Y-179185771D01*
X191411485Y-179257200D01*
X191840057Y-179685771D02*
X192411485Y-179685771D01*
X192054342Y-179185771D02*
X192054342Y-180471485D01*
X192125771Y-180614342D01*
X192268628Y-180685771D01*
X192411485Y-180685771D01*
X193554342Y-180685771D02*
X193554342Y-179900057D01*
X193482914Y-179757200D01*
X193340057Y-179685771D01*
X193054342Y-179685771D01*
X192911485Y-179757200D01*
X193554342Y-180614342D02*
X193411485Y-180685771D01*
X193054342Y-180685771D01*
X192911485Y-180614342D01*
X192840057Y-180471485D01*
X192840057Y-180328628D01*
X192911485Y-180185771D01*
X193054342Y-180114342D01*
X193411485Y-180114342D01*
X193554342Y-180042914D01*
X194054342Y-179685771D02*
X194625771Y-179685771D01*
X194268628Y-179185771D02*
X194268628Y-180471485D01*
X194340057Y-180614342D01*
X194482914Y-180685771D01*
X194625771Y-180685771D01*
X195697200Y-180614342D02*
X195554342Y-180685771D01*
X195268628Y-180685771D01*
X195125771Y-180614342D01*
X195054342Y-180471485D01*
X195054342Y-179900057D01*
X195125771Y-179757200D01*
X195268628Y-179685771D01*
X195554342Y-179685771D01*
X195697200Y-179757200D01*
X195768628Y-179900057D01*
X195768628Y-180042914D01*
X195054342Y-180185771D01*
X197554342Y-179185771D02*
X197554342Y-180400057D01*
X197625771Y-180542914D01*
X197697200Y-180614342D01*
X197840057Y-180685771D01*
X198125771Y-180685771D01*
X198268628Y-180614342D01*
X198340057Y-180542914D01*
X198411485Y-180400057D01*
X198411485Y-179185771D01*
X199125771Y-179685771D02*
X199125771Y-180685771D01*
X199125771Y-179828628D02*
X199197200Y-179757200D01*
X199340057Y-179685771D01*
X199554342Y-179685771D01*
X199697200Y-179757200D01*
X199768628Y-179900057D01*
X199768628Y-180685771D01*
X200482914Y-180685771D02*
X200482914Y-179685771D01*
X200482914Y-179185771D02*
X200411485Y-179257200D01*
X200482914Y-179328628D01*
X200554342Y-179257200D01*
X200482914Y-179185771D01*
X200482914Y-179328628D01*
X201054342Y-179685771D02*
X201411485Y-180685771D01*
X201768628Y-179685771D01*
X202911485Y-180614342D02*
X202768628Y-180685771D01*
X202482914Y-180685771D01*
X202340057Y-180614342D01*
X202268628Y-180471485D01*
X202268628Y-179900057D01*
X202340057Y-179757200D01*
X202482914Y-179685771D01*
X202768628Y-179685771D01*
X202911485Y-179757200D01*
X202982914Y-179900057D01*
X202982914Y-180042914D01*
X202268628Y-180185771D01*
X203625771Y-180685771D02*
X203625771Y-179685771D01*
X203625771Y-179971485D02*
X203697200Y-179828628D01*
X203768628Y-179757200D01*
X203911485Y-179685771D01*
X204054342Y-179685771D01*
X204482914Y-180614342D02*
X204625771Y-180685771D01*
X204911485Y-180685771D01*
X205054342Y-180614342D01*
X205125771Y-180471485D01*
X205125771Y-180400057D01*
X205054342Y-180257200D01*
X204911485Y-180185771D01*
X204697200Y-180185771D01*
X204554342Y-180114342D01*
X204482914Y-179971485D01*
X204482914Y-179900057D01*
X204554342Y-179757200D01*
X204697200Y-179685771D01*
X204911485Y-179685771D01*
X205054342Y-179757200D01*
X205768628Y-180685771D02*
X205768628Y-179685771D01*
X205768628Y-179185771D02*
X205697200Y-179257200D01*
X205768628Y-179328628D01*
X205840057Y-179257200D01*
X205768628Y-179185771D01*
X205768628Y-179328628D01*
X206268628Y-179685771D02*
X206840057Y-179685771D01*
X206482914Y-179185771D02*
X206482914Y-180471485D01*
X206554342Y-180614342D01*
X206697200Y-180685771D01*
X206840057Y-180685771D01*
X207197200Y-179685771D02*
X207554342Y-180685771D01*
X207911485Y-179685771D02*
X207554342Y-180685771D01*
X207411485Y-181042914D01*
X207340057Y-181114342D01*
X207197200Y-181185771D01*
X209625771Y-180685771D02*
X209625771Y-179185771D01*
X210482914Y-180685771D01*
X210482914Y-179185771D01*
X211411485Y-180685771D02*
X211268628Y-180614342D01*
X211197200Y-180542914D01*
X211125771Y-180400057D01*
X211125771Y-179971485D01*
X211197200Y-179828628D01*
X211268628Y-179757200D01*
X211411485Y-179685771D01*
X211625771Y-179685771D01*
X211768628Y-179757200D01*
X211840057Y-179828628D01*
X211911485Y-179971485D01*
X211911485Y-180400057D01*
X211840057Y-180542914D01*
X211768628Y-180614342D01*
X211625771Y-180685771D01*
X211411485Y-180685771D01*
X212554342Y-180685771D02*
X212554342Y-179685771D01*
X212554342Y-179971485D02*
X212625771Y-179828628D01*
X212697200Y-179757200D01*
X212840057Y-179685771D01*
X212982914Y-179685771D01*
X213268628Y-179685771D02*
X213840057Y-179685771D01*
X213482914Y-179185771D02*
X213482914Y-180471485D01*
X213554342Y-180614342D01*
X213697200Y-180685771D01*
X213840057Y-180685771D01*
X214340057Y-180685771D02*
X214340057Y-179185771D01*
X214982914Y-180685771D02*
X214982914Y-179900057D01*
X214911485Y-179757200D01*
X214768628Y-179685771D01*
X214554342Y-179685771D01*
X214411485Y-179757200D01*
X214340057Y-179828628D01*
X215697200Y-180685771D02*
X215697200Y-179685771D01*
X215697200Y-179971485D02*
X215768628Y-179828628D01*
X215840057Y-179757200D01*
X215982914Y-179685771D01*
X216125771Y-179685771D01*
X216625771Y-180685771D02*
X216625771Y-179685771D01*
X216625771Y-179185771D02*
X216554342Y-179257200D01*
X216625771Y-179328628D01*
X216697200Y-179257200D01*
X216625771Y-179185771D01*
X216625771Y-179328628D01*
X217982914Y-180685771D02*
X217982914Y-179185771D01*
X217982914Y-180614342D02*
X217840057Y-180685771D01*
X217554342Y-180685771D01*
X217411485Y-180614342D01*
X217340057Y-180542914D01*
X217268628Y-180400057D01*
X217268628Y-179971485D01*
X217340057Y-179828628D01*
X217411485Y-179757200D01*
X217554342Y-179685771D01*
X217840057Y-179685771D01*
X217982914Y-179757200D01*
X219340057Y-179685771D02*
X219340057Y-180900057D01*
X219268628Y-181042914D01*
X219197200Y-181114342D01*
X219054342Y-181185771D01*
X218840057Y-181185771D01*
X218697200Y-181114342D01*
X219340057Y-180614342D02*
X219197200Y-180685771D01*
X218911485Y-180685771D01*
X218768628Y-180614342D01*
X218697200Y-180542914D01*
X218625771Y-180400057D01*
X218625771Y-179971485D01*
X218697200Y-179828628D01*
X218768628Y-179757200D01*
X218911485Y-179685771D01*
X219197200Y-179685771D01*
X219340057Y-179757200D01*
X220625771Y-180614342D02*
X220482914Y-180685771D01*
X220197200Y-180685771D01*
X220054342Y-180614342D01*
X219982914Y-180471485D01*
X219982914Y-179900057D01*
X220054342Y-179757200D01*
X220197200Y-179685771D01*
X220482914Y-179685771D01*
X220625771Y-179757200D01*
X220697200Y-179900057D01*
X220697200Y-180042914D01*
X219982914Y-180185771D01*
D10*
D11*
X178362914Y-177257200D02*
X179077200Y-177257200D01*
X178220057Y-177685771D02*
X178720057Y-176185771D01*
X179220057Y-177685771D01*
X179720057Y-177685771D02*
X179720057Y-176185771D01*
X179720057Y-176757200D02*
X179862914Y-176685771D01*
X180148628Y-176685771D01*
X180291485Y-176757200D01*
X180362914Y-176828628D01*
X180434342Y-176971485D01*
X180434342Y-177400057D01*
X180362914Y-177542914D01*
X180291485Y-177614342D01*
X180148628Y-177685771D01*
X179862914Y-177685771D01*
X179720057Y-177614342D01*
X181720057Y-177685771D02*
X181720057Y-176185771D01*
X181720057Y-177614342D02*
X181577200Y-177685771D01*
X181291485Y-177685771D01*
X181148628Y-177614342D01*
X181077200Y-177542914D01*
X181005771Y-177400057D01*
X181005771Y-176971485D01*
X181077200Y-176828628D01*
X181148628Y-176757200D01*
X181291485Y-176685771D01*
X181577200Y-176685771D01*
X181720057Y-176757200D01*
X183077200Y-176685771D02*
X183077200Y-177685771D01*
X182434342Y-176685771D02*
X182434342Y-177471485D01*
X182505771Y-177614342D01*
X182648628Y-177685771D01*
X182862914Y-177685771D01*
X183005771Y-177614342D01*
X183077200Y-177542914D01*
X184005771Y-177685771D02*
X183862914Y-177614342D01*
X183791485Y-177471485D01*
X183791485Y-176185771D01*
X184791485Y-177685771D02*
X184648628Y-177614342D01*
X184577200Y-177471485D01*
X184577200Y-176185771D01*
X186005771Y-177685771D02*
X186005771Y-176900057D01*
X185934342Y-176757200D01*
X185791485Y-176685771D01*
X185505771Y-176685771D01*
X185362914Y-176757200D01*
X186005771Y-177614342D02*
X185862914Y-177685771D01*
X185505771Y-177685771D01*
X185362914Y-177614342D01*
X185291485Y-177471485D01*
X185291485Y-177328628D01*
X185362914Y-177185771D01*
X185505771Y-177114342D01*
X185862914Y-177114342D01*
X186005771Y-177042914D01*
X186720057Y-177685771D02*
X186720057Y-176185771D01*
X187362914Y-177685771D02*
X187362914Y-176900057D01*
X187291485Y-176757200D01*
X187148628Y-176685771D01*
X186934342Y-176685771D01*
X186791485Y-176757200D01*
X186720057Y-176828628D01*
X189220057Y-177685771D02*
X189220057Y-176185771D01*
X189220057Y-176900057D02*
X190077200Y-176900057D01*
X190077200Y-177685771D02*
X190077200Y-176185771D01*
X191362914Y-177614342D02*
X191220057Y-177685771D01*
X190934342Y-177685771D01*
X190791485Y-177614342D01*
X190720057Y-177471485D01*
X190720057Y-176900057D01*
X190791485Y-176757200D01*
X190934342Y-176685771D01*
X191220057Y-176685771D01*
X191362914Y-176757200D01*
X191434342Y-176900057D01*
X191434342Y-177042914D01*
X190720057Y-177185771D01*
X192077200Y-176685771D02*
X192077200Y-177685771D01*
X192077200Y-176828628D02*
X192148628Y-176757200D01*
X192291485Y-176685771D01*
X192505771Y-176685771D01*
X192648628Y-176757200D01*
X192720057Y-176900057D01*
X192720057Y-177685771D01*
X194077200Y-177685771D02*
X194077200Y-176185771D01*
X194077200Y-177614342D02*
X193934342Y-177685771D01*
X193648628Y-177685771D01*
X193505771Y-177614342D01*
X193434342Y-177542914D01*
X193362914Y-177400057D01*
X193362914Y-176971485D01*
X193434342Y-176828628D01*
X193505771Y-176757200D01*
X193648628Y-176685771D01*
X193934342Y-176685771D01*
X194077200Y-176757200D01*
X194648628Y-176685771D02*
X195005771Y-177685771D01*
X195362914Y-176685771D02*
X195005771Y-177685771D01*
X194862914Y-178042914D01*
X194791485Y-178114342D01*
X194648628Y-178185771D01*
D10*
D11*
D10*
D11*
D10*
D11*
D10*
D11*
X197002200Y-191507200D02*
X197002200Y-194507200D01*
D10*
D11*
X261002200Y-191507200D02*
X261002200Y-198007200D01*
D14*
%TO.C,J3*%
X143600000Y-78400000D03*
D15*
X142000000Y-80000000D03*
X139500000Y-80000000D03*
%TD*%
D16*
%TO.C,R2*%
X177000000Y-86420000D03*
D17*
X177000000Y-96580000D03*
%TD*%
D18*
%TO.C,FB1*%
X173425000Y-101500000D03*
D19*
X176575000Y-101500000D03*
%TD*%
D20*
%TO.C,U1*%
X196500000Y-89960000D03*
D21*
X196500000Y-92500000D03*
X196500000Y-95040000D03*
%TD*%
D16*
%TO.C,R3*%
X185000000Y-96580000D03*
D17*
X185000000Y-86420000D03*
%TD*%
D22*
%TO.C,C6*%
X135544888Y-108500000D03*
D16*
X135544888Y-110500000D03*
%TD*%
D23*
%TO.C,TP1*%
X167500000Y-108000000D03*
%TD*%
D24*
%TO.C,H4*%
X199175000Y-67900000D03*
%TD*%
%TO.C,H2*%
X134250000Y-119000000D03*
%TD*%
D23*
%TO.C,TP3*%
X132900000Y-81400000D03*
%TD*%
%TO.C,TP2*%
X132900000Y-93900000D03*
%TD*%
D25*
%TO.C,D1*%
X181600000Y-119300000D03*
D26*
X184140000Y-119300000D03*
%TD*%
D22*
%TO.C,C4*%
X171000000Y-91817621D03*
D16*
X171000000Y-94317621D03*
%TD*%
D27*
%TO.C,D3*%
X189000000Y-96580000D03*
D28*
X189000000Y-86420000D03*
%TD*%
D16*
%TO.C,J1*%
X191375000Y-120187900D03*
D29*
X191375000Y-111187900D03*
D30*
X191375000Y-117187900D03*
D31*
X195875000Y-118187900D03*
X186875000Y-118187900D03*
%TD*%
D24*
%TO.C,H1*%
X201000000Y-119000000D03*
%TD*%
D16*
%TO.C,C5*%
X142250000Y-88500000D03*
X139750000Y-88500000D03*
%TD*%
D32*
%TO.C,SW1*%
X177543500Y-121719200D03*
X173149300Y-121719200D03*
D33*
X172400000Y-107800000D03*
X172400000Y-110289200D03*
X178292800Y-107800000D03*
X178292800Y-110289200D03*
%TD*%
D16*
%TO.C,C1*%
X188000000Y-100500000D03*
X185500000Y-100500000D03*
%TD*%
D27*
%TO.C,D4*%
X181000000Y-96580000D03*
D28*
X181000000Y-86420000D03*
%TD*%
D34*
%TO.C,D2*%
X187650000Y-105500000D03*
D35*
X200350000Y-105500000D03*
%TD*%
D22*
%TO.C,U2*%
X142875000Y-101800000D03*
D17*
X145415000Y-101800000D03*
X147955000Y-101800000D03*
X150495000Y-101800000D03*
X153035000Y-101800000D03*
X155575000Y-101800000D03*
X158115000Y-101800000D03*
X158115000Y-94180000D03*
X155575000Y-94180000D03*
X153035000Y-94180000D03*
X150495000Y-94180000D03*
X147955000Y-94180000D03*
X145415000Y-94180000D03*
X142875000Y-94180000D03*
%TD*%
D16*
%TO.C,C3*%
X172500000Y-87750000D03*
X172500000Y-85250000D03*
%TD*%
D24*
%TO.C,H3*%
X136075000Y-67900000D03*
%TD*%
D16*
%TO.C,J2*%
X144400000Y-115400000D03*
X149400000Y-120400000D03*
X139400000Y-120400000D03*
D36*
X144400000Y-120400000D03*
D37*
X149400000Y-115400000D03*
X139400000Y-115400000D03*
%TD*%
D16*
%TO.C,R1*%
X183000000Y-105420000D03*
D17*
X183000000Y-115580000D03*
%TD*%
D38*
%TO.C,C8*%
X151000000Y-86867677D03*
D23*
X151000000Y-81867677D03*
%TD*%
D26*
%TO.C,RV1*%
X158200000Y-118800000D03*
X160700000Y-118800000D03*
X163200000Y-118800000D03*
D39*
X155700000Y-115500000D03*
X165700000Y-115500000D03*
%TD*%
D16*
%TO.C,C7*%
X165000000Y-90250000D03*
X165000000Y-92750000D03*
%TD*%
D23*
%TO.C,TP4*%
X133000000Y-102000000D03*
%TD*%
D16*
%TO.C,R4*%
X158420000Y-87000000D03*
D17*
X168580000Y-87000000D03*
%TD*%
D22*
%TO.C,C2*%
X187000000Y-82455112D03*
D16*
X187000000Y-80455112D03*
%TD*%
M02*
