%TF.GenerationSoftware,KiCad,Pcbnew,(6.0.5)*%
%TF.CreationDate,2022-06-17T11:53:50-07:00*%
%TF.ProjectId,Amplifier,416d706c-6966-4696-9572-2e6b69636164,00*%
%TF.SameCoordinates,Original*%
%TF.FileFunction,Legend,Top*%
%TF.FilePolarity,Positive*%
%FSLAX46Y46*%
G04 Gerber Fmt 4.6, Leading zero omitted, Abs format (unit mm)*
G04 Created by KiCad (PCBNEW (6.0.5)) date 2022-06-17 11:53:50*
%MOMM*%
%LPD*%
G01*
G04 APERTURE LIST*
%ADD10C,0.100000*%
%ADD11C,0.150000*%
%ADD12C,0.300000*%
%ADD13C,0.400000*%
%ADD14C,0.120000*%
%ADD15C,0.127000*%
%ADD16C,0.200000*%
G04 APERTURE END LIST*
D10*
D11*
X177002200Y-166007200D02*
X177002200Y-198007200D01*
X285002200Y-198007200D01*
X285002200Y-166007200D01*
X177002200Y-166007200D01*
D10*
D11*
X10000000Y-10000000D02*
X10000000Y-200007200D01*
X287002200Y-200007200D01*
X287002200Y-10000000D01*
X10000000Y-10000000D01*
D10*
D11*
X12000000Y-12000000D02*
X12000000Y-198007200D01*
X285002200Y-198007200D01*
X285002200Y-12000000D01*
X12000000Y-12000000D01*
D10*
D11*
X60000000Y-12000000D02*
X60000000Y-10000000D01*
D10*
D11*
X110000000Y-12000000D02*
X110000000Y-10000000D01*
D10*
D11*
X160000000Y-12000000D02*
X160000000Y-10000000D01*
D10*
D11*
X210000000Y-12000000D02*
X210000000Y-10000000D01*
D10*
D11*
X260000000Y-12000000D02*
X260000000Y-10000000D01*
D10*
D11*
X36065476Y-11588095D02*
X35322619Y-11588095D01*
X35694047Y-11588095D02*
X35694047Y-10288095D01*
X35570238Y-10473809D01*
X35446428Y-10597619D01*
X35322619Y-10659523D01*
D10*
D11*
X85322619Y-10411904D02*
X85384523Y-10350000D01*
X85508333Y-10288095D01*
X85817857Y-10288095D01*
X85941666Y-10350000D01*
X86003571Y-10411904D01*
X86065476Y-10535714D01*
X86065476Y-10659523D01*
X86003571Y-10845238D01*
X85260714Y-11588095D01*
X86065476Y-11588095D01*
D10*
D11*
X135260714Y-10288095D02*
X136065476Y-10288095D01*
X135632142Y-10783333D01*
X135817857Y-10783333D01*
X135941666Y-10845238D01*
X136003571Y-10907142D01*
X136065476Y-11030952D01*
X136065476Y-11340476D01*
X136003571Y-11464285D01*
X135941666Y-11526190D01*
X135817857Y-11588095D01*
X135446428Y-11588095D01*
X135322619Y-11526190D01*
X135260714Y-11464285D01*
D10*
D11*
X185941666Y-10721428D02*
X185941666Y-11588095D01*
X185632142Y-10226190D02*
X185322619Y-11154761D01*
X186127380Y-11154761D01*
D10*
D11*
X236003571Y-10288095D02*
X235384523Y-10288095D01*
X235322619Y-10907142D01*
X235384523Y-10845238D01*
X235508333Y-10783333D01*
X235817857Y-10783333D01*
X235941666Y-10845238D01*
X236003571Y-10907142D01*
X236065476Y-11030952D01*
X236065476Y-11340476D01*
X236003571Y-11464285D01*
X235941666Y-11526190D01*
X235817857Y-11588095D01*
X235508333Y-11588095D01*
X235384523Y-11526190D01*
X235322619Y-11464285D01*
D10*
D11*
X285941666Y-10288095D02*
X285694047Y-10288095D01*
X285570238Y-10350000D01*
X285508333Y-10411904D01*
X285384523Y-10597619D01*
X285322619Y-10845238D01*
X285322619Y-11340476D01*
X285384523Y-11464285D01*
X285446428Y-11526190D01*
X285570238Y-11588095D01*
X285817857Y-11588095D01*
X285941666Y-11526190D01*
X286003571Y-11464285D01*
X286065476Y-11340476D01*
X286065476Y-11030952D01*
X286003571Y-10907142D01*
X285941666Y-10845238D01*
X285817857Y-10783333D01*
X285570238Y-10783333D01*
X285446428Y-10845238D01*
X285384523Y-10907142D01*
X285322619Y-11030952D01*
D10*
D11*
X60000000Y-198007200D02*
X60000000Y-200007200D01*
D10*
D11*
X110000000Y-198007200D02*
X110000000Y-200007200D01*
D10*
D11*
X160000000Y-198007200D02*
X160000000Y-200007200D01*
D10*
D11*
X210000000Y-198007200D02*
X210000000Y-200007200D01*
D10*
D11*
X260000000Y-198007200D02*
X260000000Y-200007200D01*
D10*
D11*
X36065476Y-199595295D02*
X35322619Y-199595295D01*
X35694047Y-199595295D02*
X35694047Y-198295295D01*
X35570238Y-198481009D01*
X35446428Y-198604819D01*
X35322619Y-198666723D01*
D10*
D11*
X85322619Y-198419104D02*
X85384523Y-198357200D01*
X85508333Y-198295295D01*
X85817857Y-198295295D01*
X85941666Y-198357200D01*
X86003571Y-198419104D01*
X86065476Y-198542914D01*
X86065476Y-198666723D01*
X86003571Y-198852438D01*
X85260714Y-199595295D01*
X86065476Y-199595295D01*
D10*
D11*
X135260714Y-198295295D02*
X136065476Y-198295295D01*
X135632142Y-198790533D01*
X135817857Y-198790533D01*
X135941666Y-198852438D01*
X136003571Y-198914342D01*
X136065476Y-199038152D01*
X136065476Y-199347676D01*
X136003571Y-199471485D01*
X135941666Y-199533390D01*
X135817857Y-199595295D01*
X135446428Y-199595295D01*
X135322619Y-199533390D01*
X135260714Y-199471485D01*
D10*
D11*
X185941666Y-198728628D02*
X185941666Y-199595295D01*
X185632142Y-198233390D02*
X185322619Y-199161961D01*
X186127380Y-199161961D01*
D10*
D11*
X236003571Y-198295295D02*
X235384523Y-198295295D01*
X235322619Y-198914342D01*
X235384523Y-198852438D01*
X235508333Y-198790533D01*
X235817857Y-198790533D01*
X235941666Y-198852438D01*
X236003571Y-198914342D01*
X236065476Y-199038152D01*
X236065476Y-199347676D01*
X236003571Y-199471485D01*
X235941666Y-199533390D01*
X235817857Y-199595295D01*
X235508333Y-199595295D01*
X235384523Y-199533390D01*
X235322619Y-199471485D01*
D10*
D11*
X285941666Y-198295295D02*
X285694047Y-198295295D01*
X285570238Y-198357200D01*
X285508333Y-198419104D01*
X285384523Y-198604819D01*
X285322619Y-198852438D01*
X285322619Y-199347676D01*
X285384523Y-199471485D01*
X285446428Y-199533390D01*
X285570238Y-199595295D01*
X285817857Y-199595295D01*
X285941666Y-199533390D01*
X286003571Y-199471485D01*
X286065476Y-199347676D01*
X286065476Y-199038152D01*
X286003571Y-198914342D01*
X285941666Y-198852438D01*
X285817857Y-198790533D01*
X285570238Y-198790533D01*
X285446428Y-198852438D01*
X285384523Y-198914342D01*
X285322619Y-199038152D01*
D10*
D11*
X10000000Y-60000000D02*
X12000000Y-60000000D01*
D10*
D11*
X10000000Y-110000000D02*
X12000000Y-110000000D01*
D10*
D11*
X10000000Y-160000000D02*
X12000000Y-160000000D01*
D10*
D11*
X10690476Y-35216666D02*
X11309523Y-35216666D01*
X10566666Y-35588095D02*
X11000000Y-34288095D01*
X11433333Y-35588095D01*
D10*
D11*
X11092857Y-84907142D02*
X11278571Y-84969047D01*
X11340476Y-85030952D01*
X11402380Y-85154761D01*
X11402380Y-85340476D01*
X11340476Y-85464285D01*
X11278571Y-85526190D01*
X11154761Y-85588095D01*
X10659523Y-85588095D01*
X10659523Y-84288095D01*
X11092857Y-84288095D01*
X11216666Y-84350000D01*
X11278571Y-84411904D01*
X11340476Y-84535714D01*
X11340476Y-84659523D01*
X11278571Y-84783333D01*
X11216666Y-84845238D01*
X11092857Y-84907142D01*
X10659523Y-84907142D01*
D10*
D11*
X11402380Y-135464285D02*
X11340476Y-135526190D01*
X11154761Y-135588095D01*
X11030952Y-135588095D01*
X10845238Y-135526190D01*
X10721428Y-135402380D01*
X10659523Y-135278571D01*
X10597619Y-135030952D01*
X10597619Y-134845238D01*
X10659523Y-134597619D01*
X10721428Y-134473809D01*
X10845238Y-134350000D01*
X11030952Y-134288095D01*
X11154761Y-134288095D01*
X11340476Y-134350000D01*
X11402380Y-134411904D01*
D10*
D11*
X10659523Y-185588095D02*
X10659523Y-184288095D01*
X10969047Y-184288095D01*
X11154761Y-184350000D01*
X11278571Y-184473809D01*
X11340476Y-184597619D01*
X11402380Y-184845238D01*
X11402380Y-185030952D01*
X11340476Y-185278571D01*
X11278571Y-185402380D01*
X11154761Y-185526190D01*
X10969047Y-185588095D01*
X10659523Y-185588095D01*
D10*
D11*
X287002200Y-60000000D02*
X285002200Y-60000000D01*
D10*
D11*
X287002200Y-110000000D02*
X285002200Y-110000000D01*
D10*
D11*
X287002200Y-160000000D02*
X285002200Y-160000000D01*
D10*
D11*
X285692676Y-35216666D02*
X286311723Y-35216666D01*
X285568866Y-35588095D02*
X286002200Y-34288095D01*
X286435533Y-35588095D01*
D10*
D11*
X286095057Y-84907142D02*
X286280771Y-84969047D01*
X286342676Y-85030952D01*
X286404580Y-85154761D01*
X286404580Y-85340476D01*
X286342676Y-85464285D01*
X286280771Y-85526190D01*
X286156961Y-85588095D01*
X285661723Y-85588095D01*
X285661723Y-84288095D01*
X286095057Y-84288095D01*
X286218866Y-84350000D01*
X286280771Y-84411904D01*
X286342676Y-84535714D01*
X286342676Y-84659523D01*
X286280771Y-84783333D01*
X286218866Y-84845238D01*
X286095057Y-84907142D01*
X285661723Y-84907142D01*
D10*
D11*
X286404580Y-135464285D02*
X286342676Y-135526190D01*
X286156961Y-135588095D01*
X286033152Y-135588095D01*
X285847438Y-135526190D01*
X285723628Y-135402380D01*
X285661723Y-135278571D01*
X285599819Y-135030952D01*
X285599819Y-134845238D01*
X285661723Y-134597619D01*
X285723628Y-134473809D01*
X285847438Y-134350000D01*
X286033152Y-134288095D01*
X286156961Y-134288095D01*
X286342676Y-134350000D01*
X286404580Y-134411904D01*
D10*
D11*
X285661723Y-185588095D02*
X285661723Y-184288095D01*
X285971247Y-184288095D01*
X286156961Y-184350000D01*
X286280771Y-184473809D01*
X286342676Y-184597619D01*
X286404580Y-184845238D01*
X286404580Y-185030952D01*
X286342676Y-185278571D01*
X286280771Y-185402380D01*
X286156961Y-185526190D01*
X285971247Y-185588095D01*
X285661723Y-185588095D01*
D10*
D11*
X200434342Y-193785771D02*
X200434342Y-192285771D01*
X200791485Y-192285771D01*
X201005771Y-192357200D01*
X201148628Y-192500057D01*
X201220057Y-192642914D01*
X201291485Y-192928628D01*
X201291485Y-193142914D01*
X201220057Y-193428628D01*
X201148628Y-193571485D01*
X201005771Y-193714342D01*
X200791485Y-193785771D01*
X200434342Y-193785771D01*
X202577200Y-193785771D02*
X202577200Y-193000057D01*
X202505771Y-192857200D01*
X202362914Y-192785771D01*
X202077200Y-192785771D01*
X201934342Y-192857200D01*
X202577200Y-193714342D02*
X202434342Y-193785771D01*
X202077200Y-193785771D01*
X201934342Y-193714342D01*
X201862914Y-193571485D01*
X201862914Y-193428628D01*
X201934342Y-193285771D01*
X202077200Y-193214342D01*
X202434342Y-193214342D01*
X202577200Y-193142914D01*
X203077200Y-192785771D02*
X203648628Y-192785771D01*
X203291485Y-192285771D02*
X203291485Y-193571485D01*
X203362914Y-193714342D01*
X203505771Y-193785771D01*
X203648628Y-193785771D01*
X204720057Y-193714342D02*
X204577200Y-193785771D01*
X204291485Y-193785771D01*
X204148628Y-193714342D01*
X204077200Y-193571485D01*
X204077200Y-193000057D01*
X204148628Y-192857200D01*
X204291485Y-192785771D01*
X204577200Y-192785771D01*
X204720057Y-192857200D01*
X204791485Y-193000057D01*
X204791485Y-193142914D01*
X204077200Y-193285771D01*
X205434342Y-193642914D02*
X205505771Y-193714342D01*
X205434342Y-193785771D01*
X205362914Y-193714342D01*
X205434342Y-193642914D01*
X205434342Y-193785771D01*
X205434342Y-192857200D02*
X205505771Y-192928628D01*
X205434342Y-193000057D01*
X205362914Y-192928628D01*
X205434342Y-192857200D01*
X205434342Y-193000057D01*
X207220057Y-192428628D02*
X207291485Y-192357200D01*
X207434342Y-192285771D01*
X207791485Y-192285771D01*
X207934342Y-192357200D01*
X208005771Y-192428628D01*
X208077200Y-192571485D01*
X208077200Y-192714342D01*
X208005771Y-192928628D01*
X207148628Y-193785771D01*
X208077200Y-193785771D01*
X209005771Y-192285771D02*
X209148628Y-192285771D01*
X209291485Y-192357200D01*
X209362914Y-192428628D01*
X209434342Y-192571485D01*
X209505771Y-192857200D01*
X209505771Y-193214342D01*
X209434342Y-193500057D01*
X209362914Y-193642914D01*
X209291485Y-193714342D01*
X209148628Y-193785771D01*
X209005771Y-193785771D01*
X208862914Y-193714342D01*
X208791485Y-193642914D01*
X208720057Y-193500057D01*
X208648628Y-193214342D01*
X208648628Y-192857200D01*
X208720057Y-192571485D01*
X208791485Y-192428628D01*
X208862914Y-192357200D01*
X209005771Y-192285771D01*
X210077200Y-192428628D02*
X210148628Y-192357200D01*
X210291485Y-192285771D01*
X210648628Y-192285771D01*
X210791485Y-192357200D01*
X210862914Y-192428628D01*
X210934342Y-192571485D01*
X210934342Y-192714342D01*
X210862914Y-192928628D01*
X210005771Y-193785771D01*
X210934342Y-193785771D01*
X211505771Y-192428628D02*
X211577200Y-192357200D01*
X211720057Y-192285771D01*
X212077200Y-192285771D01*
X212220057Y-192357200D01*
X212291485Y-192428628D01*
X212362914Y-192571485D01*
X212362914Y-192714342D01*
X212291485Y-192928628D01*
X211434342Y-193785771D01*
X212362914Y-193785771D01*
X213005771Y-193214342D02*
X214148628Y-193214342D01*
X215148628Y-192285771D02*
X215291485Y-192285771D01*
X215434342Y-192357200D01*
X215505771Y-192428628D01*
X215577200Y-192571485D01*
X215648628Y-192857200D01*
X215648628Y-193214342D01*
X215577200Y-193500057D01*
X215505771Y-193642914D01*
X215434342Y-193714342D01*
X215291485Y-193785771D01*
X215148628Y-193785771D01*
X215005771Y-193714342D01*
X214934342Y-193642914D01*
X214862914Y-193500057D01*
X214791485Y-193214342D01*
X214791485Y-192857200D01*
X214862914Y-192571485D01*
X214934342Y-192428628D01*
X215005771Y-192357200D01*
X215148628Y-192285771D01*
X216934342Y-192285771D02*
X216648628Y-192285771D01*
X216505771Y-192357200D01*
X216434342Y-192428628D01*
X216291485Y-192642914D01*
X216220057Y-192928628D01*
X216220057Y-193500057D01*
X216291485Y-193642914D01*
X216362914Y-193714342D01*
X216505771Y-193785771D01*
X216791485Y-193785771D01*
X216934342Y-193714342D01*
X217005771Y-193642914D01*
X217077200Y-193500057D01*
X217077200Y-193142914D01*
X217005771Y-193000057D01*
X216934342Y-192928628D01*
X216791485Y-192857200D01*
X216505771Y-192857200D01*
X216362914Y-192928628D01*
X216291485Y-193000057D01*
X216220057Y-193142914D01*
X217720057Y-193214342D02*
X218862914Y-193214342D01*
X220362914Y-193785771D02*
X219505771Y-193785771D01*
X219934342Y-193785771D02*
X219934342Y-192285771D01*
X219791485Y-192500057D01*
X219648628Y-192642914D01*
X219505771Y-192714342D01*
X221648628Y-192285771D02*
X221362914Y-192285771D01*
X221220057Y-192357200D01*
X221148628Y-192428628D01*
X221005771Y-192642914D01*
X220934342Y-192928628D01*
X220934342Y-193500057D01*
X221005771Y-193642914D01*
X221077200Y-193714342D01*
X221220057Y-193785771D01*
X221505771Y-193785771D01*
X221648628Y-193714342D01*
X221720057Y-193642914D01*
X221791485Y-193500057D01*
X221791485Y-193142914D01*
X221720057Y-193000057D01*
X221648628Y-192928628D01*
X221505771Y-192857200D01*
X221220057Y-192857200D01*
X221077200Y-192928628D01*
X221005771Y-193000057D01*
X220934342Y-193142914D01*
D10*
D11*
X177002200Y-194507200D02*
X285002200Y-194507200D01*
D10*
D11*
X178434342Y-196585771D02*
X178434342Y-195085771D01*
X179291485Y-196585771D02*
X178648628Y-195728628D01*
X179291485Y-195085771D02*
X178434342Y-195942914D01*
X179934342Y-196585771D02*
X179934342Y-195585771D01*
X179934342Y-195085771D02*
X179862914Y-195157200D01*
X179934342Y-195228628D01*
X180005771Y-195157200D01*
X179934342Y-195085771D01*
X179934342Y-195228628D01*
X181505771Y-196442914D02*
X181434342Y-196514342D01*
X181220057Y-196585771D01*
X181077200Y-196585771D01*
X180862914Y-196514342D01*
X180720057Y-196371485D01*
X180648628Y-196228628D01*
X180577200Y-195942914D01*
X180577200Y-195728628D01*
X180648628Y-195442914D01*
X180720057Y-195300057D01*
X180862914Y-195157200D01*
X181077200Y-195085771D01*
X181220057Y-195085771D01*
X181434342Y-195157200D01*
X181505771Y-195228628D01*
X182791485Y-196585771D02*
X182791485Y-195800057D01*
X182720057Y-195657200D01*
X182577200Y-195585771D01*
X182291485Y-195585771D01*
X182148628Y-195657200D01*
X182791485Y-196514342D02*
X182648628Y-196585771D01*
X182291485Y-196585771D01*
X182148628Y-196514342D01*
X182077200Y-196371485D01*
X182077200Y-196228628D01*
X182148628Y-196085771D01*
X182291485Y-196014342D01*
X182648628Y-196014342D01*
X182791485Y-195942914D01*
X184148628Y-196585771D02*
X184148628Y-195085771D01*
X184148628Y-196514342D02*
X184005771Y-196585771D01*
X183720057Y-196585771D01*
X183577200Y-196514342D01*
X183505771Y-196442914D01*
X183434342Y-196300057D01*
X183434342Y-195871485D01*
X183505771Y-195728628D01*
X183577200Y-195657200D01*
X183720057Y-195585771D01*
X184005771Y-195585771D01*
X184148628Y-195657200D01*
X186005771Y-195800057D02*
X186505771Y-195800057D01*
X186720057Y-196585771D02*
X186005771Y-196585771D01*
X186005771Y-195085771D01*
X186720057Y-195085771D01*
X187362914Y-196442914D02*
X187434342Y-196514342D01*
X187362914Y-196585771D01*
X187291485Y-196514342D01*
X187362914Y-196442914D01*
X187362914Y-196585771D01*
X188077200Y-196585771D02*
X188077200Y-195085771D01*
X188434342Y-195085771D01*
X188648628Y-195157200D01*
X188791485Y-195300057D01*
X188862914Y-195442914D01*
X188934342Y-195728628D01*
X188934342Y-195942914D01*
X188862914Y-196228628D01*
X188791485Y-196371485D01*
X188648628Y-196514342D01*
X188434342Y-196585771D01*
X188077200Y-196585771D01*
X189577200Y-196442914D02*
X189648628Y-196514342D01*
X189577200Y-196585771D01*
X189505771Y-196514342D01*
X189577200Y-196442914D01*
X189577200Y-196585771D01*
X190220057Y-196157200D02*
X190934342Y-196157200D01*
X190077200Y-196585771D02*
X190577200Y-195085771D01*
X191077200Y-196585771D01*
X191577200Y-196442914D02*
X191648628Y-196514342D01*
X191577200Y-196585771D01*
X191505771Y-196514342D01*
X191577200Y-196442914D01*
X191577200Y-196585771D01*
X194577200Y-196585771D02*
X194577200Y-195085771D01*
X194720057Y-196014342D02*
X195148628Y-196585771D01*
X195148628Y-195585771D02*
X194577200Y-196157200D01*
X195791485Y-196585771D02*
X195791485Y-195585771D01*
X195791485Y-195085771D02*
X195720057Y-195157200D01*
X195791485Y-195228628D01*
X195862914Y-195157200D01*
X195791485Y-195085771D01*
X195791485Y-195228628D01*
X197148628Y-196514342D02*
X197005771Y-196585771D01*
X196720057Y-196585771D01*
X196577200Y-196514342D01*
X196505771Y-196442914D01*
X196434342Y-196300057D01*
X196434342Y-195871485D01*
X196505771Y-195728628D01*
X196577200Y-195657200D01*
X196720057Y-195585771D01*
X197005771Y-195585771D01*
X197148628Y-195657200D01*
X198434342Y-196585771D02*
X198434342Y-195800057D01*
X198362914Y-195657200D01*
X198220057Y-195585771D01*
X197934342Y-195585771D01*
X197791485Y-195657200D01*
X198434342Y-196514342D02*
X198291485Y-196585771D01*
X197934342Y-196585771D01*
X197791485Y-196514342D01*
X197720057Y-196371485D01*
X197720057Y-196228628D01*
X197791485Y-196085771D01*
X197934342Y-196014342D01*
X198291485Y-196014342D01*
X198434342Y-195942914D01*
X199791485Y-196585771D02*
X199791485Y-195085771D01*
X199791485Y-196514342D02*
X199648628Y-196585771D01*
X199362914Y-196585771D01*
X199220057Y-196514342D01*
X199148628Y-196442914D01*
X199077200Y-196300057D01*
X199077200Y-195871485D01*
X199148628Y-195728628D01*
X199220057Y-195657200D01*
X199362914Y-195585771D01*
X199648628Y-195585771D01*
X199791485Y-195657200D01*
X202077200Y-197157200D02*
X202005771Y-197085771D01*
X201862914Y-196871485D01*
X201791485Y-196728628D01*
X201720057Y-196514342D01*
X201648628Y-196157200D01*
X201648628Y-195871485D01*
X201720057Y-195514342D01*
X201791485Y-195300057D01*
X201862914Y-195157200D01*
X202005771Y-194942914D01*
X202077200Y-194871485D01*
X203291485Y-195085771D02*
X203005771Y-195085771D01*
X202862914Y-195157200D01*
X202791485Y-195228628D01*
X202648628Y-195442914D01*
X202577200Y-195728628D01*
X202577200Y-196300057D01*
X202648628Y-196442914D01*
X202720057Y-196514342D01*
X202862914Y-196585771D01*
X203148628Y-196585771D01*
X203291485Y-196514342D01*
X203362914Y-196442914D01*
X203434342Y-196300057D01*
X203434342Y-195942914D01*
X203362914Y-195800057D01*
X203291485Y-195728628D01*
X203148628Y-195657200D01*
X202862914Y-195657200D01*
X202720057Y-195728628D01*
X202648628Y-195800057D01*
X202577200Y-195942914D01*
X204077200Y-196442914D02*
X204148628Y-196514342D01*
X204077200Y-196585771D01*
X204005771Y-196514342D01*
X204077200Y-196442914D01*
X204077200Y-196585771D01*
X205077200Y-195085771D02*
X205220057Y-195085771D01*
X205362914Y-195157200D01*
X205434342Y-195228628D01*
X205505771Y-195371485D01*
X205577200Y-195657200D01*
X205577200Y-196014342D01*
X205505771Y-196300057D01*
X205434342Y-196442914D01*
X205362914Y-196514342D01*
X205220057Y-196585771D01*
X205077200Y-196585771D01*
X204934342Y-196514342D01*
X204862914Y-196442914D01*
X204791485Y-196300057D01*
X204720057Y-196014342D01*
X204720057Y-195657200D01*
X204791485Y-195371485D01*
X204862914Y-195228628D01*
X204934342Y-195157200D01*
X205077200Y-195085771D01*
X206220057Y-196442914D02*
X206291485Y-196514342D01*
X206220057Y-196585771D01*
X206148628Y-196514342D01*
X206220057Y-196442914D01*
X206220057Y-196585771D01*
X207648628Y-195085771D02*
X206934342Y-195085771D01*
X206862914Y-195800057D01*
X206934342Y-195728628D01*
X207077200Y-195657200D01*
X207434342Y-195657200D01*
X207577200Y-195728628D01*
X207648628Y-195800057D01*
X207720057Y-195942914D01*
X207720057Y-196300057D01*
X207648628Y-196442914D01*
X207577200Y-196514342D01*
X207434342Y-196585771D01*
X207077200Y-196585771D01*
X206934342Y-196514342D01*
X206862914Y-196442914D01*
X208220057Y-197157200D02*
X208291485Y-197085771D01*
X208434342Y-196871485D01*
X208505771Y-196728628D01*
X208577200Y-196514342D01*
X208648628Y-196157200D01*
X208648628Y-195871485D01*
X208577200Y-195514342D01*
X208505771Y-195300057D01*
X208434342Y-195157200D01*
X208291485Y-194942914D01*
X208220057Y-194871485D01*
D10*
D11*
X177002200Y-191507200D02*
X285002200Y-191507200D01*
D10*
D12*
X264411485Y-193785771D02*
X263911485Y-193071485D01*
X263554342Y-193785771D02*
X263554342Y-192285771D01*
X264125771Y-192285771D01*
X264268628Y-192357200D01*
X264340057Y-192428628D01*
X264411485Y-192571485D01*
X264411485Y-192785771D01*
X264340057Y-192928628D01*
X264268628Y-193000057D01*
X264125771Y-193071485D01*
X263554342Y-193071485D01*
X265625771Y-193714342D02*
X265482914Y-193785771D01*
X265197200Y-193785771D01*
X265054342Y-193714342D01*
X264982914Y-193571485D01*
X264982914Y-193000057D01*
X265054342Y-192857200D01*
X265197200Y-192785771D01*
X265482914Y-192785771D01*
X265625771Y-192857200D01*
X265697200Y-193000057D01*
X265697200Y-193142914D01*
X264982914Y-193285771D01*
X266197200Y-192785771D02*
X266554342Y-193785771D01*
X266911485Y-192785771D01*
X267482914Y-193642914D02*
X267554342Y-193714342D01*
X267482914Y-193785771D01*
X267411485Y-193714342D01*
X267482914Y-193642914D01*
X267482914Y-193785771D01*
X267482914Y-192857200D02*
X267554342Y-192928628D01*
X267482914Y-193000057D01*
X267411485Y-192928628D01*
X267482914Y-192857200D01*
X267482914Y-193000057D01*
X269625771Y-192285771D02*
X269768628Y-192285771D01*
X269911485Y-192357200D01*
X269982914Y-192428628D01*
X270054342Y-192571485D01*
X270125771Y-192857200D01*
X270125771Y-193214342D01*
X270054342Y-193500057D01*
X269982914Y-193642914D01*
X269911485Y-193714342D01*
X269768628Y-193785771D01*
X269625771Y-193785771D01*
X269482914Y-193714342D01*
X269411485Y-193642914D01*
X269340057Y-193500057D01*
X269268628Y-193214342D01*
X269268628Y-192857200D01*
X269340057Y-192571485D01*
X269411485Y-192428628D01*
X269482914Y-192357200D01*
X269625771Y-192285771D01*
X271054342Y-192285771D02*
X271197200Y-192285771D01*
X271340057Y-192357200D01*
X271411485Y-192428628D01*
X271482914Y-192571485D01*
X271554342Y-192857200D01*
X271554342Y-193214342D01*
X271482914Y-193500057D01*
X271411485Y-193642914D01*
X271340057Y-193714342D01*
X271197200Y-193785771D01*
X271054342Y-193785771D01*
X270911485Y-193714342D01*
X270840057Y-193642914D01*
X270768628Y-193500057D01*
X270697200Y-193214342D01*
X270697200Y-192857200D01*
X270768628Y-192571485D01*
X270840057Y-192428628D01*
X270911485Y-192357200D01*
X271054342Y-192285771D01*
D10*
D11*
X178362914Y-193714342D02*
X178577200Y-193785771D01*
X178934342Y-193785771D01*
X179077200Y-193714342D01*
X179148628Y-193642914D01*
X179220057Y-193500057D01*
X179220057Y-193357200D01*
X179148628Y-193214342D01*
X179077200Y-193142914D01*
X178934342Y-193071485D01*
X178648628Y-193000057D01*
X178505771Y-192928628D01*
X178434342Y-192857200D01*
X178362914Y-192714342D01*
X178362914Y-192571485D01*
X178434342Y-192428628D01*
X178505771Y-192357200D01*
X178648628Y-192285771D01*
X179005771Y-192285771D01*
X179220057Y-192357200D01*
X179862914Y-193785771D02*
X179862914Y-192785771D01*
X179862914Y-192285771D02*
X179791485Y-192357200D01*
X179862914Y-192428628D01*
X179934342Y-192357200D01*
X179862914Y-192285771D01*
X179862914Y-192428628D01*
X180434342Y-192785771D02*
X181220057Y-192785771D01*
X180434342Y-193785771D01*
X181220057Y-193785771D01*
X182362914Y-193714342D02*
X182220057Y-193785771D01*
X181934342Y-193785771D01*
X181791485Y-193714342D01*
X181720057Y-193571485D01*
X181720057Y-193000057D01*
X181791485Y-192857200D01*
X181934342Y-192785771D01*
X182220057Y-192785771D01*
X182362914Y-192857200D01*
X182434342Y-193000057D01*
X182434342Y-193142914D01*
X181720057Y-193285771D01*
X183077200Y-193642914D02*
X183148628Y-193714342D01*
X183077200Y-193785771D01*
X183005771Y-193714342D01*
X183077200Y-193642914D01*
X183077200Y-193785771D01*
X183077200Y-192857200D02*
X183148628Y-192928628D01*
X183077200Y-193000057D01*
X183005771Y-192928628D01*
X183077200Y-192857200D01*
X183077200Y-193000057D01*
X184862914Y-193357200D02*
X185577200Y-193357200D01*
X184720057Y-193785771D02*
X185220057Y-192285771D01*
X185720057Y-193785771D01*
X186862914Y-192785771D02*
X186862914Y-193785771D01*
X186505771Y-192214342D02*
X186148628Y-193285771D01*
X187077200Y-193285771D01*
D10*
D11*
X263434342Y-196585771D02*
X263434342Y-195085771D01*
X264791485Y-196585771D02*
X264791485Y-195085771D01*
X264791485Y-196514342D02*
X264648628Y-196585771D01*
X264362914Y-196585771D01*
X264220057Y-196514342D01*
X264148628Y-196442914D01*
X264077200Y-196300057D01*
X264077200Y-195871485D01*
X264148628Y-195728628D01*
X264220057Y-195657200D01*
X264362914Y-195585771D01*
X264648628Y-195585771D01*
X264791485Y-195657200D01*
X265505771Y-196442914D02*
X265577200Y-196514342D01*
X265505771Y-196585771D01*
X265434342Y-196514342D01*
X265505771Y-196442914D01*
X265505771Y-196585771D01*
X265505771Y-195657200D02*
X265577200Y-195728628D01*
X265505771Y-195800057D01*
X265434342Y-195728628D01*
X265505771Y-195657200D01*
X265505771Y-195800057D01*
X268148628Y-196585771D02*
X267291485Y-196585771D01*
X267720057Y-196585771D02*
X267720057Y-195085771D01*
X267577200Y-195300057D01*
X267434342Y-195442914D01*
X267291485Y-195514342D01*
X269862914Y-195014342D02*
X268577200Y-196942914D01*
X271148628Y-196585771D02*
X270291485Y-196585771D01*
X270720057Y-196585771D02*
X270720057Y-195085771D01*
X270577200Y-195300057D01*
X270434342Y-195442914D01*
X270291485Y-195514342D01*
D10*
D11*
X177002200Y-187507200D02*
X285002200Y-187507200D01*
D10*
D13*
X178714580Y-188211961D02*
X179857438Y-188211961D01*
X179036009Y-190211961D02*
X179286009Y-188211961D01*
X180274104Y-190211961D02*
X180440771Y-188878628D01*
X180524104Y-188211961D02*
X180416961Y-188307200D01*
X180500295Y-188402438D01*
X180607438Y-188307200D01*
X180524104Y-188211961D01*
X180500295Y-188402438D01*
X181107438Y-188878628D02*
X181869342Y-188878628D01*
X181476485Y-188211961D02*
X181262200Y-189926247D01*
X181333628Y-190116723D01*
X181512200Y-190211961D01*
X181702676Y-190211961D01*
X182655057Y-190211961D02*
X182476485Y-190116723D01*
X182405057Y-189926247D01*
X182619342Y-188211961D01*
X184190771Y-190116723D02*
X183988390Y-190211961D01*
X183607438Y-190211961D01*
X183428866Y-190116723D01*
X183357438Y-189926247D01*
X183452676Y-189164342D01*
X183571723Y-188973866D01*
X183774104Y-188878628D01*
X184155057Y-188878628D01*
X184333628Y-188973866D01*
X184405057Y-189164342D01*
X184381247Y-189354819D01*
X183405057Y-189545295D01*
X185155057Y-190021485D02*
X185238390Y-190116723D01*
X185131247Y-190211961D01*
X185047914Y-190116723D01*
X185155057Y-190021485D01*
X185131247Y-190211961D01*
X185286009Y-188973866D02*
X185369342Y-189069104D01*
X185262200Y-189164342D01*
X185178866Y-189069104D01*
X185286009Y-188973866D01*
X185262200Y-189164342D01*
X188559819Y-190211961D02*
X187607438Y-190211961D01*
X187857438Y-188211961D01*
X189226485Y-190211961D02*
X189476485Y-188211961D01*
X189964580Y-189640533D01*
X190809819Y-188211961D01*
X190559819Y-190211961D01*
X191571723Y-188211961D02*
X192809819Y-188211961D01*
X192047914Y-188973866D01*
X192333628Y-188973866D01*
X192512200Y-189069104D01*
X192595533Y-189164342D01*
X192666961Y-189354819D01*
X192607438Y-189831009D01*
X192488390Y-190021485D01*
X192381247Y-190116723D01*
X192178866Y-190211961D01*
X191607438Y-190211961D01*
X191428866Y-190116723D01*
X191345533Y-190021485D01*
X193845533Y-189069104D02*
X193666961Y-188973866D01*
X193583628Y-188878628D01*
X193512200Y-188688152D01*
X193524104Y-188592914D01*
X193643152Y-188402438D01*
X193750295Y-188307200D01*
X193952676Y-188211961D01*
X194333628Y-188211961D01*
X194512200Y-188307200D01*
X194595533Y-188402438D01*
X194666961Y-188592914D01*
X194655057Y-188688152D01*
X194536009Y-188878628D01*
X194428866Y-188973866D01*
X194226485Y-189069104D01*
X193845533Y-189069104D01*
X193643152Y-189164342D01*
X193536009Y-189259580D01*
X193416961Y-189450057D01*
X193369342Y-189831009D01*
X193440771Y-190021485D01*
X193524104Y-190116723D01*
X193702676Y-190211961D01*
X194083628Y-190211961D01*
X194286009Y-190116723D01*
X194393152Y-190021485D01*
X194512200Y-189831009D01*
X194559819Y-189450057D01*
X194488390Y-189259580D01*
X194405057Y-189164342D01*
X194226485Y-189069104D01*
X196345533Y-188878628D02*
X196178866Y-190211961D01*
X195964580Y-188116723D02*
X195309819Y-189545295D01*
X196547914Y-189545295D01*
X198726485Y-189640533D02*
X199678866Y-189640533D01*
X198464580Y-190211961D02*
X199381247Y-188211961D01*
X199797914Y-190211961D01*
X201488390Y-188878628D02*
X201321723Y-190211961D01*
X200631247Y-188878628D02*
X200500295Y-189926247D01*
X200571723Y-190116723D01*
X200750295Y-190211961D01*
X201036009Y-190211961D01*
X201238390Y-190116723D01*
X201345533Y-190021485D01*
X203131247Y-190211961D02*
X203381247Y-188211961D01*
X203143152Y-190116723D02*
X202940771Y-190211961D01*
X202559819Y-190211961D01*
X202381247Y-190116723D01*
X202297914Y-190021485D01*
X202226485Y-189831009D01*
X202297914Y-189259580D01*
X202416961Y-189069104D01*
X202524104Y-188973866D01*
X202726485Y-188878628D01*
X203107438Y-188878628D01*
X203286009Y-188973866D01*
X204083628Y-190211961D02*
X204250295Y-188878628D01*
X204333628Y-188211961D02*
X204226485Y-188307200D01*
X204309819Y-188402438D01*
X204416961Y-188307200D01*
X204333628Y-188211961D01*
X204309819Y-188402438D01*
X205321723Y-190211961D02*
X205143152Y-190116723D01*
X205059819Y-190021485D01*
X204988390Y-189831009D01*
X205059819Y-189259580D01*
X205178866Y-189069104D01*
X205286009Y-188973866D01*
X205488390Y-188878628D01*
X205774104Y-188878628D01*
X205952676Y-188973866D01*
X206036009Y-189069104D01*
X206107438Y-189259580D01*
X206036009Y-189831009D01*
X205916961Y-190021485D01*
X205809819Y-190116723D01*
X205607438Y-190211961D01*
X205321723Y-190211961D01*
X208345533Y-189640533D02*
X209297914Y-189640533D01*
X208083628Y-190211961D02*
X209000295Y-188211961D01*
X209416961Y-190211961D01*
X210083628Y-190211961D02*
X210250295Y-188878628D01*
X210226485Y-189069104D02*
X210333628Y-188973866D01*
X210536009Y-188878628D01*
X210821723Y-188878628D01*
X211000295Y-188973866D01*
X211071723Y-189164342D01*
X210940771Y-190211961D01*
X211071723Y-189164342D02*
X211190771Y-188973866D01*
X211393152Y-188878628D01*
X211678866Y-188878628D01*
X211857438Y-188973866D01*
X211928866Y-189164342D01*
X211797914Y-190211961D01*
X212916961Y-188878628D02*
X212666961Y-190878628D01*
X212905057Y-188973866D02*
X213107438Y-188878628D01*
X213488390Y-188878628D01*
X213666961Y-188973866D01*
X213750295Y-189069104D01*
X213821723Y-189259580D01*
X213750295Y-189831009D01*
X213631247Y-190021485D01*
X213524104Y-190116723D01*
X213321723Y-190211961D01*
X212940771Y-190211961D01*
X212762200Y-190116723D01*
X214845533Y-190211961D02*
X214666961Y-190116723D01*
X214595533Y-189926247D01*
X214809819Y-188211961D01*
X215607438Y-190211961D02*
X215774104Y-188878628D01*
X215857438Y-188211961D02*
X215750295Y-188307200D01*
X215833628Y-188402438D01*
X215940771Y-188307200D01*
X215857438Y-188211961D01*
X215833628Y-188402438D01*
X216440771Y-188878628D02*
X217202676Y-188878628D01*
X216559819Y-190211961D02*
X216774104Y-188497676D01*
X216893152Y-188307200D01*
X217095533Y-188211961D01*
X217286009Y-188211961D01*
X217702676Y-190211961D02*
X217869342Y-188878628D01*
X217952676Y-188211961D02*
X217845533Y-188307200D01*
X217928866Y-188402438D01*
X218036009Y-188307200D01*
X217952676Y-188211961D01*
X217928866Y-188402438D01*
X219428866Y-190116723D02*
X219226485Y-190211961D01*
X218845533Y-190211961D01*
X218666961Y-190116723D01*
X218595533Y-189926247D01*
X218690771Y-189164342D01*
X218809819Y-188973866D01*
X219012200Y-188878628D01*
X219393152Y-188878628D01*
X219571723Y-188973866D01*
X219643152Y-189164342D01*
X219619342Y-189354819D01*
X218643152Y-189545295D01*
X220369342Y-190211961D02*
X220536009Y-188878628D01*
X220488390Y-189259580D02*
X220607438Y-189069104D01*
X220714580Y-188973866D01*
X220916961Y-188878628D01*
X221107438Y-188878628D01*
X223131247Y-190211961D02*
X223381247Y-188211961D01*
X224143152Y-188211961D01*
X224321723Y-188307200D01*
X224405057Y-188402438D01*
X224476485Y-188592914D01*
X224440771Y-188878628D01*
X224321723Y-189069104D01*
X224214580Y-189164342D01*
X224012200Y-189259580D01*
X223250295Y-189259580D01*
X225131247Y-190211961D02*
X225297914Y-188878628D01*
X225250295Y-189259580D02*
X225369342Y-189069104D01*
X225476485Y-188973866D01*
X225678866Y-188878628D01*
X225869342Y-188878628D01*
X226655057Y-190211961D02*
X226476485Y-190116723D01*
X226393152Y-190021485D01*
X226321723Y-189831009D01*
X226393152Y-189259580D01*
X226512200Y-189069104D01*
X226619342Y-188973866D01*
X226821723Y-188878628D01*
X227107438Y-188878628D01*
X227286009Y-188973866D01*
X227369342Y-189069104D01*
X227440771Y-189259580D01*
X227369342Y-189831009D01*
X227250295Y-190021485D01*
X227143152Y-190116723D01*
X226940771Y-190211961D01*
X226655057Y-190211961D01*
X228345533Y-188878628D02*
X228131247Y-190592914D01*
X228012200Y-190783390D01*
X227809819Y-190878628D01*
X227714580Y-190878628D01*
X228428866Y-188211961D02*
X228321723Y-188307200D01*
X228405057Y-188402438D01*
X228512200Y-188307200D01*
X228428866Y-188211961D01*
X228405057Y-188402438D01*
X229905057Y-190116723D02*
X229702676Y-190211961D01*
X229321723Y-190211961D01*
X229143152Y-190116723D01*
X229071723Y-189926247D01*
X229166961Y-189164342D01*
X229286009Y-188973866D01*
X229488390Y-188878628D01*
X229869342Y-188878628D01*
X230047914Y-188973866D01*
X230119342Y-189164342D01*
X230095533Y-189354819D01*
X229119342Y-189545295D01*
X231714580Y-190116723D02*
X231512200Y-190211961D01*
X231131247Y-190211961D01*
X230952676Y-190116723D01*
X230869342Y-190021485D01*
X230797914Y-189831009D01*
X230869342Y-189259580D01*
X230988390Y-189069104D01*
X231095533Y-188973866D01*
X231297914Y-188878628D01*
X231678866Y-188878628D01*
X231857438Y-188973866D01*
X232440771Y-188878628D02*
X233202676Y-188878628D01*
X232809819Y-188211961D02*
X232595533Y-189926247D01*
X232666961Y-190116723D01*
X232845533Y-190211961D01*
X233036009Y-190211961D01*
D10*
D11*
X178934342Y-185600057D02*
X178434342Y-185600057D01*
X178434342Y-186385771D02*
X178434342Y-184885771D01*
X179148628Y-184885771D01*
X179720057Y-186385771D02*
X179720057Y-185385771D01*
X179720057Y-184885771D02*
X179648628Y-184957200D01*
X179720057Y-185028628D01*
X179791485Y-184957200D01*
X179720057Y-184885771D01*
X179720057Y-185028628D01*
X180648628Y-186385771D02*
X180505771Y-186314342D01*
X180434342Y-186171485D01*
X180434342Y-184885771D01*
X181791485Y-186314342D02*
X181648628Y-186385771D01*
X181362914Y-186385771D01*
X181220057Y-186314342D01*
X181148628Y-186171485D01*
X181148628Y-185600057D01*
X181220057Y-185457200D01*
X181362914Y-185385771D01*
X181648628Y-185385771D01*
X181791485Y-185457200D01*
X181862914Y-185600057D01*
X181862914Y-185742914D01*
X181148628Y-185885771D01*
X182505771Y-186242914D02*
X182577200Y-186314342D01*
X182505771Y-186385771D01*
X182434342Y-186314342D01*
X182505771Y-186242914D01*
X182505771Y-186385771D01*
X182505771Y-185457200D02*
X182577200Y-185528628D01*
X182505771Y-185600057D01*
X182434342Y-185528628D01*
X182505771Y-185457200D01*
X182505771Y-185600057D01*
X184291485Y-185957200D02*
X185005771Y-185957200D01*
X184148628Y-186385771D02*
X184648628Y-184885771D01*
X185148628Y-186385771D01*
X185648628Y-186385771D02*
X185648628Y-185385771D01*
X185648628Y-185528628D02*
X185720057Y-185457200D01*
X185862914Y-185385771D01*
X186077200Y-185385771D01*
X186220057Y-185457200D01*
X186291485Y-185600057D01*
X186291485Y-186385771D01*
X186291485Y-185600057D02*
X186362914Y-185457200D01*
X186505771Y-185385771D01*
X186720057Y-185385771D01*
X186862914Y-185457200D01*
X186934342Y-185600057D01*
X186934342Y-186385771D01*
X187648628Y-185385771D02*
X187648628Y-186885771D01*
X187648628Y-185457200D02*
X187791485Y-185385771D01*
X188077200Y-185385771D01*
X188220057Y-185457200D01*
X188291485Y-185528628D01*
X188362914Y-185671485D01*
X188362914Y-186100057D01*
X188291485Y-186242914D01*
X188220057Y-186314342D01*
X188077200Y-186385771D01*
X187791485Y-186385771D01*
X187648628Y-186314342D01*
X189220057Y-186385771D02*
X189077200Y-186314342D01*
X189005771Y-186171485D01*
X189005771Y-184885771D01*
X189791485Y-186385771D02*
X189791485Y-185385771D01*
X189791485Y-184885771D02*
X189720057Y-184957200D01*
X189791485Y-185028628D01*
X189862914Y-184957200D01*
X189791485Y-184885771D01*
X189791485Y-185028628D01*
X190291485Y-185385771D02*
X190862914Y-185385771D01*
X190505771Y-186385771D02*
X190505771Y-185100057D01*
X190577200Y-184957200D01*
X190720057Y-184885771D01*
X190862914Y-184885771D01*
X191362914Y-186385771D02*
X191362914Y-185385771D01*
X191362914Y-184885771D02*
X191291485Y-184957200D01*
X191362914Y-185028628D01*
X191434342Y-184957200D01*
X191362914Y-184885771D01*
X191362914Y-185028628D01*
X192648628Y-186314342D02*
X192505771Y-186385771D01*
X192220057Y-186385771D01*
X192077200Y-186314342D01*
X192005771Y-186171485D01*
X192005771Y-185600057D01*
X192077200Y-185457200D01*
X192220057Y-185385771D01*
X192505771Y-185385771D01*
X192648628Y-185457200D01*
X192720057Y-185600057D01*
X192720057Y-185742914D01*
X192005771Y-185885771D01*
X193362914Y-186385771D02*
X193362914Y-185385771D01*
X193362914Y-185671485D02*
X193434342Y-185528628D01*
X193505771Y-185457200D01*
X193648628Y-185385771D01*
X193791485Y-185385771D01*
X194291485Y-186242914D02*
X194362914Y-186314342D01*
X194291485Y-186385771D01*
X194220057Y-186314342D01*
X194291485Y-186242914D01*
X194291485Y-186385771D01*
X195005771Y-186385771D02*
X195005771Y-184885771D01*
X195148628Y-185814342D02*
X195577200Y-186385771D01*
X195577200Y-185385771D02*
X195005771Y-185957200D01*
X196220057Y-186385771D02*
X196220057Y-185385771D01*
X196220057Y-184885771D02*
X196148628Y-184957200D01*
X196220057Y-185028628D01*
X196291485Y-184957200D01*
X196220057Y-184885771D01*
X196220057Y-185028628D01*
X197577200Y-186314342D02*
X197434342Y-186385771D01*
X197148628Y-186385771D01*
X197005771Y-186314342D01*
X196934342Y-186242914D01*
X196862914Y-186100057D01*
X196862914Y-185671485D01*
X196934342Y-185528628D01*
X197005771Y-185457200D01*
X197148628Y-185385771D01*
X197434342Y-185385771D01*
X197577200Y-185457200D01*
X198862914Y-186385771D02*
X198862914Y-185600057D01*
X198791485Y-185457200D01*
X198648628Y-185385771D01*
X198362914Y-185385771D01*
X198220057Y-185457200D01*
X198862914Y-186314342D02*
X198720057Y-186385771D01*
X198362914Y-186385771D01*
X198220057Y-186314342D01*
X198148628Y-186171485D01*
X198148628Y-186028628D01*
X198220057Y-185885771D01*
X198362914Y-185814342D01*
X198720057Y-185814342D01*
X198862914Y-185742914D01*
X200220057Y-186385771D02*
X200220057Y-184885771D01*
X200220057Y-186314342D02*
X200077200Y-186385771D01*
X199791485Y-186385771D01*
X199648628Y-186314342D01*
X199577200Y-186242914D01*
X199505771Y-186100057D01*
X199505771Y-185671485D01*
X199577200Y-185528628D01*
X199648628Y-185457200D01*
X199791485Y-185385771D01*
X200077200Y-185385771D01*
X200220057Y-185457200D01*
X200577200Y-186528628D02*
X201720057Y-186528628D01*
X202077200Y-185385771D02*
X202077200Y-186885771D01*
X202077200Y-185457200D02*
X202220057Y-185385771D01*
X202505771Y-185385771D01*
X202648628Y-185457200D01*
X202720057Y-185528628D01*
X202791485Y-185671485D01*
X202791485Y-186100057D01*
X202720057Y-186242914D01*
X202648628Y-186314342D01*
X202505771Y-186385771D01*
X202220057Y-186385771D01*
X202077200Y-186314342D01*
X204077200Y-186314342D02*
X203934342Y-186385771D01*
X203648628Y-186385771D01*
X203505771Y-186314342D01*
X203434342Y-186242914D01*
X203362914Y-186100057D01*
X203362914Y-185671485D01*
X203434342Y-185528628D01*
X203505771Y-185457200D01*
X203648628Y-185385771D01*
X203934342Y-185385771D01*
X204077200Y-185457200D01*
X204720057Y-186385771D02*
X204720057Y-184885771D01*
X204720057Y-185457200D02*
X204862914Y-185385771D01*
X205148628Y-185385771D01*
X205291485Y-185457200D01*
X205362914Y-185528628D01*
X205434342Y-185671485D01*
X205434342Y-186100057D01*
X205362914Y-186242914D01*
X205291485Y-186314342D01*
X205148628Y-186385771D01*
X204862914Y-186385771D01*
X204720057Y-186314342D01*
D10*
D11*
X177002200Y-181507200D02*
X285002200Y-181507200D01*
D10*
D11*
X178362914Y-183614342D02*
X178577200Y-183685771D01*
X178934342Y-183685771D01*
X179077200Y-183614342D01*
X179148628Y-183542914D01*
X179220057Y-183400057D01*
X179220057Y-183257200D01*
X179148628Y-183114342D01*
X179077200Y-183042914D01*
X178934342Y-182971485D01*
X178648628Y-182900057D01*
X178505771Y-182828628D01*
X178434342Y-182757200D01*
X178362914Y-182614342D01*
X178362914Y-182471485D01*
X178434342Y-182328628D01*
X178505771Y-182257200D01*
X178648628Y-182185771D01*
X179005771Y-182185771D01*
X179220057Y-182257200D01*
X179862914Y-183685771D02*
X179862914Y-182185771D01*
X180505771Y-183685771D02*
X180505771Y-182900057D01*
X180434342Y-182757200D01*
X180291485Y-182685771D01*
X180077200Y-182685771D01*
X179934342Y-182757200D01*
X179862914Y-182828628D01*
X181791485Y-183614342D02*
X181648628Y-183685771D01*
X181362914Y-183685771D01*
X181220057Y-183614342D01*
X181148628Y-183471485D01*
X181148628Y-182900057D01*
X181220057Y-182757200D01*
X181362914Y-182685771D01*
X181648628Y-182685771D01*
X181791485Y-182757200D01*
X181862914Y-182900057D01*
X181862914Y-183042914D01*
X181148628Y-183185771D01*
X183077200Y-183614342D02*
X182934342Y-183685771D01*
X182648628Y-183685771D01*
X182505771Y-183614342D01*
X182434342Y-183471485D01*
X182434342Y-182900057D01*
X182505771Y-182757200D01*
X182648628Y-182685771D01*
X182934342Y-182685771D01*
X183077200Y-182757200D01*
X183148628Y-182900057D01*
X183148628Y-183042914D01*
X182434342Y-183185771D01*
X183577200Y-182685771D02*
X184148628Y-182685771D01*
X183791485Y-182185771D02*
X183791485Y-183471485D01*
X183862914Y-183614342D01*
X184005771Y-183685771D01*
X184148628Y-183685771D01*
X184648628Y-183542914D02*
X184720057Y-183614342D01*
X184648628Y-183685771D01*
X184577200Y-183614342D01*
X184648628Y-183542914D01*
X184648628Y-183685771D01*
X184648628Y-182757200D02*
X184720057Y-182828628D01*
X184648628Y-182900057D01*
X184577200Y-182828628D01*
X184648628Y-182757200D01*
X184648628Y-182900057D01*
D10*
D12*
X179411485Y-180542914D02*
X179340057Y-180614342D01*
X179125771Y-180685771D01*
X178982914Y-180685771D01*
X178768628Y-180614342D01*
X178625771Y-180471485D01*
X178554342Y-180328628D01*
X178482914Y-180042914D01*
X178482914Y-179828628D01*
X178554342Y-179542914D01*
X178625771Y-179400057D01*
X178768628Y-179257200D01*
X178982914Y-179185771D01*
X179125771Y-179185771D01*
X179340057Y-179257200D01*
X179411485Y-179328628D01*
X180697200Y-180685771D02*
X180697200Y-179900057D01*
X180625771Y-179757200D01*
X180482914Y-179685771D01*
X180197200Y-179685771D01*
X180054342Y-179757200D01*
X180697200Y-180614342D02*
X180554342Y-180685771D01*
X180197200Y-180685771D01*
X180054342Y-180614342D01*
X179982914Y-180471485D01*
X179982914Y-180328628D01*
X180054342Y-180185771D01*
X180197200Y-180114342D01*
X180554342Y-180114342D01*
X180697200Y-180042914D01*
X181625771Y-180685771D02*
X181482914Y-180614342D01*
X181411485Y-180471485D01*
X181411485Y-179185771D01*
X182197200Y-180685771D02*
X182197200Y-179685771D01*
X182197200Y-179185771D02*
X182125771Y-179257200D01*
X182197200Y-179328628D01*
X182268628Y-179257200D01*
X182197200Y-179185771D01*
X182197200Y-179328628D01*
X182697200Y-179685771D02*
X183268628Y-179685771D01*
X182911485Y-180685771D02*
X182911485Y-179400057D01*
X182982914Y-179257200D01*
X183125771Y-179185771D01*
X183268628Y-179185771D01*
X183982914Y-180685771D02*
X183840057Y-180614342D01*
X183768628Y-180542914D01*
X183697200Y-180400057D01*
X183697200Y-179971485D01*
X183768628Y-179828628D01*
X183840057Y-179757200D01*
X183982914Y-179685771D01*
X184197200Y-179685771D01*
X184340057Y-179757200D01*
X184411485Y-179828628D01*
X184482914Y-179971485D01*
X184482914Y-180400057D01*
X184411485Y-180542914D01*
X184340057Y-180614342D01*
X184197200Y-180685771D01*
X183982914Y-180685771D01*
X185125771Y-180685771D02*
X185125771Y-179685771D01*
X185125771Y-179971485D02*
X185197200Y-179828628D01*
X185268628Y-179757200D01*
X185411485Y-179685771D01*
X185554342Y-179685771D01*
X186054342Y-179685771D02*
X186054342Y-180685771D01*
X186054342Y-179828628D02*
X186125771Y-179757200D01*
X186268628Y-179685771D01*
X186482914Y-179685771D01*
X186625771Y-179757200D01*
X186697200Y-179900057D01*
X186697200Y-180685771D01*
X187411485Y-180685771D02*
X187411485Y-179685771D01*
X187411485Y-179185771D02*
X187340057Y-179257200D01*
X187411485Y-179328628D01*
X187482914Y-179257200D01*
X187411485Y-179185771D01*
X187411485Y-179328628D01*
X188768628Y-180685771D02*
X188768628Y-179900057D01*
X188697200Y-179757200D01*
X188554342Y-179685771D01*
X188268628Y-179685771D01*
X188125771Y-179757200D01*
X188768628Y-180614342D02*
X188625771Y-180685771D01*
X188268628Y-180685771D01*
X188125771Y-180614342D01*
X188054342Y-180471485D01*
X188054342Y-180328628D01*
X188125771Y-180185771D01*
X188268628Y-180114342D01*
X188625771Y-180114342D01*
X188768628Y-180042914D01*
X190554342Y-180614342D02*
X190768628Y-180685771D01*
X191125771Y-180685771D01*
X191268628Y-180614342D01*
X191340057Y-180542914D01*
X191411485Y-180400057D01*
X191411485Y-180257200D01*
X191340057Y-180114342D01*
X191268628Y-180042914D01*
X191125771Y-179971485D01*
X190840057Y-179900057D01*
X190697200Y-179828628D01*
X190625771Y-179757200D01*
X190554342Y-179614342D01*
X190554342Y-179471485D01*
X190625771Y-179328628D01*
X190697200Y-179257200D01*
X190840057Y-179185771D01*
X191197200Y-179185771D01*
X191411485Y-179257200D01*
X191840057Y-179685771D02*
X192411485Y-179685771D01*
X192054342Y-179185771D02*
X192054342Y-180471485D01*
X192125771Y-180614342D01*
X192268628Y-180685771D01*
X192411485Y-180685771D01*
X193554342Y-180685771D02*
X193554342Y-179900057D01*
X193482914Y-179757200D01*
X193340057Y-179685771D01*
X193054342Y-179685771D01*
X192911485Y-179757200D01*
X193554342Y-180614342D02*
X193411485Y-180685771D01*
X193054342Y-180685771D01*
X192911485Y-180614342D01*
X192840057Y-180471485D01*
X192840057Y-180328628D01*
X192911485Y-180185771D01*
X193054342Y-180114342D01*
X193411485Y-180114342D01*
X193554342Y-180042914D01*
X194054342Y-179685771D02*
X194625771Y-179685771D01*
X194268628Y-179185771D02*
X194268628Y-180471485D01*
X194340057Y-180614342D01*
X194482914Y-180685771D01*
X194625771Y-180685771D01*
X195697200Y-180614342D02*
X195554342Y-180685771D01*
X195268628Y-180685771D01*
X195125771Y-180614342D01*
X195054342Y-180471485D01*
X195054342Y-179900057D01*
X195125771Y-179757200D01*
X195268628Y-179685771D01*
X195554342Y-179685771D01*
X195697200Y-179757200D01*
X195768628Y-179900057D01*
X195768628Y-180042914D01*
X195054342Y-180185771D01*
X197554342Y-179185771D02*
X197554342Y-180400057D01*
X197625771Y-180542914D01*
X197697200Y-180614342D01*
X197840057Y-180685771D01*
X198125771Y-180685771D01*
X198268628Y-180614342D01*
X198340057Y-180542914D01*
X198411485Y-180400057D01*
X198411485Y-179185771D01*
X199125771Y-179685771D02*
X199125771Y-180685771D01*
X199125771Y-179828628D02*
X199197200Y-179757200D01*
X199340057Y-179685771D01*
X199554342Y-179685771D01*
X199697200Y-179757200D01*
X199768628Y-179900057D01*
X199768628Y-180685771D01*
X200482914Y-180685771D02*
X200482914Y-179685771D01*
X200482914Y-179185771D02*
X200411485Y-179257200D01*
X200482914Y-179328628D01*
X200554342Y-179257200D01*
X200482914Y-179185771D01*
X200482914Y-179328628D01*
X201054342Y-179685771D02*
X201411485Y-180685771D01*
X201768628Y-179685771D01*
X202911485Y-180614342D02*
X202768628Y-180685771D01*
X202482914Y-180685771D01*
X202340057Y-180614342D01*
X202268628Y-180471485D01*
X202268628Y-179900057D01*
X202340057Y-179757200D01*
X202482914Y-179685771D01*
X202768628Y-179685771D01*
X202911485Y-179757200D01*
X202982914Y-179900057D01*
X202982914Y-180042914D01*
X202268628Y-180185771D01*
X203625771Y-180685771D02*
X203625771Y-179685771D01*
X203625771Y-179971485D02*
X203697200Y-179828628D01*
X203768628Y-179757200D01*
X203911485Y-179685771D01*
X204054342Y-179685771D01*
X204482914Y-180614342D02*
X204625771Y-180685771D01*
X204911485Y-180685771D01*
X205054342Y-180614342D01*
X205125771Y-180471485D01*
X205125771Y-180400057D01*
X205054342Y-180257200D01*
X204911485Y-180185771D01*
X204697200Y-180185771D01*
X204554342Y-180114342D01*
X204482914Y-179971485D01*
X204482914Y-179900057D01*
X204554342Y-179757200D01*
X204697200Y-179685771D01*
X204911485Y-179685771D01*
X205054342Y-179757200D01*
X205768628Y-180685771D02*
X205768628Y-179685771D01*
X205768628Y-179185771D02*
X205697200Y-179257200D01*
X205768628Y-179328628D01*
X205840057Y-179257200D01*
X205768628Y-179185771D01*
X205768628Y-179328628D01*
X206268628Y-179685771D02*
X206840057Y-179685771D01*
X206482914Y-179185771D02*
X206482914Y-180471485D01*
X206554342Y-180614342D01*
X206697200Y-180685771D01*
X206840057Y-180685771D01*
X207197200Y-179685771D02*
X207554342Y-180685771D01*
X207911485Y-179685771D02*
X207554342Y-180685771D01*
X207411485Y-181042914D01*
X207340057Y-181114342D01*
X207197200Y-181185771D01*
X209625771Y-180685771D02*
X209625771Y-179185771D01*
X210482914Y-180685771D01*
X210482914Y-179185771D01*
X211411485Y-180685771D02*
X211268628Y-180614342D01*
X211197200Y-180542914D01*
X211125771Y-180400057D01*
X211125771Y-179971485D01*
X211197200Y-179828628D01*
X211268628Y-179757200D01*
X211411485Y-179685771D01*
X211625771Y-179685771D01*
X211768628Y-179757200D01*
X211840057Y-179828628D01*
X211911485Y-179971485D01*
X211911485Y-180400057D01*
X211840057Y-180542914D01*
X211768628Y-180614342D01*
X211625771Y-180685771D01*
X211411485Y-180685771D01*
X212554342Y-180685771D02*
X212554342Y-179685771D01*
X212554342Y-179971485D02*
X212625771Y-179828628D01*
X212697200Y-179757200D01*
X212840057Y-179685771D01*
X212982914Y-179685771D01*
X213268628Y-179685771D02*
X213840057Y-179685771D01*
X213482914Y-179185771D02*
X213482914Y-180471485D01*
X213554342Y-180614342D01*
X213697200Y-180685771D01*
X213840057Y-180685771D01*
X214340057Y-180685771D02*
X214340057Y-179185771D01*
X214982914Y-180685771D02*
X214982914Y-179900057D01*
X214911485Y-179757200D01*
X214768628Y-179685771D01*
X214554342Y-179685771D01*
X214411485Y-179757200D01*
X214340057Y-179828628D01*
X215697200Y-180685771D02*
X215697200Y-179685771D01*
X215697200Y-179971485D02*
X215768628Y-179828628D01*
X215840057Y-179757200D01*
X215982914Y-179685771D01*
X216125771Y-179685771D01*
X216625771Y-180685771D02*
X216625771Y-179685771D01*
X216625771Y-179185771D02*
X216554342Y-179257200D01*
X216625771Y-179328628D01*
X216697200Y-179257200D01*
X216625771Y-179185771D01*
X216625771Y-179328628D01*
X217982914Y-180685771D02*
X217982914Y-179185771D01*
X217982914Y-180614342D02*
X217840057Y-180685771D01*
X217554342Y-180685771D01*
X217411485Y-180614342D01*
X217340057Y-180542914D01*
X217268628Y-180400057D01*
X217268628Y-179971485D01*
X217340057Y-179828628D01*
X217411485Y-179757200D01*
X217554342Y-179685771D01*
X217840057Y-179685771D01*
X217982914Y-179757200D01*
X219340057Y-179685771D02*
X219340057Y-180900057D01*
X219268628Y-181042914D01*
X219197200Y-181114342D01*
X219054342Y-181185771D01*
X218840057Y-181185771D01*
X218697200Y-181114342D01*
X219340057Y-180614342D02*
X219197200Y-180685771D01*
X218911485Y-180685771D01*
X218768628Y-180614342D01*
X218697200Y-180542914D01*
X218625771Y-180400057D01*
X218625771Y-179971485D01*
X218697200Y-179828628D01*
X218768628Y-179757200D01*
X218911485Y-179685771D01*
X219197200Y-179685771D01*
X219340057Y-179757200D01*
X220625771Y-180614342D02*
X220482914Y-180685771D01*
X220197200Y-180685771D01*
X220054342Y-180614342D01*
X219982914Y-180471485D01*
X219982914Y-179900057D01*
X220054342Y-179757200D01*
X220197200Y-179685771D01*
X220482914Y-179685771D01*
X220625771Y-179757200D01*
X220697200Y-179900057D01*
X220697200Y-180042914D01*
X219982914Y-180185771D01*
D10*
D11*
X178362914Y-177257200D02*
X179077200Y-177257200D01*
X178220057Y-177685771D02*
X178720057Y-176185771D01*
X179220057Y-177685771D01*
X179720057Y-177685771D02*
X179720057Y-176185771D01*
X179720057Y-176757200D02*
X179862914Y-176685771D01*
X180148628Y-176685771D01*
X180291485Y-176757200D01*
X180362914Y-176828628D01*
X180434342Y-176971485D01*
X180434342Y-177400057D01*
X180362914Y-177542914D01*
X180291485Y-177614342D01*
X180148628Y-177685771D01*
X179862914Y-177685771D01*
X179720057Y-177614342D01*
X181720057Y-177685771D02*
X181720057Y-176185771D01*
X181720057Y-177614342D02*
X181577200Y-177685771D01*
X181291485Y-177685771D01*
X181148628Y-177614342D01*
X181077200Y-177542914D01*
X181005771Y-177400057D01*
X181005771Y-176971485D01*
X181077200Y-176828628D01*
X181148628Y-176757200D01*
X181291485Y-176685771D01*
X181577200Y-176685771D01*
X181720057Y-176757200D01*
X183077200Y-176685771D02*
X183077200Y-177685771D01*
X182434342Y-176685771D02*
X182434342Y-177471485D01*
X182505771Y-177614342D01*
X182648628Y-177685771D01*
X182862914Y-177685771D01*
X183005771Y-177614342D01*
X183077200Y-177542914D01*
X184005771Y-177685771D02*
X183862914Y-177614342D01*
X183791485Y-177471485D01*
X183791485Y-176185771D01*
X184791485Y-177685771D02*
X184648628Y-177614342D01*
X184577200Y-177471485D01*
X184577200Y-176185771D01*
X186005771Y-177685771D02*
X186005771Y-176900057D01*
X185934342Y-176757200D01*
X185791485Y-176685771D01*
X185505771Y-176685771D01*
X185362914Y-176757200D01*
X186005771Y-177614342D02*
X185862914Y-177685771D01*
X185505771Y-177685771D01*
X185362914Y-177614342D01*
X185291485Y-177471485D01*
X185291485Y-177328628D01*
X185362914Y-177185771D01*
X185505771Y-177114342D01*
X185862914Y-177114342D01*
X186005771Y-177042914D01*
X186720057Y-177685771D02*
X186720057Y-176185771D01*
X187362914Y-177685771D02*
X187362914Y-176900057D01*
X187291485Y-176757200D01*
X187148628Y-176685771D01*
X186934342Y-176685771D01*
X186791485Y-176757200D01*
X186720057Y-176828628D01*
X189220057Y-177685771D02*
X189220057Y-176185771D01*
X189220057Y-176900057D02*
X190077200Y-176900057D01*
X190077200Y-177685771D02*
X190077200Y-176185771D01*
X191362914Y-177614342D02*
X191220057Y-177685771D01*
X190934342Y-177685771D01*
X190791485Y-177614342D01*
X190720057Y-177471485D01*
X190720057Y-176900057D01*
X190791485Y-176757200D01*
X190934342Y-176685771D01*
X191220057Y-176685771D01*
X191362914Y-176757200D01*
X191434342Y-176900057D01*
X191434342Y-177042914D01*
X190720057Y-177185771D01*
X192077200Y-176685771D02*
X192077200Y-177685771D01*
X192077200Y-176828628D02*
X192148628Y-176757200D01*
X192291485Y-176685771D01*
X192505771Y-176685771D01*
X192648628Y-176757200D01*
X192720057Y-176900057D01*
X192720057Y-177685771D01*
X194077200Y-177685771D02*
X194077200Y-176185771D01*
X194077200Y-177614342D02*
X193934342Y-177685771D01*
X193648628Y-177685771D01*
X193505771Y-177614342D01*
X193434342Y-177542914D01*
X193362914Y-177400057D01*
X193362914Y-176971485D01*
X193434342Y-176828628D01*
X193505771Y-176757200D01*
X193648628Y-176685771D01*
X193934342Y-176685771D01*
X194077200Y-176757200D01*
X194648628Y-176685771D02*
X195005771Y-177685771D01*
X195362914Y-176685771D02*
X195005771Y-177685771D01*
X194862914Y-178042914D01*
X194791485Y-178114342D01*
X194648628Y-178185771D01*
D10*
D11*
D10*
D11*
D10*
D11*
D10*
D11*
X197002200Y-191507200D02*
X197002200Y-194507200D01*
D10*
D11*
X261002200Y-191507200D02*
X261002200Y-198007200D01*
%TO.C,J3*%
X142666666Y-75152380D02*
X142666666Y-75866666D01*
X142619047Y-76009523D01*
X142523809Y-76104761D01*
X142380952Y-76152380D01*
X142285714Y-76152380D01*
X143047619Y-75152380D02*
X143666666Y-75152380D01*
X143333333Y-75533333D01*
X143476190Y-75533333D01*
X143571428Y-75580952D01*
X143619047Y-75628571D01*
X143666666Y-75723809D01*
X143666666Y-75961904D01*
X143619047Y-76057142D01*
X143571428Y-76104761D01*
X143476190Y-76152380D01*
X143190476Y-76152380D01*
X143095238Y-76104761D01*
X143047619Y-76057142D01*
%TO.C,R2*%
X176033333Y-85052380D02*
X175700000Y-84576190D01*
X175461904Y-85052380D02*
X175461904Y-84052380D01*
X175842857Y-84052380D01*
X175938095Y-84100000D01*
X175985714Y-84147619D01*
X176033333Y-84242857D01*
X176033333Y-84385714D01*
X175985714Y-84480952D01*
X175938095Y-84528571D01*
X175842857Y-84576190D01*
X175461904Y-84576190D01*
X176414285Y-84147619D02*
X176461904Y-84100000D01*
X176557142Y-84052380D01*
X176795238Y-84052380D01*
X176890476Y-84100000D01*
X176938095Y-84147619D01*
X176985714Y-84242857D01*
X176985714Y-84338095D01*
X176938095Y-84480952D01*
X176366666Y-85052380D01*
X176985714Y-85052380D01*
%TO.C,FB1*%
X173866666Y-97628571D02*
X173533333Y-97628571D01*
X173533333Y-98152380D02*
X173533333Y-97152380D01*
X174009523Y-97152380D01*
X174723809Y-97628571D02*
X174866666Y-97676190D01*
X174914285Y-97723809D01*
X174961904Y-97819047D01*
X174961904Y-97961904D01*
X174914285Y-98057142D01*
X174866666Y-98104761D01*
X174771428Y-98152380D01*
X174390476Y-98152380D01*
X174390476Y-97152380D01*
X174723809Y-97152380D01*
X174819047Y-97200000D01*
X174866666Y-97247619D01*
X174914285Y-97342857D01*
X174914285Y-97438095D01*
X174866666Y-97533333D01*
X174819047Y-97580952D01*
X174723809Y-97628571D01*
X174390476Y-97628571D01*
X175914285Y-98152380D02*
X175342857Y-98152380D01*
X175628571Y-98152380D02*
X175628571Y-97152380D01*
X175533333Y-97295238D01*
X175438095Y-97390476D01*
X175342857Y-97438095D01*
%TO.C,U1*%
X192452380Y-92761904D02*
X193261904Y-92761904D01*
X193357142Y-92714285D01*
X193404761Y-92666666D01*
X193452380Y-92571428D01*
X193452380Y-92380952D01*
X193404761Y-92285714D01*
X193357142Y-92238095D01*
X193261904Y-92190476D01*
X192452380Y-92190476D01*
X193452380Y-91190476D02*
X193452380Y-91761904D01*
X193452380Y-91476190D02*
X192452380Y-91476190D01*
X192595238Y-91571428D01*
X192690476Y-91666666D01*
X192738095Y-91761904D01*
%TO.C,R3*%
X183833333Y-85052380D02*
X183500000Y-84576190D01*
X183261904Y-85052380D02*
X183261904Y-84052380D01*
X183642857Y-84052380D01*
X183738095Y-84100000D01*
X183785714Y-84147619D01*
X183833333Y-84242857D01*
X183833333Y-84385714D01*
X183785714Y-84480952D01*
X183738095Y-84528571D01*
X183642857Y-84576190D01*
X183261904Y-84576190D01*
X184166666Y-84052380D02*
X184785714Y-84052380D01*
X184452380Y-84433333D01*
X184595238Y-84433333D01*
X184690476Y-84480952D01*
X184738095Y-84528571D01*
X184785714Y-84623809D01*
X184785714Y-84861904D01*
X184738095Y-84957142D01*
X184690476Y-85004761D01*
X184595238Y-85052380D01*
X184309523Y-85052380D01*
X184214285Y-85004761D01*
X184166666Y-84957142D01*
%TO.C,C6*%
X134333333Y-106357142D02*
X134285714Y-106404761D01*
X134142857Y-106452380D01*
X134047619Y-106452380D01*
X133904761Y-106404761D01*
X133809523Y-106309523D01*
X133761904Y-106214285D01*
X133714285Y-106023809D01*
X133714285Y-105880952D01*
X133761904Y-105690476D01*
X133809523Y-105595238D01*
X133904761Y-105500000D01*
X134047619Y-105452380D01*
X134142857Y-105452380D01*
X134285714Y-105500000D01*
X134333333Y-105547619D01*
X135190476Y-105452380D02*
X135000000Y-105452380D01*
X134904761Y-105500000D01*
X134857142Y-105547619D01*
X134761904Y-105690476D01*
X134714285Y-105880952D01*
X134714285Y-106261904D01*
X134761904Y-106357142D01*
X134809523Y-106404761D01*
X134904761Y-106452380D01*
X135095238Y-106452380D01*
X135190476Y-106404761D01*
X135238095Y-106357142D01*
X135285714Y-106261904D01*
X135285714Y-106023809D01*
X135238095Y-105928571D01*
X135190476Y-105880952D01*
X135095238Y-105833333D01*
X134904761Y-105833333D01*
X134809523Y-105880952D01*
X134761904Y-105928571D01*
X134714285Y-106023809D01*
%TO.C,TP1*%
X164238095Y-105452380D02*
X164809523Y-105452380D01*
X164523809Y-106452380D02*
X164523809Y-105452380D01*
X165142857Y-106452380D02*
X165142857Y-105452380D01*
X165523809Y-105452380D01*
X165619047Y-105500000D01*
X165666666Y-105547619D01*
X165714285Y-105642857D01*
X165714285Y-105785714D01*
X165666666Y-105880952D01*
X165619047Y-105928571D01*
X165523809Y-105976190D01*
X165142857Y-105976190D01*
X166666666Y-106452380D02*
X166095238Y-106452380D01*
X166380952Y-106452380D02*
X166380952Y-105452380D01*
X166285714Y-105595238D01*
X166190476Y-105690476D01*
X166095238Y-105738095D01*
%TO.C,H4*%
X198213095Y-72952380D02*
X198213095Y-71952380D01*
X198213095Y-72428571D02*
X198784523Y-72428571D01*
X198784523Y-72952380D02*
X198784523Y-71952380D01*
X199689285Y-72285714D02*
X199689285Y-72952380D01*
X199451190Y-71904761D02*
X199213095Y-72619047D01*
X199832142Y-72619047D01*
%TO.C,H2*%
X133638095Y-114952380D02*
X133638095Y-113952380D01*
X133638095Y-114428571D02*
X134209523Y-114428571D01*
X134209523Y-114952380D02*
X134209523Y-113952380D01*
X134638095Y-114047619D02*
X134685714Y-114000000D01*
X134780952Y-113952380D01*
X135019047Y-113952380D01*
X135114285Y-114000000D01*
X135161904Y-114047619D01*
X135209523Y-114142857D01*
X135209523Y-114238095D01*
X135161904Y-114380952D01*
X134590476Y-114952380D01*
X135209523Y-114952380D01*
%TO.C,TP3*%
X131638095Y-78352380D02*
X132209523Y-78352380D01*
X131923809Y-79352380D02*
X131923809Y-78352380D01*
X132542857Y-79352380D02*
X132542857Y-78352380D01*
X132923809Y-78352380D01*
X133019047Y-78400000D01*
X133066666Y-78447619D01*
X133114285Y-78542857D01*
X133114285Y-78685714D01*
X133066666Y-78780952D01*
X133019047Y-78828571D01*
X132923809Y-78876190D01*
X132542857Y-78876190D01*
X133447619Y-78352380D02*
X134066666Y-78352380D01*
X133733333Y-78733333D01*
X133876190Y-78733333D01*
X133971428Y-78780952D01*
X134019047Y-78828571D01*
X134066666Y-78923809D01*
X134066666Y-79161904D01*
X134019047Y-79257142D01*
X133971428Y-79304761D01*
X133876190Y-79352380D01*
X133590476Y-79352380D01*
X133495238Y-79304761D01*
X133447619Y-79257142D01*
%TO.C,TP2*%
X131638095Y-90852380D02*
X132209523Y-90852380D01*
X131923809Y-91852380D02*
X131923809Y-90852380D01*
X132542857Y-91852380D02*
X132542857Y-90852380D01*
X132923809Y-90852380D01*
X133019047Y-90900000D01*
X133066666Y-90947619D01*
X133114285Y-91042857D01*
X133114285Y-91185714D01*
X133066666Y-91280952D01*
X133019047Y-91328571D01*
X132923809Y-91376190D01*
X132542857Y-91376190D01*
X133495238Y-90947619D02*
X133542857Y-90900000D01*
X133638095Y-90852380D01*
X133876190Y-90852380D01*
X133971428Y-90900000D01*
X134019047Y-90947619D01*
X134066666Y-91042857D01*
X134066666Y-91138095D01*
X134019047Y-91280952D01*
X133447619Y-91852380D01*
X134066666Y-91852380D01*
%TO.C,D1*%
X180961904Y-117792380D02*
X180961904Y-116792380D01*
X181200000Y-116792380D01*
X181342857Y-116840000D01*
X181438095Y-116935238D01*
X181485714Y-117030476D01*
X181533333Y-117220952D01*
X181533333Y-117363809D01*
X181485714Y-117554285D01*
X181438095Y-117649523D01*
X181342857Y-117744761D01*
X181200000Y-117792380D01*
X180961904Y-117792380D01*
X182485714Y-117792380D02*
X181914285Y-117792380D01*
X182200000Y-117792380D02*
X182200000Y-116792380D01*
X182104761Y-116935238D01*
X182009523Y-117030476D01*
X181914285Y-117078095D01*
%TO.C,C4*%
X168333333Y-89857142D02*
X168285714Y-89904761D01*
X168142857Y-89952380D01*
X168047619Y-89952380D01*
X167904761Y-89904761D01*
X167809523Y-89809523D01*
X167761904Y-89714285D01*
X167714285Y-89523809D01*
X167714285Y-89380952D01*
X167761904Y-89190476D01*
X167809523Y-89095238D01*
X167904761Y-89000000D01*
X168047619Y-88952380D01*
X168142857Y-88952380D01*
X168285714Y-89000000D01*
X168333333Y-89047619D01*
X169190476Y-89285714D02*
X169190476Y-89952380D01*
X168952380Y-88904761D02*
X168714285Y-89619047D01*
X169333333Y-89619047D01*
%TO.C,D3*%
X188761904Y-84952380D02*
X188761904Y-83952380D01*
X189000000Y-83952380D01*
X189142857Y-84000000D01*
X189238095Y-84095238D01*
X189285714Y-84190476D01*
X189333333Y-84380952D01*
X189333333Y-84523809D01*
X189285714Y-84714285D01*
X189238095Y-84809523D01*
X189142857Y-84904761D01*
X189000000Y-84952380D01*
X188761904Y-84952380D01*
X189666666Y-83952380D02*
X190285714Y-83952380D01*
X189952380Y-84333333D01*
X190095238Y-84333333D01*
X190190476Y-84380952D01*
X190238095Y-84428571D01*
X190285714Y-84523809D01*
X190285714Y-84761904D01*
X190238095Y-84857142D01*
X190190476Y-84904761D01*
X190095238Y-84952380D01*
X189809523Y-84952380D01*
X189714285Y-84904761D01*
X189666666Y-84857142D01*
%TO.C,J1*%
X193066590Y-108352256D02*
X193066590Y-109066704D01*
X193018960Y-109209594D01*
X192923700Y-109304854D01*
X192780811Y-109352484D01*
X192685551Y-109352484D01*
X194066818Y-109352484D02*
X193495259Y-109352484D01*
X193781039Y-109352484D02*
X193781039Y-108352256D01*
X193685779Y-108495145D01*
X193590519Y-108590405D01*
X193495259Y-108638035D01*
%TO.C,H1*%
X200238095Y-115252380D02*
X200238095Y-114252380D01*
X200238095Y-114728571D02*
X200809523Y-114728571D01*
X200809523Y-115252380D02*
X200809523Y-114252380D01*
X201809523Y-115252380D02*
X201238095Y-115252380D01*
X201523809Y-115252380D02*
X201523809Y-114252380D01*
X201428571Y-114395238D01*
X201333333Y-114490476D01*
X201238095Y-114538095D01*
%TO.C,C5*%
X137833333Y-86857142D02*
X137785714Y-86904761D01*
X137642857Y-86952380D01*
X137547619Y-86952380D01*
X137404761Y-86904761D01*
X137309523Y-86809523D01*
X137261904Y-86714285D01*
X137214285Y-86523809D01*
X137214285Y-86380952D01*
X137261904Y-86190476D01*
X137309523Y-86095238D01*
X137404761Y-86000000D01*
X137547619Y-85952380D01*
X137642857Y-85952380D01*
X137785714Y-86000000D01*
X137833333Y-86047619D01*
X138738095Y-85952380D02*
X138261904Y-85952380D01*
X138214285Y-86428571D01*
X138261904Y-86380952D01*
X138357142Y-86333333D01*
X138595238Y-86333333D01*
X138690476Y-86380952D01*
X138738095Y-86428571D01*
X138785714Y-86523809D01*
X138785714Y-86761904D01*
X138738095Y-86857142D01*
X138690476Y-86904761D01*
X138595238Y-86952380D01*
X138357142Y-86952380D01*
X138261904Y-86904761D01*
X138214285Y-86857142D01*
%TO.C,SW1*%
X173866666Y-106104761D02*
X174009523Y-106152380D01*
X174247619Y-106152380D01*
X174342857Y-106104761D01*
X174390476Y-106057142D01*
X174438095Y-105961904D01*
X174438095Y-105866666D01*
X174390476Y-105771428D01*
X174342857Y-105723809D01*
X174247619Y-105676190D01*
X174057142Y-105628571D01*
X173961904Y-105580952D01*
X173914285Y-105533333D01*
X173866666Y-105438095D01*
X173866666Y-105342857D01*
X173914285Y-105247619D01*
X173961904Y-105200000D01*
X174057142Y-105152380D01*
X174295238Y-105152380D01*
X174438095Y-105200000D01*
X174771428Y-105152380D02*
X175009523Y-106152380D01*
X175200000Y-105438095D01*
X175390476Y-106152380D01*
X175628571Y-105152380D01*
X176533333Y-106152380D02*
X175961904Y-106152380D01*
X176247619Y-106152380D02*
X176247619Y-105152380D01*
X176152380Y-105295238D01*
X176057142Y-105390476D01*
X175961904Y-105438095D01*
%TO.C,C1*%
X182333333Y-99357142D02*
X182285714Y-99404761D01*
X182142857Y-99452380D01*
X182047619Y-99452380D01*
X181904761Y-99404761D01*
X181809523Y-99309523D01*
X181761904Y-99214285D01*
X181714285Y-99023809D01*
X181714285Y-98880952D01*
X181761904Y-98690476D01*
X181809523Y-98595238D01*
X181904761Y-98500000D01*
X182047619Y-98452380D01*
X182142857Y-98452380D01*
X182285714Y-98500000D01*
X182333333Y-98547619D01*
X183285714Y-99452380D02*
X182714285Y-99452380D01*
X183000000Y-99452380D02*
X183000000Y-98452380D01*
X182904761Y-98595238D01*
X182809523Y-98690476D01*
X182714285Y-98738095D01*
%TO.C,D4*%
X179461904Y-84752380D02*
X179461904Y-83752380D01*
X179700000Y-83752380D01*
X179842857Y-83800000D01*
X179938095Y-83895238D01*
X179985714Y-83990476D01*
X180033333Y-84180952D01*
X180033333Y-84323809D01*
X179985714Y-84514285D01*
X179938095Y-84609523D01*
X179842857Y-84704761D01*
X179700000Y-84752380D01*
X179461904Y-84752380D01*
X180890476Y-84085714D02*
X180890476Y-84752380D01*
X180652380Y-83704761D02*
X180414285Y-84419047D01*
X181033333Y-84419047D01*
%TO.C,D2*%
X196761904Y-102952380D02*
X196761904Y-101952380D01*
X197000000Y-101952380D01*
X197142857Y-102000000D01*
X197238095Y-102095238D01*
X197285714Y-102190476D01*
X197333333Y-102380952D01*
X197333333Y-102523809D01*
X197285714Y-102714285D01*
X197238095Y-102809523D01*
X197142857Y-102904761D01*
X197000000Y-102952380D01*
X196761904Y-102952380D01*
X197714285Y-102047619D02*
X197761904Y-102000000D01*
X197857142Y-101952380D01*
X198095238Y-101952380D01*
X198190476Y-102000000D01*
X198238095Y-102047619D01*
X198285714Y-102142857D01*
X198285714Y-102238095D01*
X198238095Y-102380952D01*
X197666666Y-102952380D01*
X198285714Y-102952380D01*
%TO.C,U2*%
X139652380Y-96461904D02*
X140461904Y-96461904D01*
X140557142Y-96414285D01*
X140604761Y-96366666D01*
X140652380Y-96271428D01*
X140652380Y-96080952D01*
X140604761Y-95985714D01*
X140557142Y-95938095D01*
X140461904Y-95890476D01*
X139652380Y-95890476D01*
X139747619Y-95461904D02*
X139700000Y-95414285D01*
X139652380Y-95319047D01*
X139652380Y-95080952D01*
X139700000Y-94985714D01*
X139747619Y-94938095D01*
X139842857Y-94890476D01*
X139938095Y-94890476D01*
X140080952Y-94938095D01*
X140652380Y-95509523D01*
X140652380Y-94890476D01*
%TO.C,C3*%
X173333333Y-83857142D02*
X173285714Y-83904761D01*
X173142857Y-83952380D01*
X173047619Y-83952380D01*
X172904761Y-83904761D01*
X172809523Y-83809523D01*
X172761904Y-83714285D01*
X172714285Y-83523809D01*
X172714285Y-83380952D01*
X172761904Y-83190476D01*
X172809523Y-83095238D01*
X172904761Y-83000000D01*
X173047619Y-82952380D01*
X173142857Y-82952380D01*
X173285714Y-83000000D01*
X173333333Y-83047619D01*
X173666666Y-82952380D02*
X174285714Y-82952380D01*
X173952380Y-83333333D01*
X174095238Y-83333333D01*
X174190476Y-83380952D01*
X174238095Y-83428571D01*
X174285714Y-83523809D01*
X174285714Y-83761904D01*
X174238095Y-83857142D01*
X174190476Y-83904761D01*
X174095238Y-83952380D01*
X173809523Y-83952380D01*
X173714285Y-83904761D01*
X173666666Y-83857142D01*
%TO.C,H3*%
X135413095Y-73052380D02*
X135413095Y-72052380D01*
X135413095Y-72528571D02*
X135984523Y-72528571D01*
X135984523Y-73052380D02*
X135984523Y-72052380D01*
X136365476Y-72052380D02*
X136984523Y-72052380D01*
X136651190Y-72433333D01*
X136794047Y-72433333D01*
X136889285Y-72480952D01*
X136936904Y-72528571D01*
X136984523Y-72623809D01*
X136984523Y-72861904D01*
X136936904Y-72957142D01*
X136889285Y-73004761D01*
X136794047Y-73052380D01*
X136508333Y-73052380D01*
X136413095Y-73004761D01*
X136365476Y-72957142D01*
%TO.C,J2*%
X148932711Y-109532311D02*
X148932711Y-110533644D01*
X148865955Y-110733910D01*
X148732444Y-110867421D01*
X148532178Y-110934177D01*
X148398667Y-110934177D01*
X149533511Y-109665822D02*
X149600266Y-109599067D01*
X149733777Y-109532311D01*
X150067555Y-109532311D01*
X150201066Y-109599067D01*
X150267821Y-109665822D01*
X150334577Y-109799333D01*
X150334577Y-109932844D01*
X150267821Y-110133111D01*
X149466755Y-110934177D01*
X150334577Y-110934177D01*
%TO.C,R1*%
X185952380Y-108066666D02*
X185476190Y-108400000D01*
X185952380Y-108638095D02*
X184952380Y-108638095D01*
X184952380Y-108257142D01*
X185000000Y-108161904D01*
X185047619Y-108114285D01*
X185142857Y-108066666D01*
X185285714Y-108066666D01*
X185380952Y-108114285D01*
X185428571Y-108161904D01*
X185476190Y-108257142D01*
X185476190Y-108638095D01*
X185952380Y-107114285D02*
X185952380Y-107685714D01*
X185952380Y-107400000D02*
X184952380Y-107400000D01*
X185095238Y-107495238D01*
X185190476Y-107590476D01*
X185238095Y-107685714D01*
%TO.C,C8*%
X153833333Y-79257142D02*
X153785714Y-79304761D01*
X153642857Y-79352380D01*
X153547619Y-79352380D01*
X153404761Y-79304761D01*
X153309523Y-79209523D01*
X153261904Y-79114285D01*
X153214285Y-78923809D01*
X153214285Y-78780952D01*
X153261904Y-78590476D01*
X153309523Y-78495238D01*
X153404761Y-78400000D01*
X153547619Y-78352380D01*
X153642857Y-78352380D01*
X153785714Y-78400000D01*
X153833333Y-78447619D01*
X154404761Y-78780952D02*
X154309523Y-78733333D01*
X154261904Y-78685714D01*
X154214285Y-78590476D01*
X154214285Y-78542857D01*
X154261904Y-78447619D01*
X154309523Y-78400000D01*
X154404761Y-78352380D01*
X154595238Y-78352380D01*
X154690476Y-78400000D01*
X154738095Y-78447619D01*
X154785714Y-78542857D01*
X154785714Y-78590476D01*
X154738095Y-78685714D01*
X154690476Y-78733333D01*
X154595238Y-78780952D01*
X154404761Y-78780952D01*
X154309523Y-78828571D01*
X154261904Y-78876190D01*
X154214285Y-78971428D01*
X154214285Y-79161904D01*
X154261904Y-79257142D01*
X154309523Y-79304761D01*
X154404761Y-79352380D01*
X154595238Y-79352380D01*
X154690476Y-79304761D01*
X154738095Y-79257142D01*
X154785714Y-79161904D01*
X154785714Y-78971428D01*
X154738095Y-78876190D01*
X154690476Y-78828571D01*
X154595238Y-78780952D01*
%TO.C,RV1*%
X163744047Y-111574523D02*
X163320714Y-110969761D01*
X163018333Y-111574523D02*
X163018333Y-110304523D01*
X163502142Y-110304523D01*
X163623095Y-110365000D01*
X163683571Y-110425476D01*
X163744047Y-110546428D01*
X163744047Y-110727857D01*
X163683571Y-110848809D01*
X163623095Y-110909285D01*
X163502142Y-110969761D01*
X163018333Y-110969761D01*
X164106904Y-110304523D02*
X164530238Y-111574523D01*
X164953571Y-110304523D01*
X166042142Y-111574523D02*
X165316428Y-111574523D01*
X165679285Y-111574523D02*
X165679285Y-110304523D01*
X165558333Y-110485952D01*
X165437380Y-110606904D01*
X165316428Y-110667380D01*
%TO.C,C7*%
X162957142Y-93666666D02*
X163004761Y-93714285D01*
X163052380Y-93857142D01*
X163052380Y-93952380D01*
X163004761Y-94095238D01*
X162909523Y-94190476D01*
X162814285Y-94238095D01*
X162623809Y-94285714D01*
X162480952Y-94285714D01*
X162290476Y-94238095D01*
X162195238Y-94190476D01*
X162100000Y-94095238D01*
X162052380Y-93952380D01*
X162052380Y-93857142D01*
X162100000Y-93714285D01*
X162147619Y-93666666D01*
X162052380Y-93333333D02*
X162052380Y-92666666D01*
X163052380Y-93095238D01*
%TO.C,TP4*%
X131738095Y-98952380D02*
X132309523Y-98952380D01*
X132023809Y-99952380D02*
X132023809Y-98952380D01*
X132642857Y-99952380D02*
X132642857Y-98952380D01*
X133023809Y-98952380D01*
X133119047Y-99000000D01*
X133166666Y-99047619D01*
X133214285Y-99142857D01*
X133214285Y-99285714D01*
X133166666Y-99380952D01*
X133119047Y-99428571D01*
X133023809Y-99476190D01*
X132642857Y-99476190D01*
X134071428Y-99285714D02*
X134071428Y-99952380D01*
X133833333Y-98904761D02*
X133595238Y-99619047D01*
X134214285Y-99619047D01*
%TO.C,R4*%
X163333333Y-85082380D02*
X163000000Y-84606190D01*
X162761904Y-85082380D02*
X162761904Y-84082380D01*
X163142857Y-84082380D01*
X163238095Y-84130000D01*
X163285714Y-84177619D01*
X163333333Y-84272857D01*
X163333333Y-84415714D01*
X163285714Y-84510952D01*
X163238095Y-84558571D01*
X163142857Y-84606190D01*
X162761904Y-84606190D01*
X164190476Y-84415714D02*
X164190476Y-85082380D01*
X163952380Y-84034761D02*
X163714285Y-84749047D01*
X164333333Y-84749047D01*
%TO.C,C2*%
X190333333Y-79857142D02*
X190285714Y-79904761D01*
X190142857Y-79952380D01*
X190047619Y-79952380D01*
X189904761Y-79904761D01*
X189809523Y-79809523D01*
X189761904Y-79714285D01*
X189714285Y-79523809D01*
X189714285Y-79380952D01*
X189761904Y-79190476D01*
X189809523Y-79095238D01*
X189904761Y-79000000D01*
X190047619Y-78952380D01*
X190142857Y-78952380D01*
X190285714Y-79000000D01*
X190333333Y-79047619D01*
X190714285Y-79047619D02*
X190761904Y-79000000D01*
X190857142Y-78952380D01*
X191095238Y-78952380D01*
X191190476Y-79000000D01*
X191238095Y-79047619D01*
X191285714Y-79142857D01*
X191285714Y-79238095D01*
X191238095Y-79380952D01*
X190666666Y-79952380D01*
X191285714Y-79952380D01*
D14*
%TO.C,J3*%
X144623500Y-76672201D02*
X136876500Y-76672201D01*
X136876500Y-83327001D02*
X144623500Y-83327001D01*
X136876500Y-76672201D02*
X136876500Y-83327001D01*
X144623500Y-83327001D02*
X144623500Y-76672201D01*
X146782500Y-80000000D02*
G75*
G03*
X146782500Y-80000000I-381000J0D01*
G01*
%TO.C,R2*%
X177000000Y-95540000D02*
X177000000Y-94770000D01*
X175630000Y-94770000D02*
X178370000Y-94770000D01*
X178370000Y-94770000D02*
X178370000Y-88230000D01*
X178370000Y-88230000D02*
X175630000Y-88230000D01*
X175630000Y-88230000D02*
X175630000Y-94770000D01*
X177000000Y-87460000D02*
X177000000Y-88230000D01*
D15*
%TO.C,FB1*%
X178000000Y-101500000D02*
G75*
G03*
X178000000Y-101500000I-3000000J0D01*
G01*
D14*
%TO.C,U1*%
X199770000Y-97620000D02*
X195129000Y-97620000D01*
X199770000Y-87380000D02*
X195129000Y-87380000D01*
X191000000Y-100460000D02*
X202000000Y-100460000D01*
X191000000Y-86460000D02*
X200000000Y-86460000D01*
X200000000Y-86460000D02*
X200000000Y-98460000D01*
X199770000Y-90650000D02*
X198260000Y-90650000D01*
X198260000Y-87380000D02*
X198260000Y-97620000D01*
X200000000Y-98460000D02*
X191000000Y-98460000D01*
X202000000Y-100460000D02*
X202000000Y-84460000D01*
X202000000Y-84460000D02*
X191000000Y-84460000D01*
X199770000Y-94351000D02*
X198260000Y-94351000D01*
X199770000Y-87380000D02*
X199770000Y-97620000D01*
X191000000Y-98460000D02*
X191000000Y-100460000D01*
X195129000Y-87380000D02*
X195129000Y-97620000D01*
X191000000Y-84460000D02*
X191000000Y-86460000D01*
%TO.C,R3*%
X186370000Y-88230000D02*
X183630000Y-88230000D01*
X186370000Y-94770000D02*
X186370000Y-88230000D01*
X185000000Y-95540000D02*
X185000000Y-94770000D01*
X185000000Y-87460000D02*
X185000000Y-88230000D01*
X183630000Y-88230000D02*
X183630000Y-94770000D01*
X183630000Y-94770000D02*
X186370000Y-94770000D01*
%TO.C,C6*%
X137197888Y-111501000D02*
X136584888Y-111501000D01*
X137639888Y-111021000D02*
X136584888Y-111021000D01*
X134504888Y-110461000D02*
X133146888Y-110461000D01*
X137693888Y-110941000D02*
X136584888Y-110941000D01*
X134504888Y-109660000D02*
X132968888Y-109660000D01*
X136349888Y-111981000D02*
X134739888Y-111981000D01*
X138012888Y-110261000D02*
X136584888Y-110261000D01*
X134504888Y-109540000D02*
X132964888Y-109540000D01*
X134504888Y-109780000D02*
X132979888Y-109780000D01*
X134504888Y-110541000D02*
X133179888Y-110541000D01*
X137329888Y-111381000D02*
X136584888Y-111381000D01*
X134504888Y-111101000D02*
X133509888Y-111101000D01*
X137768888Y-110821000D02*
X136584888Y-110821000D01*
X134504888Y-111141000D02*
X133540888Y-111141000D01*
X137791888Y-110781000D02*
X136584888Y-110781000D01*
X134504888Y-110261000D02*
X133076888Y-110261000D01*
X134504888Y-110221000D02*
X133064888Y-110221000D01*
X137044888Y-111621000D02*
X134044888Y-111621000D01*
X134504888Y-110301000D02*
X133089888Y-110301000D01*
X134504888Y-109740000D02*
X132975888Y-109740000D01*
X134504888Y-110100000D02*
X133033888Y-110100000D01*
X134504888Y-109980000D02*
X133008888Y-109980000D01*
X134504888Y-110341000D02*
X133102888Y-110341000D01*
X138045888Y-110140000D02*
X136584888Y-110140000D01*
X138080888Y-109980000D02*
X136584888Y-109980000D01*
X137287888Y-111421000D02*
X136584888Y-111421000D01*
X134504888Y-110781000D02*
X133297888Y-110781000D01*
X134504888Y-111421000D02*
X133801888Y-111421000D01*
X134504888Y-110661000D02*
X133234888Y-110661000D01*
X134504888Y-109500000D02*
X132964888Y-109500000D01*
X136722888Y-111821000D02*
X134366888Y-111821000D01*
X134504888Y-110981000D02*
X133422888Y-110981000D01*
X134504888Y-110501000D02*
X133162888Y-110501000D01*
X134504888Y-110140000D02*
X133043888Y-110140000D01*
X134504888Y-109940000D02*
X133001888Y-109940000D01*
X136221888Y-112021000D02*
X134867888Y-112021000D01*
X137481888Y-111221000D02*
X136584888Y-111221000D01*
X134504888Y-110621000D02*
X133215888Y-110621000D01*
X136642888Y-111861000D02*
X134446888Y-111861000D01*
X138087888Y-109940000D02*
X136584888Y-109940000D01*
X138064888Y-110060000D02*
X136584888Y-110060000D01*
X134504888Y-110861000D02*
X133344888Y-110861000D01*
X136987888Y-111661000D02*
X134101888Y-111661000D01*
X134504888Y-110381000D02*
X133116888Y-110381000D01*
X138055888Y-110100000D02*
X136584888Y-110100000D01*
X137942888Y-110461000D02*
X136584888Y-110461000D01*
X134504888Y-109820000D02*
X132983888Y-109820000D01*
X134504888Y-111461000D02*
X133845888Y-111461000D01*
X134504888Y-110901000D02*
X133369888Y-110901000D01*
X137958888Y-110421000D02*
X136584888Y-110421000D01*
X137892888Y-110581000D02*
X136584888Y-110581000D01*
X138120888Y-109660000D02*
X136584888Y-109660000D01*
X138123888Y-109580000D02*
X136584888Y-109580000D01*
X137515888Y-111181000D02*
X136584888Y-111181000D01*
X134504888Y-110941000D02*
X133395888Y-110941000D01*
X136459888Y-111941000D02*
X134629888Y-111941000D01*
X134504888Y-109700000D02*
X132971888Y-109700000D01*
X138024888Y-110221000D02*
X136584888Y-110221000D01*
X134504888Y-111181000D02*
X133573888Y-111181000D01*
X137370888Y-111341000D02*
X136584888Y-111341000D01*
X134504888Y-110581000D02*
X133196888Y-110581000D01*
X134504888Y-109580000D02*
X132965888Y-109580000D01*
X138094888Y-109900000D02*
X136584888Y-109900000D01*
X138124888Y-109540000D02*
X136584888Y-109540000D01*
X134504888Y-111221000D02*
X133607888Y-111221000D01*
X136795888Y-111781000D02*
X134293888Y-111781000D01*
X134504888Y-109860000D02*
X132988888Y-109860000D01*
X137666888Y-110981000D02*
X136584888Y-110981000D01*
X134504888Y-109900000D02*
X132994888Y-109900000D01*
X137999888Y-110301000D02*
X136584888Y-110301000D01*
X137579888Y-111101000D02*
X136584888Y-111101000D01*
X136927888Y-111701000D02*
X134161888Y-111701000D01*
X134504888Y-111341000D02*
X133718888Y-111341000D01*
X138124888Y-109500000D02*
X136584888Y-109500000D01*
X134504888Y-109620000D02*
X132966888Y-109620000D01*
X137445888Y-111261000D02*
X136584888Y-111261000D01*
X134504888Y-111381000D02*
X133759888Y-111381000D01*
X134504888Y-110421000D02*
X133130888Y-110421000D01*
X138122888Y-109620000D02*
X136584888Y-109620000D01*
X134504888Y-110741000D02*
X133276888Y-110741000D01*
X138109888Y-109780000D02*
X136584888Y-109780000D01*
X137719888Y-110901000D02*
X136584888Y-110901000D01*
X137812888Y-110741000D02*
X136584888Y-110741000D01*
X137548888Y-111141000D02*
X136584888Y-111141000D01*
X137609888Y-111061000D02*
X136584888Y-111061000D01*
X137972888Y-110381000D02*
X136584888Y-110381000D01*
X136863888Y-111741000D02*
X134225888Y-111741000D01*
X137834888Y-110701000D02*
X136584888Y-110701000D01*
X138072888Y-110020000D02*
X136584888Y-110020000D01*
X137854888Y-110661000D02*
X136584888Y-110661000D01*
X137986888Y-110341000D02*
X136584888Y-110341000D01*
X137269888Y-106945225D02*
X136769888Y-106945225D01*
X134504888Y-111021000D02*
X133449888Y-111021000D01*
X137744888Y-110861000D02*
X136584888Y-110861000D01*
X135828888Y-112101000D02*
X135260888Y-112101000D01*
X134504888Y-110060000D02*
X133024888Y-110060000D01*
X137926888Y-110501000D02*
X136584888Y-110501000D01*
X134504888Y-110020000D02*
X133016888Y-110020000D01*
X138105888Y-109820000D02*
X136584888Y-109820000D01*
X137019888Y-106695225D02*
X137019888Y-107195225D01*
X137149888Y-111541000D02*
X133939888Y-111541000D01*
X134504888Y-111061000D02*
X133479888Y-111061000D01*
X138100888Y-109860000D02*
X136584888Y-109860000D01*
X138035888Y-110180000D02*
X136584888Y-110180000D01*
X136062888Y-112061000D02*
X135026888Y-112061000D01*
X137873888Y-110621000D02*
X136584888Y-110621000D01*
X137408888Y-111301000D02*
X136584888Y-111301000D01*
X134504888Y-110701000D02*
X133254888Y-110701000D01*
X134504888Y-111261000D02*
X133643888Y-111261000D01*
X138117888Y-109700000D02*
X136584888Y-109700000D01*
X138113888Y-109740000D02*
X136584888Y-109740000D01*
X137243888Y-111461000D02*
X136584888Y-111461000D01*
X134504888Y-110180000D02*
X133053888Y-110180000D01*
X137909888Y-110541000D02*
X136584888Y-110541000D01*
X136555888Y-111901000D02*
X134533888Y-111901000D01*
X134504888Y-111501000D02*
X133891888Y-111501000D01*
X134504888Y-111301000D02*
X133680888Y-111301000D01*
X134504888Y-110821000D02*
X133320888Y-110821000D01*
X137098888Y-111581000D02*
X133990888Y-111581000D01*
X138164888Y-109500000D02*
G75*
G03*
X138164888Y-109500000I-2620000J0D01*
G01*
D11*
%TO.C,TP1*%
X168900000Y-108000000D02*
G75*
G03*
X168900000Y-108000000I-1400000J0D01*
G01*
%TO.C,TP3*%
X134300000Y-81400000D02*
G75*
G03*
X134300000Y-81400000I-1400000J0D01*
G01*
%TO.C,TP2*%
X134300000Y-93900000D02*
G75*
G03*
X134300000Y-93900000I-1400000J0D01*
G01*
D14*
%TO.C,D1*%
X184140000Y-120380000D02*
X184140000Y-120380000D01*
X181310000Y-120510000D02*
X181310000Y-124370000D01*
X184830000Y-120510000D02*
X184830000Y-121630000D01*
X181600000Y-120380000D02*
X181600000Y-120380000D01*
X181600000Y-120510000D02*
X181600000Y-120510000D01*
X184830000Y-121630000D02*
X184430000Y-121630000D01*
X184140000Y-120510000D02*
X184140000Y-120380000D01*
X184430000Y-120510000D02*
X184830000Y-120510000D01*
X184140000Y-120380000D02*
X184140000Y-120510000D01*
X184140000Y-120510000D02*
X184140000Y-120510000D01*
X184430000Y-121630000D02*
X184430000Y-120510000D01*
X181310000Y-120510000D02*
X184430000Y-120510000D01*
X181600000Y-120510000D02*
X181600000Y-120380000D01*
X181600000Y-120380000D02*
X181600000Y-120510000D01*
X184430000Y-120510000D02*
X184430000Y-124370000D01*
X181310000Y-124370000D02*
G75*
G03*
X184430000Y-124370000I1560000J0D01*
G01*
%TO.C,C4*%
X174175000Y-93667621D02*
X172040000Y-93667621D01*
X174182000Y-93627621D02*
X172040000Y-93627621D01*
X169960000Y-95348621D02*
X168695000Y-95348621D01*
X172834000Y-95748621D02*
X169166000Y-95748621D01*
X171940000Y-96188621D02*
X170060000Y-96188621D01*
X173834000Y-94628621D02*
X172040000Y-94628621D01*
X169960000Y-93868621D02*
X167869000Y-93868621D01*
X174167000Y-93707621D02*
X172040000Y-93707621D01*
X173856000Y-94588621D02*
X172040000Y-94588621D01*
X169960000Y-94628621D02*
X168166000Y-94628621D01*
X169960000Y-95108621D02*
X168484000Y-95108621D01*
X174002000Y-94268621D02*
X172040000Y-94268621D01*
X169960000Y-94388621D02*
X168048000Y-94388621D01*
X169960000Y-94948621D02*
X168364000Y-94948621D01*
X169960000Y-94428621D02*
X168066000Y-94428621D01*
X173578000Y-95028621D02*
X172040000Y-95028621D01*
X169960000Y-94228621D02*
X167982000Y-94228621D01*
X169960000Y-94108621D02*
X167939000Y-94108621D01*
X169960000Y-93788621D02*
X167850000Y-93788621D01*
X174206000Y-93467621D02*
X172040000Y-93467621D01*
X173970000Y-94348621D02*
X172040000Y-94348621D01*
X173484000Y-95148621D02*
X172040000Y-95148621D01*
X169960000Y-93467621D02*
X167794000Y-93467621D01*
X174228000Y-93187621D02*
X167772000Y-93187621D01*
X169960000Y-93427621D02*
X167789000Y-93427621D01*
X169960000Y-93507621D02*
X167799000Y-93507621D01*
X174195000Y-93547621D02*
X172040000Y-93547621D01*
X169960000Y-94588621D02*
X168144000Y-94588621D01*
X174086000Y-94028621D02*
X172040000Y-94028621D01*
X173742000Y-94788621D02*
X172040000Y-94788621D01*
X174227000Y-93227621D02*
X167773000Y-93227621D01*
X173548000Y-95068621D02*
X172040000Y-95068621D01*
X173137000Y-95508621D02*
X168863000Y-95508621D01*
X174201000Y-93507621D02*
X172040000Y-93507621D01*
X174018000Y-94228621D02*
X172040000Y-94228621D01*
X173690000Y-94868621D02*
X172040000Y-94868621D01*
X173305000Y-95348621D02*
X172040000Y-95348621D01*
X173812000Y-94668621D02*
X172040000Y-94668621D01*
X172581000Y-95908621D02*
X169419000Y-95908621D01*
X169960000Y-93307621D02*
X167778000Y-93307621D01*
X172776000Y-95788621D02*
X169224000Y-95788621D01*
X169960000Y-93547621D02*
X167805000Y-93547621D01*
X169960000Y-94788621D02*
X168258000Y-94788621D01*
X169960000Y-93587621D02*
X167811000Y-93587621D01*
X173416000Y-95228621D02*
X172040000Y-95228621D01*
X173607000Y-94988621D02*
X172040000Y-94988621D01*
X169960000Y-93948621D02*
X167890000Y-93948621D01*
X172839000Y-89567380D02*
X172839000Y-90197380D01*
X169960000Y-94908621D02*
X168336000Y-94908621D01*
X169960000Y-93828621D02*
X167859000Y-93828621D01*
X174215000Y-93387621D02*
X172040000Y-93387621D01*
X173986000Y-94308621D02*
X172040000Y-94308621D01*
X169960000Y-94148621D02*
X167953000Y-94148621D01*
X169960000Y-94348621D02*
X168030000Y-94348621D01*
X172432000Y-95988621D02*
X169568000Y-95988621D01*
X169960000Y-95228621D02*
X168584000Y-95228621D01*
X172714000Y-95828621D02*
X169286000Y-95828621D01*
X173896000Y-94508621D02*
X172040000Y-94508621D01*
X171802000Y-96228621D02*
X170198000Y-96228621D01*
X173876000Y-94548621D02*
X172040000Y-94548621D01*
X174230000Y-93147621D02*
X167770000Y-93147621D01*
X173450000Y-95188621D02*
X172040000Y-95188621D01*
X174150000Y-93788621D02*
X172040000Y-93788621D01*
X174230000Y-93107621D02*
X167770000Y-93107621D01*
X169960000Y-94188621D02*
X167967000Y-94188621D01*
X169960000Y-93908621D02*
X167879000Y-93908621D01*
X173664000Y-94908621D02*
X172040000Y-94908621D01*
X173952000Y-94388621D02*
X172040000Y-94388621D01*
X173516000Y-95108621D02*
X172040000Y-95108621D01*
X173380000Y-95268621D02*
X172040000Y-95268621D01*
X173934000Y-94428621D02*
X172040000Y-94428621D01*
X173044000Y-95588621D02*
X168956000Y-95588621D01*
X172350000Y-96028621D02*
X169650000Y-96028621D01*
X172059000Y-96148621D02*
X169941000Y-96148621D01*
X169960000Y-95028621D02*
X168422000Y-95028621D01*
X169960000Y-94468621D02*
X168084000Y-94468621D01*
X174110000Y-93948621D02*
X172040000Y-93948621D01*
X172509000Y-95948621D02*
X169491000Y-95948621D01*
X169960000Y-94548621D02*
X168124000Y-94548621D01*
X169960000Y-94308621D02*
X168014000Y-94308621D01*
X174224000Y-93267621D02*
X167776000Y-93267621D01*
X172262000Y-96068621D02*
X169738000Y-96068621D01*
X169960000Y-93627621D02*
X167818000Y-93627621D01*
X174222000Y-93307621D02*
X172040000Y-93307621D01*
X169960000Y-94828621D02*
X168284000Y-94828621D01*
X174211000Y-93427621D02*
X172040000Y-93427621D01*
X169960000Y-95268621D02*
X168620000Y-95268621D01*
X169960000Y-95148621D02*
X168516000Y-95148621D01*
X172650000Y-95868621D02*
X169350000Y-95868621D01*
X169960000Y-95068621D02*
X168452000Y-95068621D01*
X173265000Y-95388621D02*
X168735000Y-95388621D01*
X174047000Y-94148621D02*
X172040000Y-94148621D01*
X172890000Y-95708621D02*
X169110000Y-95708621D01*
X173343000Y-95308621D02*
X172040000Y-95308621D01*
X173154000Y-89882380D02*
X172524000Y-89882380D01*
X169960000Y-93747621D02*
X167841000Y-93747621D01*
X169960000Y-94708621D02*
X168210000Y-94708621D01*
X172165000Y-96108621D02*
X169835000Y-96108621D01*
X173916000Y-94468621D02*
X172040000Y-94468621D01*
X171633000Y-96268621D02*
X170367000Y-96268621D01*
X174033000Y-94188621D02*
X172040000Y-94188621D01*
X169960000Y-94068621D02*
X167926000Y-94068621D01*
X169960000Y-94748621D02*
X168234000Y-94748621D01*
X173182000Y-95468621D02*
X168818000Y-95468621D01*
X174098000Y-93988621D02*
X172040000Y-93988621D01*
X174131000Y-93868621D02*
X172040000Y-93868621D01*
X174061000Y-94108621D02*
X172040000Y-94108621D01*
X173636000Y-94948621D02*
X172040000Y-94948621D01*
X173716000Y-94828621D02*
X172040000Y-94828621D01*
X169960000Y-94988621D02*
X168393000Y-94988621D01*
X169960000Y-93387621D02*
X167785000Y-93387621D01*
X174218000Y-93347621D02*
X172040000Y-93347621D01*
X169960000Y-93988621D02*
X167902000Y-93988621D01*
X169960000Y-95308621D02*
X168657000Y-95308621D01*
X169960000Y-93707621D02*
X167833000Y-93707621D01*
X169960000Y-94668621D02*
X168188000Y-94668621D01*
X174159000Y-93747621D02*
X172040000Y-93747621D01*
X174141000Y-93828621D02*
X172040000Y-93828621D01*
X169960000Y-94508621D02*
X168104000Y-94508621D01*
X174074000Y-94068621D02*
X172040000Y-94068621D01*
X169960000Y-94268621D02*
X167998000Y-94268621D01*
X169960000Y-93347621D02*
X167782000Y-93347621D01*
X169960000Y-93667621D02*
X167825000Y-93667621D01*
X173766000Y-94748621D02*
X172040000Y-94748621D01*
X169960000Y-94028621D02*
X167914000Y-94028621D01*
X174189000Y-93587621D02*
X172040000Y-93587621D01*
X174121000Y-93908621D02*
X172040000Y-93908621D01*
X172995000Y-95628621D02*
X169005000Y-95628621D01*
X169960000Y-94868621D02*
X168310000Y-94868621D01*
X171402000Y-96308621D02*
X170598000Y-96308621D01*
X173092000Y-95548621D02*
X168908000Y-95548621D01*
X173224000Y-95428621D02*
X168776000Y-95428621D01*
X174230000Y-93067621D02*
X167770000Y-93067621D01*
X172944000Y-95668621D02*
X169056000Y-95668621D01*
X173790000Y-94708621D02*
X172040000Y-94708621D01*
X169960000Y-95188621D02*
X168550000Y-95188621D01*
X174270000Y-93067621D02*
G75*
G03*
X174270000Y-93067621I-3270000J0D01*
G01*
%TO.C,D3*%
X190470000Y-94220000D02*
X190470000Y-88780000D01*
X190470000Y-88780000D02*
X187530000Y-88780000D01*
X187530000Y-93200000D02*
X190470000Y-93200000D01*
X187530000Y-93320000D02*
X190470000Y-93320000D01*
X189000000Y-95240000D02*
X189000000Y-94220000D01*
X187530000Y-94220000D02*
X190470000Y-94220000D01*
X187530000Y-88780000D02*
X187530000Y-94220000D01*
X187530000Y-93440000D02*
X190470000Y-93440000D01*
X189000000Y-87760000D02*
X189000000Y-88780000D01*
D15*
%TO.C,J1*%
X196375000Y-123187900D02*
X186375000Y-123187900D01*
X196375000Y-120387900D02*
X196375000Y-123187900D01*
X186375000Y-110187900D02*
X189275000Y-110187900D01*
X193575000Y-110187900D02*
X196375000Y-110187900D01*
X196375000Y-110187900D02*
X196375000Y-115987900D01*
X186375000Y-123187900D02*
X186375000Y-120387900D01*
X186375000Y-115987900D02*
X186375000Y-110187900D01*
D13*
X191575000Y-109387900D02*
G75*
G03*
X191575000Y-109387900I-200000J0D01*
G01*
D14*
%TO.C,C5*%
X143120000Y-87130000D02*
X138880000Y-87130000D01*
X143120000Y-89870000D02*
X143120000Y-89165000D01*
X143120000Y-87835000D02*
X143120000Y-87130000D01*
X138880000Y-87835000D02*
X138880000Y-87130000D01*
X138880000Y-89870000D02*
X138880000Y-89165000D01*
X143120000Y-89870000D02*
X138880000Y-89870000D01*
%TO.C,SW1*%
X170825200Y-138864200D02*
X179867600Y-138864200D01*
X179867600Y-106758600D02*
X178738684Y-106758600D01*
X170825200Y-106758600D02*
X170825200Y-138864200D01*
X179867600Y-138864200D02*
X179867600Y-106758600D01*
X177846916Y-106758600D02*
X172845884Y-106758600D01*
X171954116Y-106758600D02*
X170825200Y-106758600D01*
X170571200Y-107800000D02*
G75*
G03*
X170571200Y-107800000I-381000J0D01*
G01*
%TO.C,C1*%
X188870000Y-99835000D02*
X188870000Y-99130000D01*
X188870000Y-99130000D02*
X184630000Y-99130000D01*
X184630000Y-101870000D02*
X184630000Y-101165000D01*
X184630000Y-99835000D02*
X184630000Y-99130000D01*
X188870000Y-101870000D02*
X184630000Y-101870000D01*
X188870000Y-101870000D02*
X188870000Y-101165000D01*
%TO.C,D4*%
X182470000Y-94220000D02*
X182470000Y-88780000D01*
X179530000Y-88780000D02*
X179530000Y-94220000D01*
X181000000Y-95240000D02*
X181000000Y-94220000D01*
X179530000Y-94220000D02*
X182470000Y-94220000D01*
X179530000Y-93440000D02*
X182470000Y-93440000D01*
X179530000Y-93320000D02*
X182470000Y-93320000D01*
X182470000Y-88780000D02*
X179530000Y-88780000D01*
X181000000Y-87760000D02*
X181000000Y-88780000D01*
X179530000Y-93200000D02*
X182470000Y-93200000D01*
%TO.C,D2*%
X197920000Y-103580000D02*
X190080000Y-103580000D01*
X190080000Y-107420000D02*
X197920000Y-107420000D01*
X191220000Y-103580000D02*
X191220000Y-107420000D01*
X191340000Y-103580000D02*
X191340000Y-107420000D01*
X190080000Y-103580000D02*
X190080000Y-107420000D01*
X189090000Y-105500000D02*
X190080000Y-105500000D01*
X198910000Y-105500000D02*
X197920000Y-105500000D01*
X191460000Y-103580000D02*
X191460000Y-107420000D01*
X197920000Y-107420000D02*
X197920000Y-103580000D01*
%TO.C,U2*%
X159445000Y-100640000D02*
X159445000Y-95340000D01*
X141545000Y-100640000D02*
X159445000Y-100640000D01*
X141545000Y-95340000D02*
X141545000Y-96990000D01*
X141545000Y-98990000D02*
X141545000Y-100640000D01*
X159445000Y-95340000D02*
X141545000Y-95340000D01*
X141545000Y-98990000D02*
G75*
G03*
X141545000Y-96990000I0J1000000D01*
G01*
%TO.C,C3*%
X173165000Y-88620000D02*
X173870000Y-88620000D01*
X173870000Y-88620000D02*
X173870000Y-84380000D01*
X171130000Y-88620000D02*
X171130000Y-84380000D01*
X171130000Y-88620000D02*
X171835000Y-88620000D01*
X171130000Y-84380000D02*
X171835000Y-84380000D01*
X173165000Y-84380000D02*
X173870000Y-84380000D01*
D15*
%TO.C,J2*%
X147400000Y-123400000D02*
X150400000Y-123400000D01*
X141400000Y-123400000D02*
X141400000Y-126900000D01*
X138400000Y-123400000D02*
X138400000Y-111900000D01*
X141400000Y-123400000D02*
X147400000Y-123400000D01*
X138400000Y-123400000D02*
X141400000Y-123400000D01*
X141400000Y-126900000D02*
X147400000Y-126900000D01*
X147400000Y-126900000D02*
X147400000Y-123400000D01*
X138400000Y-111900000D02*
X150400000Y-111900000D01*
X150400000Y-111900000D02*
X150400000Y-123400000D01*
D12*
X144550000Y-121900000D02*
G75*
G03*
X144550000Y-121900000I-150000J0D01*
G01*
D14*
%TO.C,R1*%
X184370000Y-107230000D02*
X181630000Y-107230000D01*
X181630000Y-107230000D02*
X181630000Y-113770000D01*
X184370000Y-113770000D02*
X184370000Y-107230000D01*
X183000000Y-106460000D02*
X183000000Y-107230000D01*
X183000000Y-114540000D02*
X183000000Y-113770000D01*
X181630000Y-113770000D02*
X184370000Y-113770000D01*
%TO.C,C8*%
X152241000Y-82246677D02*
X155621000Y-82246677D01*
X146163000Y-82806677D02*
X149759000Y-82806677D01*
X146677000Y-81686677D02*
X149759000Y-81686677D01*
X146262000Y-82526677D02*
X149759000Y-82526677D01*
X152241000Y-81806677D02*
X155395000Y-81806677D01*
X145976000Y-83606677D02*
X156024000Y-83606677D01*
X152241000Y-82726677D02*
X155811000Y-82726677D01*
X152241000Y-82446677D02*
X155707000Y-82446677D01*
X146343000Y-82326677D02*
X149759000Y-82326677D01*
X148291000Y-80046677D02*
X153709000Y-80046677D01*
X152241000Y-81926677D02*
X155462000Y-81926677D01*
X147360000Y-80806677D02*
X149759000Y-80806677D01*
X146583000Y-81846677D02*
X149759000Y-81846677D01*
X152241000Y-81406677D02*
X155138000Y-81406677D01*
X146890000Y-81366677D02*
X149759000Y-81366677D01*
X152241000Y-81886677D02*
X155440000Y-81886677D01*
X147142000Y-81046677D02*
X149759000Y-81046677D01*
X148355000Y-80006677D02*
X153645000Y-80006677D01*
X145942000Y-83887677D02*
X156058000Y-83887677D01*
X145922000Y-84207677D02*
X156078000Y-84207677D01*
X146217000Y-82646677D02*
X149759000Y-82646677D01*
X152241000Y-82286677D02*
X155639000Y-82286677D01*
X145946000Y-83847677D02*
X156054000Y-83847677D01*
X145921000Y-84247677D02*
X156079000Y-84247677D01*
X149154000Y-79606677D02*
X152846000Y-79606677D01*
X152241000Y-82006677D02*
X155504000Y-82006677D01*
X145982000Y-83566677D02*
X156018000Y-83566677D01*
X146862000Y-81406677D02*
X149759000Y-81406677D01*
X145935000Y-83967677D02*
X156065000Y-83967677D01*
X145960000Y-83727677D02*
X156040000Y-83727677D01*
X147625000Y-89347323D02*
X148625000Y-89347323D01*
X152241000Y-82406677D02*
X155690000Y-82406677D01*
X148875000Y-79726677D02*
X153125000Y-79726677D01*
X145996000Y-83486677D02*
X156004000Y-83486677D01*
X152241000Y-81446677D02*
X155166000Y-81446677D01*
X145932000Y-84007677D02*
X156068000Y-84007677D01*
X148111000Y-80166677D02*
X153889000Y-80166677D01*
X146702000Y-81646677D02*
X149759000Y-81646677D01*
X146189000Y-82726677D02*
X149759000Y-82726677D01*
X152241000Y-82206677D02*
X155603000Y-82206677D01*
X152241000Y-80806677D02*
X154640000Y-80806677D01*
X147746000Y-80446677D02*
X154254000Y-80446677D01*
X152241000Y-83006677D02*
X155897000Y-83006677D01*
X146779000Y-81526677D02*
X149759000Y-81526677D01*
X149938000Y-79366677D02*
X152062000Y-79366677D01*
X146475000Y-82046677D02*
X149759000Y-82046677D01*
X152241000Y-81726677D02*
X155347000Y-81726677D01*
X152241000Y-81966677D02*
X155483000Y-81966677D01*
X145965000Y-83687677D02*
X156035000Y-83687677D01*
X145950000Y-83807677D02*
X156050000Y-83807677D01*
X152241000Y-81246677D02*
X155020000Y-81246677D01*
X152241000Y-81526677D02*
X155221000Y-81526677D01*
X152241000Y-80766677D02*
X154601000Y-80766677D01*
X147564000Y-80606677D02*
X154436000Y-80606677D01*
X152241000Y-81646677D02*
X155298000Y-81646677D01*
X146455000Y-82086677D02*
X149759000Y-82086677D01*
X146053000Y-83206677D02*
X155947000Y-83206677D01*
X147699000Y-80486677D02*
X154301000Y-80486677D01*
X152241000Y-82846677D02*
X155850000Y-82846677D01*
X150401000Y-79286677D02*
X151599000Y-79286677D01*
X146653000Y-81726677D02*
X149759000Y-81726677D01*
X146605000Y-81806677D02*
X149759000Y-81806677D01*
X152241000Y-81126677D02*
X154925000Y-81126677D01*
X152241000Y-82366677D02*
X155674000Y-82366677D01*
X145927000Y-84087677D02*
X156073000Y-84087677D01*
X147946000Y-80286677D02*
X154054000Y-80286677D01*
X147844000Y-80366677D02*
X154156000Y-80366677D01*
X152241000Y-80926677D02*
X154753000Y-80926677D01*
X152241000Y-81046677D02*
X154858000Y-81046677D01*
X145989000Y-83526677D02*
X156011000Y-83526677D01*
X152241000Y-82566677D02*
X155754000Y-82566677D01*
X146277000Y-82486677D02*
X149759000Y-82486677D01*
X152241000Y-82806677D02*
X155837000Y-82806677D01*
X146416000Y-82166677D02*
X149759000Y-82166677D01*
X146834000Y-81446677D02*
X149759000Y-81446677D01*
X152241000Y-82326677D02*
X155657000Y-82326677D01*
X146018000Y-83366677D02*
X155982000Y-83366677D01*
X152241000Y-81206677D02*
X154989000Y-81206677D01*
X148635000Y-79846677D02*
X153365000Y-79846677D01*
X148711000Y-79806677D02*
X153289000Y-79806677D01*
X152241000Y-80726677D02*
X154561000Y-80726677D01*
X146003000Y-83446677D02*
X155997000Y-83446677D01*
X152241000Y-82966677D02*
X155885000Y-82966677D01*
X152241000Y-82086677D02*
X155545000Y-82086677D01*
X149770000Y-79406677D02*
X152230000Y-79406677D01*
X152241000Y-81846677D02*
X155417000Y-81846677D01*
X152241000Y-83046677D02*
X155907000Y-83046677D01*
X146103000Y-83006677D02*
X149759000Y-83006677D01*
X146397000Y-82206677D02*
X149759000Y-82206677D01*
X148490000Y-79926677D02*
X153510000Y-79926677D01*
X146517000Y-81966677D02*
X149759000Y-81966677D01*
X152241000Y-80686677D02*
X154520000Y-80686677D01*
X146980000Y-81246677D02*
X149759000Y-81246677D01*
X146727000Y-81606677D02*
X149759000Y-81606677D01*
X149370000Y-79526677D02*
X152630000Y-79526677D01*
X146538000Y-81926677D02*
X149759000Y-81926677D01*
X146115000Y-82966677D02*
X149759000Y-82966677D01*
X147321000Y-80846677D02*
X149759000Y-80846677D01*
X147522000Y-80646677D02*
X149759000Y-80646677D01*
X145955000Y-83767677D02*
X156045000Y-83767677D01*
X147608000Y-80566677D02*
X154392000Y-80566677D01*
X146072000Y-83126677D02*
X155928000Y-83126677D01*
X148170000Y-80126677D02*
X153830000Y-80126677D01*
X152241000Y-81766677D02*
X155371000Y-81766677D01*
X146436000Y-82126677D02*
X149759000Y-82126677D01*
X152241000Y-82046677D02*
X155525000Y-82046677D01*
X152241000Y-82486677D02*
X155723000Y-82486677D01*
X146310000Y-82406677D02*
X149759000Y-82406677D01*
X152241000Y-81166677D02*
X154957000Y-81166677D01*
X146035000Y-83286677D02*
X155965000Y-83286677D01*
X152241000Y-82646677D02*
X155783000Y-82646677D01*
X146950000Y-81286677D02*
X149759000Y-81286677D01*
X147176000Y-81006677D02*
X149759000Y-81006677D01*
X152241000Y-83086677D02*
X155918000Y-83086677D01*
X149622000Y-79446677D02*
X152378000Y-79446677D01*
X146326000Y-82366677D02*
X149759000Y-82366677D01*
X146246000Y-82566677D02*
X149759000Y-82566677D01*
X146093000Y-83046677D02*
X149759000Y-83046677D01*
X152241000Y-82166677D02*
X155584000Y-82166677D01*
X147247000Y-80926677D02*
X149759000Y-80926677D01*
X149490000Y-79486677D02*
X152510000Y-79486677D01*
X146293000Y-82446677D02*
X149759000Y-82446677D01*
X146232000Y-82606677D02*
X149759000Y-82606677D01*
X148125000Y-89847323D02*
X148125000Y-88847323D01*
X146150000Y-82846677D02*
X149759000Y-82846677D01*
X152241000Y-82766677D02*
X155824000Y-82766677D01*
X145930000Y-84047677D02*
X156070000Y-84047677D01*
X145920000Y-84327677D02*
X156080000Y-84327677D01*
X152241000Y-82686677D02*
X155797000Y-82686677D01*
X152241000Y-81086677D02*
X154892000Y-81086677D01*
X149056000Y-79646677D02*
X152944000Y-79646677D01*
X147480000Y-80686677D02*
X149759000Y-80686677D01*
X148421000Y-79966677D02*
X153579000Y-79966677D01*
X152241000Y-82606677D02*
X155768000Y-82606677D01*
X152241000Y-81486677D02*
X155194000Y-81486677D01*
X146629000Y-81766677D02*
X149759000Y-81766677D01*
X148791000Y-79766677D02*
X153209000Y-79766677D01*
X145920000Y-84367677D02*
X156080000Y-84367677D01*
X148055000Y-80206677D02*
X153945000Y-80206677D01*
X147075000Y-81126677D02*
X149759000Y-81126677D01*
X152241000Y-81366677D02*
X155110000Y-81366677D01*
X146082000Y-83086677D02*
X149759000Y-83086677D01*
X147653000Y-80526677D02*
X154347000Y-80526677D01*
X147399000Y-80766677D02*
X149759000Y-80766677D01*
X148561000Y-79886677D02*
X153439000Y-79886677D01*
X147894000Y-80326677D02*
X154106000Y-80326677D01*
X152241000Y-81006677D02*
X154824000Y-81006677D01*
X146560000Y-81886677D02*
X149759000Y-81886677D01*
X152241000Y-81286677D02*
X155050000Y-81286677D01*
X146044000Y-83246677D02*
X155956000Y-83246677D01*
X147043000Y-81166677D02*
X149759000Y-81166677D01*
X147439000Y-80726677D02*
X149759000Y-80726677D01*
X152241000Y-80886677D02*
X154716000Y-80886677D01*
X145920000Y-84287677D02*
X156080000Y-84287677D01*
X146496000Y-82006677D02*
X149759000Y-82006677D01*
X150138000Y-79326677D02*
X151862000Y-79326677D01*
X146203000Y-82686677D02*
X149759000Y-82686677D01*
X152241000Y-80846677D02*
X154679000Y-80846677D01*
X146138000Y-82886677D02*
X149759000Y-82886677D01*
X152241000Y-80966677D02*
X154789000Y-80966677D01*
X147794000Y-80406677D02*
X154206000Y-80406677D01*
X152241000Y-81686677D02*
X155323000Y-81686677D01*
X146753000Y-81566677D02*
X149759000Y-81566677D01*
X152241000Y-82126677D02*
X155564000Y-82126677D01*
X145925000Y-84127677D02*
X156075000Y-84127677D01*
X152241000Y-81606677D02*
X155273000Y-81606677D01*
X148000000Y-80246677D02*
X154000000Y-80246677D01*
X152241000Y-80646677D02*
X154478000Y-80646677D01*
X149258000Y-79566677D02*
X152742000Y-79566677D01*
X145923000Y-84167677D02*
X156077000Y-84167677D01*
X146010000Y-83406677D02*
X155990000Y-83406677D01*
X152241000Y-81566677D02*
X155247000Y-81566677D01*
X146806000Y-81486677D02*
X149759000Y-81486677D01*
X148963000Y-79686677D02*
X153037000Y-79686677D01*
X146026000Y-83326677D02*
X155974000Y-83326677D01*
X146126000Y-82926677D02*
X149759000Y-82926677D01*
X148230000Y-80086677D02*
X153770000Y-80086677D01*
X147108000Y-81086677D02*
X149759000Y-81086677D01*
X145938000Y-83927677D02*
X156062000Y-83927677D01*
X146062000Y-83166677D02*
X155938000Y-83166677D01*
X146176000Y-82766677D02*
X149759000Y-82766677D01*
X145970000Y-83646677D02*
X156030000Y-83646677D01*
X152241000Y-81326677D02*
X155080000Y-81326677D01*
X147211000Y-80966677D02*
X149759000Y-80966677D01*
X152241000Y-82926677D02*
X155874000Y-82926677D01*
X146920000Y-81326677D02*
X149759000Y-81326677D01*
X147284000Y-80886677D02*
X149759000Y-80886677D01*
X146361000Y-82286677D02*
X149759000Y-82286677D01*
X146379000Y-82246677D02*
X149759000Y-82246677D01*
X147011000Y-81206677D02*
X149759000Y-81206677D01*
X152241000Y-82526677D02*
X155738000Y-82526677D01*
X152241000Y-82886677D02*
X155862000Y-82886677D01*
X156120000Y-84367677D02*
G75*
G03*
X156120000Y-84367677I-5120000J0D01*
G01*
D10*
%TO.C,RV1*%
X163700000Y-122300000D02*
X163700000Y-135500000D01*
X155850000Y-122300000D02*
X155850000Y-122300000D01*
X157700000Y-122300000D02*
X157700000Y-122300000D01*
X165550000Y-122300000D02*
X165550000Y-122300000D01*
D16*
X154300000Y-118700000D02*
X154300000Y-118700000D01*
D10*
X155850000Y-122300000D02*
X155850000Y-122300000D01*
X165550000Y-122300000D02*
X163700000Y-122300000D01*
X155850000Y-122300000D02*
X157450000Y-122300000D01*
X158950000Y-113100000D02*
X162700000Y-113100000D01*
X158950000Y-113100000D02*
X158950000Y-113100000D01*
X155850000Y-122300000D02*
X155850000Y-118800000D01*
X157700000Y-135500000D02*
X157700000Y-122300000D01*
X165550000Y-122300000D02*
X165550000Y-122300000D01*
X157700000Y-122300000D02*
X163700000Y-122300000D01*
X162700000Y-113100000D02*
X162700000Y-113100000D01*
X157450000Y-122300000D02*
X155850000Y-122300000D01*
X165550000Y-122300000D02*
X165550000Y-118800000D01*
X155850000Y-118800000D02*
X155850000Y-118800000D01*
D16*
X154400000Y-118700000D02*
X154400000Y-118700000D01*
D10*
X165550000Y-118800000D02*
X165550000Y-118800000D01*
X157450000Y-122300000D02*
X157450000Y-122300000D01*
X157700000Y-122300000D02*
X157450000Y-122300000D01*
X162700000Y-113100000D02*
X158950000Y-113100000D01*
X163700000Y-135500000D02*
X157700000Y-135500000D01*
X165550000Y-118800000D02*
X165550000Y-122300000D01*
X163700000Y-122300000D02*
X163700000Y-122300000D01*
X157450000Y-122300000D02*
X157700000Y-122300000D01*
X155850000Y-118800000D02*
X155850000Y-122300000D01*
X163700000Y-122300000D02*
X165550000Y-122300000D01*
D16*
X154300000Y-118700000D02*
X154300000Y-118700000D01*
D10*
X157450000Y-122300000D02*
X157450000Y-122300000D01*
D16*
X154300000Y-118700000D02*
G75*
G03*
X154400000Y-118700000I50000J0D01*
G01*
X154300000Y-118700000D02*
G75*
G03*
X154400000Y-118700000I50000J0D01*
G01*
X154400000Y-118700000D02*
G75*
G03*
X154300000Y-118700000I-50000J0D01*
G01*
D14*
%TO.C,C7*%
X163630000Y-89380000D02*
X163630000Y-93620000D01*
X166370000Y-89380000D02*
X166370000Y-93620000D01*
X166370000Y-93620000D02*
X165665000Y-93620000D01*
X166370000Y-89380000D02*
X165665000Y-89380000D01*
X164335000Y-89380000D02*
X163630000Y-89380000D01*
X164335000Y-93620000D02*
X163630000Y-93620000D01*
D11*
%TO.C,TP4*%
X134400000Y-102000000D02*
G75*
G03*
X134400000Y-102000000I-1400000J0D01*
G01*
D14*
%TO.C,R4*%
X159460000Y-87000000D02*
X160230000Y-87000000D01*
X160230000Y-88370000D02*
X166770000Y-88370000D01*
X160230000Y-85630000D02*
X160230000Y-88370000D01*
X166770000Y-88370000D02*
X166770000Y-85630000D01*
X166770000Y-85630000D02*
X160230000Y-85630000D01*
X167540000Y-87000000D02*
X166770000Y-87000000D01*
%TO.C,C2*%
X185557000Y-79294112D02*
X188443000Y-79294112D01*
X188040000Y-80694112D02*
X189468000Y-80694112D01*
X184690000Y-80294112D02*
X185960000Y-80294112D01*
X184489000Y-80855112D02*
X185960000Y-80855112D01*
X188040000Y-80574112D02*
X189428000Y-80574112D01*
X188040000Y-80534112D02*
X189414000Y-80534112D01*
X188040000Y-79494112D02*
X188699000Y-79494112D01*
X185749000Y-79174112D02*
X188251000Y-79174112D01*
X186323000Y-78934112D02*
X187677000Y-78934112D01*
X188040000Y-80134112D02*
X189224000Y-80134112D01*
X188040000Y-79854112D02*
X189035000Y-79854112D01*
X184671000Y-80334112D02*
X185960000Y-80334112D01*
X186482000Y-78894112D02*
X187518000Y-78894112D01*
X188040000Y-81055112D02*
X189550000Y-81055112D01*
X184572000Y-80574112D02*
X185960000Y-80574112D01*
X185681000Y-79214112D02*
X188319000Y-79214112D01*
X188040000Y-79534112D02*
X188743000Y-79534112D01*
X184532000Y-80694112D02*
X185960000Y-80694112D01*
X188040000Y-80294112D02*
X189310000Y-80294112D01*
X185500000Y-79334112D02*
X188500000Y-79334112D01*
X184450000Y-81055112D02*
X185960000Y-81055112D01*
X188040000Y-79974112D02*
X189122000Y-79974112D01*
X184965000Y-79854112D02*
X185960000Y-79854112D01*
X184800000Y-80094112D02*
X185960000Y-80094112D01*
X184435000Y-81175112D02*
X185960000Y-81175112D01*
X184776000Y-80134112D02*
X185960000Y-80134112D01*
X184732000Y-80214112D02*
X185960000Y-80214112D01*
X184635000Y-80414112D02*
X185960000Y-80414112D01*
X185174000Y-79614112D02*
X185960000Y-79614112D01*
X188040000Y-81455112D02*
X189580000Y-81455112D01*
X188040000Y-79454112D02*
X188653000Y-79454112D01*
X188040000Y-79734112D02*
X188937000Y-79734112D01*
X184935000Y-79894112D02*
X185960000Y-79894112D01*
X188040000Y-80494112D02*
X189398000Y-80494112D01*
X184464000Y-80975112D02*
X185960000Y-80975112D01*
X185347000Y-79454112D02*
X185960000Y-79454112D01*
X184753000Y-80174112D02*
X185960000Y-80174112D01*
X188040000Y-80614112D02*
X189442000Y-80614112D01*
X184420000Y-81415112D02*
X185960000Y-81415112D01*
X188040000Y-81095112D02*
X189556000Y-81095112D01*
X184431000Y-81215112D02*
X185960000Y-81215112D01*
X184444000Y-81095112D02*
X185960000Y-81095112D01*
X185136000Y-79654112D02*
X185960000Y-79654112D01*
X185395000Y-79414112D02*
X188605000Y-79414112D01*
X185099000Y-79694112D02*
X185960000Y-79694112D01*
X188040000Y-80775112D02*
X189491000Y-80775112D01*
X188040000Y-80174112D02*
X189247000Y-80174112D01*
X188040000Y-80935112D02*
X189528000Y-80935112D01*
X188040000Y-79574112D02*
X188785000Y-79574112D01*
X188040000Y-80895112D02*
X189520000Y-80895112D01*
X188040000Y-80414112D02*
X189365000Y-80414112D01*
X185257000Y-79534112D02*
X185960000Y-79534112D01*
X184509000Y-80775112D02*
X185960000Y-80775112D01*
X188040000Y-79614112D02*
X188826000Y-79614112D01*
X184878000Y-79974112D02*
X185960000Y-79974112D01*
X185275000Y-84009887D02*
X185775000Y-84009887D01*
X184472000Y-80935112D02*
X185960000Y-80935112D01*
X188040000Y-80014112D02*
X189149000Y-80014112D01*
X184520000Y-80734112D02*
X185960000Y-80734112D01*
X188040000Y-80094112D02*
X189200000Y-80094112D01*
X184618000Y-80454112D02*
X185960000Y-80454112D01*
X188040000Y-80734112D02*
X189480000Y-80734112D01*
X184424000Y-81295112D02*
X185960000Y-81295112D01*
X188040000Y-79814112D02*
X189004000Y-79814112D01*
X184586000Y-80534112D02*
X185960000Y-80534112D01*
X188040000Y-80855112D02*
X189511000Y-80855112D01*
X184905000Y-79934112D02*
X185960000Y-79934112D01*
X188040000Y-81215112D02*
X189569000Y-81215112D01*
X188040000Y-79654112D02*
X188864000Y-79654112D01*
X188040000Y-80815112D02*
X189501000Y-80815112D01*
X184420000Y-81455112D02*
X185960000Y-81455112D01*
X185525000Y-84259887D02*
X185525000Y-83759887D01*
X188040000Y-79694112D02*
X188901000Y-79694112D01*
X188040000Y-81015112D02*
X189543000Y-81015112D01*
X184652000Y-80374112D02*
X185960000Y-80374112D01*
X186716000Y-78854112D02*
X187284000Y-78854112D01*
X186195000Y-78974112D02*
X187805000Y-78974112D01*
X184421000Y-81375112D02*
X185960000Y-81375112D01*
X188040000Y-81335112D02*
X189578000Y-81335112D01*
X188040000Y-80374112D02*
X189348000Y-80374112D01*
X188040000Y-80454112D02*
X189382000Y-80454112D01*
X184558000Y-80614112D02*
X185960000Y-80614112D01*
X186085000Y-79014112D02*
X187915000Y-79014112D01*
X188040000Y-81175112D02*
X189565000Y-81175112D01*
X188040000Y-81295112D02*
X189576000Y-81295112D01*
X185446000Y-79374112D02*
X188554000Y-79374112D01*
X188040000Y-80214112D02*
X189268000Y-80214112D01*
X184457000Y-81015112D02*
X185960000Y-81015112D01*
X185215000Y-79574112D02*
X185960000Y-79574112D01*
X188040000Y-81135112D02*
X189561000Y-81135112D01*
X184439000Y-81135112D02*
X185960000Y-81135112D01*
X184545000Y-80654112D02*
X185960000Y-80654112D01*
X185902000Y-79094112D02*
X188098000Y-79094112D01*
X185063000Y-79734112D02*
X185960000Y-79734112D01*
X184427000Y-81255112D02*
X185960000Y-81255112D01*
X184710000Y-80254112D02*
X185960000Y-80254112D01*
X188040000Y-80254112D02*
X189290000Y-80254112D01*
X185617000Y-79254112D02*
X188383000Y-79254112D01*
X185301000Y-79494112D02*
X185960000Y-79494112D01*
X188040000Y-81415112D02*
X189580000Y-81415112D01*
X184480000Y-80895112D02*
X185960000Y-80895112D01*
X185822000Y-79134112D02*
X188178000Y-79134112D01*
X188040000Y-79894112D02*
X189065000Y-79894112D01*
X184825000Y-80054112D02*
X185960000Y-80054112D01*
X184996000Y-79814112D02*
X185960000Y-79814112D01*
X184851000Y-80014112D02*
X185960000Y-80014112D01*
X184602000Y-80494112D02*
X185960000Y-80494112D01*
X188040000Y-81255112D02*
X189573000Y-81255112D01*
X184499000Y-80815112D02*
X185960000Y-80815112D01*
X188040000Y-80654112D02*
X189455000Y-80654112D01*
X188040000Y-80054112D02*
X189175000Y-80054112D01*
X188040000Y-81375112D02*
X189579000Y-81375112D01*
X188040000Y-79774112D02*
X188971000Y-79774112D01*
X188040000Y-80334112D02*
X189329000Y-80334112D01*
X188040000Y-79934112D02*
X189095000Y-79934112D01*
X185989000Y-79054112D02*
X188011000Y-79054112D01*
X188040000Y-80975112D02*
X189536000Y-80975112D01*
X185029000Y-79774112D02*
X185960000Y-79774112D01*
X184422000Y-81335112D02*
X185960000Y-81335112D01*
X189620000Y-81455112D02*
G75*
G03*
X189620000Y-81455112I-2620000J0D01*
G01*
%TD*%
M02*
