M48
; DRILL file {KiCad (6.0.5)} date Fri Jun 17 11:54:16 2022
; FORMAT={-:-/ absolute / metric / decimal}
; #@! TF.CreationDate,2022-06-17T11:54:16-07:00
; #@! TF.GenerationSoftware,Kicad,Pcbnew,(6.0.5)
; #@! TF.FileFunction,Plated,1,2,PTH
FMAT,2
METRIC
; #@! TA.AperFunction,Plated,PTH,ComponentDrill
T1C0.800
; #@! TA.AperFunction,Plated,PTH,ComponentDrill
T2C0.839
; #@! TA.AperFunction,Plated,PTH,ComponentDrill
T3C0.900
; #@! TA.AperFunction,Plated,PTH,ComponentDrill
T4C0.991
; #@! TA.AperFunction,Plated,PTH,ComponentDrill
T5C1.000
; #@! TA.AperFunction,Plated,PTH,ComponentDrill
T6C1.092
; #@! TA.AperFunction,Plated,PTH,ComponentDrill
T7C1.100
; #@! TA.AperFunction,Plated,PTH,ComponentDrill
T8C1.200
; #@! TA.AperFunction,Plated,PTH,ComponentDrill
T9C2.300
; #@! TA.AperFunction,Plated,PTH,ComponentDrill
T10C3.200
%
G90
G05
T1
X135.545Y-108.5
X135.545Y-110.5
X139.75Y-88.5
X142.25Y-88.5
X142.875Y-94.18
X142.875Y-101.8
X145.415Y-94.18
X145.415Y-101.8
X147.955Y-94.18
X147.955Y-101.8
X150.495Y-94.18
X150.495Y-101.8
X153.035Y-94.18
X153.035Y-101.8
X155.575Y-94.18
X155.575Y-101.8
X158.115Y-94.18
X158.115Y-101.8
X158.42Y-87.0
X165.0Y-90.25
X165.0Y-92.75
X168.58Y-87.0
X171.0Y-91.818
X171.0Y-94.318
X172.5Y-85.25
X172.5Y-87.75
X177.0Y-86.42
X177.0Y-96.58
X183.0Y-105.42
X183.0Y-115.58
X185.0Y-86.42
X185.0Y-96.58
X185.5Y-100.5
X187.0Y-80.455
X187.0Y-82.455
X188.0Y-100.5
T2
X173.425Y-101.5
X176.575Y-101.5
T3
X181.6Y-119.3
X184.14Y-119.3
T4
X139.5Y-80.0
X142.0Y-80.0
T5
X132.9Y-81.4
X132.9Y-93.9
X133.0Y-102.0
X151.0Y-81.868
X151.0Y-86.868
X158.2Y-118.8
X160.7Y-118.8
X163.2Y-118.8
X167.5Y-108.0
T6
X172.4Y-107.8
X172.4Y-110.289
X178.293Y-107.8
X178.293Y-110.289
T7
X181.0Y-86.42
X181.0Y-96.58
X189.0Y-86.42
X189.0Y-96.58
X196.5Y-89.96
X196.5Y-92.5
X196.5Y-95.04
T8
X187.65Y-105.5
X200.35Y-105.5
T9
X155.7Y-115.5
X165.7Y-115.5
T10
X134.25Y-119.0
X136.075Y-67.9
X199.175Y-67.9
X201.0Y-119.0
T5
G00X139.4Y-115.65
M15
G01X139.4Y-115.15
M16
G05
G00X144.15Y-120.4
M15
G01X144.65Y-120.4
M16
G05
G00X149.4Y-115.65
M15
G01X149.4Y-115.15
M16
G05
G00X186.875Y-117.438
M15
G01X186.875Y-118.938
M16
G05
G00X192.375Y-111.188
M15
G01X190.375Y-111.188
M16
G05
G00X192.025Y-117.188
M15
G01X190.725Y-117.188
M16
G05
G00X195.875Y-117.438
M15
G01X195.875Y-118.938
M16
G05
T0
M30
